<svg xmlns="http://www.w3.org/2000/svg" width="67.078" height="163.288" viewBox="0 0 67.078 163.288">
  <g id="abeille" transform="translate(19881.699 5446.807)">
    <path id="Tracé_33378" data-name="Tracé 33378" d="M291.867,292.379c1.24-10.1-2.614-20.293-6.4-29.469-1.5-3.649-3.783-7.532-7.457-9.347a8.21,8.21,0,0,0-10.252,2.334,10.976,10.976,0,0,0-1.514,10.827c1.67,4.105,5.282,7.1,9.184,9.006,4.375,2.144,9.155,3.2,13.855,4.354,4.51,1.109,9.381,2.286,13.215,5.041,3.2,2.3,6.947,8.116,2.1,10.855-4.741,2.678-9.836-1.246-13.458-4.04a1.51,1.51,0,0,0-2.053.538,1.537,1.537,0,0,0,.538,2.052c3.471,2.678,7.444,5.575,12.068,5.285,3.958-.247,7.709-2.688,8.189-6.869s-2.531-7.988-5.717-10.3c-3.727-2.709-8.454-4.032-12.86-5.147-4.591-1.162-9.346-2.06-13.68-4.034-3.741-1.7-7.615-4.462-8.864-8.581-.959-3.161.28-7.469,3.509-8.869,3.778-1.637,7.125,1.928,8.871,4.854a44.756,44.756,0,0,1,3.088,7c1.008,2.627,1.947,5.282,2.739,7.982,1.572,5.36,2.584,10.938,1.9,16.529-.235,1.912,2.767,1.895,3,0" transform="translate(-20132 -5695)" fill="#fff"/>
    <path id="Tracé_33379" data-name="Tracé 33379" d="M288.642,268.759c2-3.6,6.895-5.332,10.744-4.349,4.105,1.049,5.83,5.48,4.921,9.384a8.174,8.174,0,0,1-3.943,5.461c-1.694.927-.182,3.518,1.514,2.591,4.883-2.67,6.913-9.234,4.918-14.338a9.682,9.682,0,0,0-5.545-5.647,12.479,12.479,0,0,0-8.007-.111,12.2,12.2,0,0,0-7.192,5.495c-.94,1.689,1.65,3.2,2.59,1.514" transform="translate(-20132 -5695)" fill="#fff"/>
    <path id="Tracé_33380" data-name="Tracé 33380" d="M297.8,260.759V249.693a1.5,1.5,0,0,0-3,0v11.066a1.5,1.5,0,0,0,3,0" transform="translate(-20132 -5695)" fill="#fff"/>
    <path id="Tracé_33381" data-name="Tracé 33381" d="M306.914,268.17l9.363-1.7a1.507,1.507,0,0,0,1.048-1.845,1.54,1.54,0,0,0-1.845-1.047l-9.364,1.7a1.508,1.508,0,0,0-1.047,1.845,1.54,1.54,0,0,0,1.845,1.048" transform="translate(-20132 -5695)" fill="#fff"/>
    <path id="Tracé_33382" data-name="Tracé 33382" d="M299.7,392.421c-4.643,6.583-11.093,11.637-17.645,16.2-1.573,1.1-.076,3.7,1.514,2.59,7-4.875,13.764-10.247,18.721-17.276,1.115-1.581-1.485-3.081-2.59-1.514" transform="translate(-20132 -5695)" fill="#fff"/>
    <path id="Tracé_33383" data-name="Tracé 33383" d="M288.148,353.383c4.958,1.906,9.867,4.455,13.23,8.691,3.607,4.544,4.607,10.419,4.008,16.069-.2,1.918,2.8,1.9,3,0a24.581,24.581,0,0,0-4.644-17.881c-3.751-4.8-9.22-7.628-14.8-9.772-1.8-.693-2.585,2.206-.8,2.893" transform="translate(-20132 -5695)" fill="#fff"/>
    <path id="Tracé_33384" data-name="Tracé 33384" d="M251.5,330.1c3.864,9.751,13.538,15.355,22.97,18.708,1.823.648,2.607-2.25.8-2.893-8.308-2.953-17.447-7.961-20.875-16.613-.7-1.773-3.606-1-2.893.8" transform="translate(-20132 -5695)" fill="#fff"/>
    <path id="Tracé_33385" data-name="Tracé 33385" d="M259.111,306.7c-5.3,2.507-8.128,7.984-8.811,13.6a1.509,1.509,0,0,0,1.5,1.5,1.537,1.537,0,0,0,1.5-1.5c.557-4.582,3-8.968,7.325-11.012a1.512,1.512,0,0,0,.538-2.052,1.532,1.532,0,0,0-2.052-.538" transform="translate(-20132 -5695)" fill="#fff"/>
    <path id="Tracé_33386" data-name="Tracé 33386" d="M289.157,292.786c-6.278,5.651-15.483,3.354-22.76,1.447a1.5,1.5,0,1,0-.8,2.893c8.471,2.219,18.481,4.261,25.679-2.219,1.438-1.294-.689-3.41-2.121-2.121" transform="translate(-20132 -5695)" fill="#fff"/>
    <path id="Tracé_33387" data-name="Tracé 33387" d="M274.209,275.071a29.141,29.141,0,0,0-10.154,21.119c-.065,1.931,2.935,1.928,3,0a26.194,26.194,0,0,1,9.275-19c1.476-1.249-.655-3.362-2.121-2.121" transform="translate(-20132 -5695)" fill="#fff"/>
    <path id="Tracé_33388" data-name="Tracé 33388" d="M274.359,279.656a10.045,10.045,0,0,1,4.523,4.232,9.787,9.787,0,0,1,1.108,2.887,9.6,9.6,0,0,1,.17,3.15,1.51,1.51,0,0,0,1.5,1.5,1.532,1.532,0,0,0,1.5-1.5,13.244,13.244,0,0,0-7.287-12.859,1.54,1.54,0,0,0-2.052.538,1.513,1.513,0,0,0,.538,2.052" transform="translate(-20132 -5695)" fill="#fff"/>
  </g>
</svg>
