<svg xmlns="http://www.w3.org/2000/svg" xmlns:xlink="http://www.w3.org/1999/xlink" width="394" height="638" viewBox="0 0 394 638">
  <defs>
    <clipPath id="clip-path">
      <rect id="Rectangle_361" data-name="Rectangle 361" width="394" height="638" transform="translate(1526)" fill="#00b0e0"/>
    </clipPath>
    <clipPath id="clip-path-2">
      <rect id="Rectangle_3" data-name="Rectangle 3" width="1161.466" height="1123.841" fill="#00b0e0"/>
    </clipPath>
  </defs>
  <g id="Groupe_de_masques_7" data-name="Groupe de masques 7" transform="translate(-1526)" opacity="0.325" clip-path="url(#clip-path)">
    <g id="Groupe_6" data-name="Groupe 6" transform="translate(1546 -461.538)" clip-path="url(#clip-path-2)">
      <g id="Groupe_5" data-name="Groupe 5">
        <g id="Groupe_4" data-name="Groupe 4" clip-path="url(#clip-path-2)">
          <path id="Tracé_1" data-name="Tracé 1" d="M1117.783,326.174Q1074.061,222.96,996.507,150.655,918.875,78.373,811.973,39.164,704.958.045,579.964,0,454.9,0,348.723,39.168T164.952,150.655Q87.333,223.01,43.668,326.174-.053,429.383,0,557.41,0,683.972,43.668,788.646,87.332,893.418,164.952,967.907q77.558,74.584,183.771,115.28,106.193,40.677,231.241,40.653,125,0,232.009-40.653,106.929-40.676,184.534-115.28,77.558-74.512,121.276-179.261c.4-.942-.338-2.894-2.9-2.894H814.207c-7.719,0-11.558,6.732-14.286,9.664A294.3,294.3,0,0,1,703.5,864q-55.769,24.837-123.54,24.861-67.755,0-123.545-24.861a286.129,286.129,0,0,1-95.646-68.582q-39.931-43.657-62.537-104.679-22.549-61.043-22.562-133.326,0-69.3,21.841-129.541Q319.3,367.634,360,324.637a299.53,299.53,0,0,1,96.415-67.77q55.771-24.838,123.545-24.859,67.812,0,124.3,24.859,56.436,24.843,96.422,67.77,47.575,51.292,70.584,127.195l-.254.359H589.952V355.979a8.067,8.067,0,0,0-13.77-5.7l-192.4,192.408a8.063,8.063,0,0,0,0,11.406l192.4,192.389a8.064,8.064,0,0,0,13.77-5.7V640.791h550.792a16.779,16.779,0,0,0,16.749-14.828,634,634,0,0,0,3.973-68.553q0-128.047-43.683-231.236" transform="translate(0)" fill="#00b0e0"/>
        </g>
      </g>
    </g>
  </g>
</svg>
