<svg xmlns="http://www.w3.org/2000/svg" width="198.05" height="49.698" viewBox="0 0 198.05 49.698">
  <g id="Groupe_1506" data-name="Groupe 1506" transform="translate(-302 -48)">
    <path id="Tracé_17" data-name="Tracé 17" d="M0,0V14.631H10.368v-2.3H2.719V0Z" transform="translate(303.502 78.865)" fill="#fff"/>
    <path id="Tracé_18" data-name="Tracé 18" d="M.491.07A1.241,1.241,0,0,1,.866,1a2.111,2.111,0,0,1-.074.553C.744,1.734.648,2,.508,2.36L-.34,4.6H-1.66l.652-2.432a1.094,1.094,0,0,1-.563-.434A1.306,1.306,0,0,1-1.774,1,1.245,1.245,0,0,1-1.4.07,1.3,1.3,0,0,1-.454-.294,1.3,1.3,0,0,1,.491.07" transform="translate(313.093 82.986)" fill="#fff"/>
    <path id="Tracé_19" data-name="Tracé 19" d="M1.922,1.567H-4.907a2.283,2.283,0,0,0,.937,1.476,3.137,3.137,0,0,0,1.882.546A3.224,3.224,0,0,0,.276,2.672L1.367,3.889A3.679,3.679,0,0,1-.115,4.916a5.567,5.567,0,0,1-2.021.348A5.518,5.518,0,0,1-4.663,4.71,4.063,4.063,0,0,1-6.349,3.17,4.245,4.245,0,0,1-6.943.936a4.3,4.3,0,0,1,.578-2.22,4.043,4.043,0,0,1,1.6-1.539,4.8,4.8,0,0,1,2.313-.553,4.693,4.693,0,0,1,2.274.544A3.928,3.928,0,0,1,1.392-1.3,4.528,4.528,0,0,1,1.953.983c0,.136-.01.332-.032.584M-4.1-1.237A2.348,2.348,0,0,0-4.923.257H.015a2.309,2.309,0,0,0-.8-1.485A2.473,2.473,0,0,0-2.446-1.8,2.505,2.505,0,0,0-4.1-1.237M-1.664-6.6h2.4L-2.1-4.435H-3.863Z" transform="translate(321.767 89.37)" fill="#fff"/>
    <path id="Tracé_20" data-name="Tracé 20" d="M1.643.179a3.611,3.611,0,0,1,.995,2.765V7.776H.6V3.2A2.32,2.32,0,0,0,.062,1.529,2.024,2.024,0,0,0-1.47.968a2.392,2.392,0,0,0-1.776.656A2.559,2.559,0,0,0-3.9,3.511V7.776H-5.935V-.659H-4V.431a3.173,3.173,0,0,1,1.27-.884A4.7,4.7,0,0,1-1-.753a3.7,3.7,0,0,1,2.64.932" transform="translate(331.611 86.747)" fill="#fff"/>
    <path id="Tracé_21" data-name="Tracé 21" d="M1.922.949H-4.907a2.283,2.283,0,0,0,.937,1.476,3.137,3.137,0,0,0,1.882.546A3.224,3.224,0,0,0,.276,2.054L1.367,3.27A3.679,3.679,0,0,1-.115,4.3a5.567,5.567,0,0,1-2.021.348,5.518,5.518,0,0,1-2.527-.553A4.063,4.063,0,0,1-6.349,2.551,4.245,4.245,0,0,1-6.943.318,4.3,4.3,0,0,1-6.365-1.9a4.043,4.043,0,0,1,1.6-1.539A4.8,4.8,0,0,1-2.446-4a4.693,4.693,0,0,1,2.274.544A3.928,3.928,0,0,1,1.392-1.919,4.528,4.528,0,0,1,1.953.365c0,.136-.01.332-.032.584M-4.1-1.855A2.348,2.348,0,0,0-4.923-.362H.015a2.309,2.309,0,0,0-.8-1.485,2.473,2.473,0,0,0-1.662-.569A2.505,2.505,0,0,0-4.1-1.855" transform="translate(343.147 89.989)" fill="#fff"/>
    <path id="Tracé_22" data-name="Tracé 22" d="M1.092,0V1.88a2.612,2.612,0,0,0-.472-.047A2.5,2.5,0,0,0-1.239,2.5a2.628,2.628,0,0,0-.669,1.935v4.09H-3.944V.094H-2V1.327A3.436,3.436,0,0,1,1.092,0" transform="translate(351 85.994)" fill="#fff"/>
    <path id="Tracé_23" data-name="Tracé 23" d="M2.028.018V7.173q0,4.455-4.693,4.454a8.961,8.961,0,0,1-2.379-.307A5.109,5.109,0,0,1-6.9,10.426l.913-1.485a4.414,4.414,0,0,0,1.443.735,5.814,5.814,0,0,0,1.768.276,2.981,2.981,0,0,0,2.1-.631A2.534,2.534,0,0,0-.009,7.395V6.952a3.365,3.365,0,0,1-1.272.838,4.613,4.613,0,0,1-1.646.285A4.849,4.849,0,0,1-5.167,7.56,3.928,3.928,0,0,1-6.748,6.115a3.958,3.958,0,0,1-.578-2.132,3.92,3.92,0,0,1,.578-2.125A3.882,3.882,0,0,1-5.167.429a4.907,4.907,0,0,1,2.241-.5,4.71,4.71,0,0,1,1.719.3,3.17,3.17,0,0,1,1.3.916V.018ZM-.719,5.728A2.243,2.243,0,0,0,.023,3.983,2.2,2.2,0,0,0-.719,2.262a2.736,2.736,0,0,0-1.9-.663,2.758,2.758,0,0,0-1.914.663,2.2,2.2,0,0,0-.742,1.721,2.239,2.239,0,0,0,.742,1.745A2.74,2.74,0,0,0-2.617,6.4a2.719,2.719,0,0,0,1.9-.672" transform="translate(360.347 86.072)" fill="#fff"/>
    <path id="Tracé_24" data-name="Tracé 24" d="M.081.389A1.092,1.092,0,0,1-.294-.456,1.094,1.094,0,0,1,.081-1.3a1.332,1.332,0,0,1,.929-.339,1.373,1.373,0,0,1,.928.323A1.032,1.032,0,0,1,2.314-.5a1.169,1.169,0,0,1-.368.876,1.286,1.286,0,0,1-.936.355A1.332,1.332,0,0,1,.081.389m-.1,1.729H2.019v8.435H-.017Z" transform="translate(365.063 83.97)" fill="#fff"/>
    <path id="Tracé_25" data-name="Tracé 25" d="M1.922.949H-4.907a2.283,2.283,0,0,0,.937,1.476,3.137,3.137,0,0,0,1.882.546A3.224,3.224,0,0,0,.276,2.054L1.367,3.27A3.679,3.679,0,0,1-.115,4.3a5.567,5.567,0,0,1-2.021.348,5.518,5.518,0,0,1-2.527-.553A4.063,4.063,0,0,1-6.349,2.551,4.245,4.245,0,0,1-6.943.318,4.3,4.3,0,0,1-6.365-1.9a4.043,4.043,0,0,1,1.6-1.539A4.8,4.8,0,0,1-2.446-4a4.693,4.693,0,0,1,2.274.544A3.928,3.928,0,0,1,1.392-1.919,4.528,4.528,0,0,1,1.953.365c0,.136-.01.332-.032.584M-4.1-1.855A2.348,2.348,0,0,0-4.923-.362H.015a2.309,2.309,0,0,0-.8-1.485,2.473,2.473,0,0,0-1.662-.569A2.505,2.505,0,0,0-4.1-1.855" transform="translate(375.983 89.989)" fill="#fff"/>
    <path id="Tracé_26" data-name="Tracé 26" d="M2,0V11.72H.047V10.63a3.133,3.133,0,0,1-1.246.9,4.32,4.32,0,0,1-1.638.3,4.711,4.711,0,0,1-2.257-.537A3.913,3.913,0,0,1-6.666,9.769,4.441,4.441,0,0,1-7.237,7.5a4.406,4.406,0,0,1,.571-2.26A3.94,3.94,0,0,1-5.095,3.727,4.711,4.711,0,0,1-2.837,3.19a4.254,4.254,0,0,1,1.581.285,3.179,3.179,0,0,1,1.223.853V0ZM-1.273,9.816a2.372,2.372,0,0,0,.929-.923A2.752,2.752,0,0,0,0,7.5a2.749,2.749,0,0,0-.342-1.39,2.367,2.367,0,0,0-.929-.924,2.686,2.686,0,0,0-1.319-.324,2.691,2.691,0,0,0-1.32.324,2.367,2.367,0,0,0-.929.924A2.762,2.762,0,0,0-5.184,7.5a2.766,2.766,0,0,0,.342,1.39,2.372,2.372,0,0,0,.929.923,2.678,2.678,0,0,0,1.32.324,2.673,2.673,0,0,0,1.319-.324" transform="translate(390.91 82.804)" fill="#fff"/>
    <path id="Tracé_27" data-name="Tracé 27" d="M1.922.949H-4.907a2.283,2.283,0,0,0,.937,1.476,3.137,3.137,0,0,0,1.882.546A3.224,3.224,0,0,0,.276,2.054L1.367,3.27A3.679,3.679,0,0,1-.115,4.3a5.567,5.567,0,0,1-2.021.348,5.518,5.518,0,0,1-2.527-.553A4.063,4.063,0,0,1-6.349,2.551,4.245,4.245,0,0,1-6.943.318,4.3,4.3,0,0,1-6.365-1.9a4.043,4.043,0,0,1,1.6-1.539A4.8,4.8,0,0,1-2.446-4a4.693,4.693,0,0,1,2.274.544A3.928,3.928,0,0,1,1.392-1.919,4.528,4.528,0,0,1,1.953.365c0,.136-.01.332-.032.584M-4.1-1.855A2.348,2.348,0,0,0-4.923-.362H.015a2.309,2.309,0,0,0-.8-1.485,2.473,2.473,0,0,0-1.662-.569A2.505,2.505,0,0,0-4.1-1.855" transform="translate(401.812 89.989)" fill="#fff"/>
    <path id="Tracé_28" data-name="Tracé 28" d="M.35,1.607A5.309,5.309,0,0,1-1.264.927l.783-1.5A5.091,5.091,0,0,0,.928.035,6.05,6.05,0,0,0,2.55.264q1.825,0,1.826-.932a.627.627,0,0,0-.465-.616,8.307,8.307,0,0,0-1.491-.332A12.512,12.512,0,0,1,.668-1.978,2.71,2.71,0,0,1-.506-2.7,1.968,1.968,0,0,1-1-4.127,2.228,2.228,0,0,1,.032-6.046a4.823,4.823,0,0,1,2.795-.719,8.262,8.262,0,0,1,1.793.2,5.143,5.143,0,0,1,1.467.528L5.3-4.538A4.952,4.952,0,0,0,2.81-5.17a2.822,2.822,0,0,0-1.36.261.774.774,0,0,0-.465.687.689.689,0,0,0,.5.672,8.2,8.2,0,0,0,1.54.371,12.3,12.3,0,0,1,1.711.363,2.694,2.694,0,0,1,1.149.7,1.9,1.9,0,0,1,.481,1.39,2.185,2.185,0,0,1-1.06,1.9,5.115,5.115,0,0,1-2.884.71A8.055,8.055,0,0,1,.35,1.607" transform="translate(405.991 92.759)" fill="#fff"/>
    <path id="Tracé_29" data-name="Tracé 29" d="M1.385,1.888a2.439,2.439,0,0,1-.872.427,4.073,4.073,0,0,1-1.084.142A3.129,3.129,0,0,1-2.787,1.73,2.743,2.743,0,0,1-3.569-.386V-4.445H-5v-1.58h1.434V-7.952h2.036v1.927H.8v1.58H-1.533V-.433a1.3,1.3,0,0,0,.31.939,1.179,1.179,0,0,0,.9.324A1.829,1.829,0,0,0,.814.483Z" transform="translate(422.458 92.177)" fill="#fff"/>
    <path id="Tracé_30" data-name="Tracé 30" d="M1.922.949H-4.907a2.283,2.283,0,0,0,.937,1.476,3.137,3.137,0,0,0,1.882.546A3.224,3.224,0,0,0,.276,2.054L1.367,3.27A3.679,3.679,0,0,1-.115,4.3a5.567,5.567,0,0,1-2.021.348,5.518,5.518,0,0,1-2.527-.553A4.063,4.063,0,0,1-6.349,2.551,4.245,4.245,0,0,1-6.943.318,4.3,4.3,0,0,1-6.365-1.9a4.043,4.043,0,0,1,1.6-1.539A4.8,4.8,0,0,1-2.446-4a4.693,4.693,0,0,1,2.274.544A3.928,3.928,0,0,1,1.392-1.919,4.528,4.528,0,0,1,1.953.365c0,.136-.01.332-.032.584M-4.1-1.855A2.348,2.348,0,0,0-4.923-.362H.015a2.309,2.309,0,0,0-.8-1.485,2.473,2.473,0,0,0-1.662-.569A2.505,2.505,0,0,0-4.1-1.855" transform="translate(431.454 89.989)" fill="#fff"/>
    <path id="Tracé_31" data-name="Tracé 31" d="M1.092,0V1.88a2.612,2.612,0,0,0-.472-.047A2.5,2.5,0,0,0-1.239,2.5a2.628,2.628,0,0,0-.669,1.935v4.09H-3.944V.094H-2V1.327A3.436,3.436,0,0,1,1.092,0" transform="translate(439.308 85.994)" fill="#fff"/>
    <path id="Tracé_32" data-name="Tracé 32" d="M1.092,0V1.88a2.612,2.612,0,0,0-.472-.047A2.5,2.5,0,0,0-1.239,2.5a2.628,2.628,0,0,0-.669,1.935v4.09H-3.944V.094H-2V1.327A3.436,3.436,0,0,1,1.092,0" transform="translate(446.071 85.994)" fill="#fff"/>
    <path id="Tracé_33" data-name="Tracé 33" d="M.081.389A1.092,1.092,0,0,1-.294-.456,1.094,1.094,0,0,1,.081-1.3,1.331,1.331,0,0,1,1.01-1.64a1.374,1.374,0,0,1,.929.323A1.032,1.032,0,0,1,2.314-.5a1.169,1.169,0,0,1-.368.876A1.287,1.287,0,0,1,1.01.729,1.331,1.331,0,0,1,.081.389m-.1,1.729H2.019v8.435H-.017Z" transform="translate(448.906 83.97)" fill="#fff"/>
    <path id="Tracé_34" data-name="Tracé 34" d="M1.385,1.888a2.439,2.439,0,0,1-.872.427,4.073,4.073,0,0,1-1.084.142A3.129,3.129,0,0,1-2.787,1.73,2.743,2.743,0,0,1-3.569-.386V-4.445H-5v-1.58h1.434V-7.952h2.036v1.927H.8v1.58H-1.533V-.433a1.3,1.3,0,0,0,.31.939,1.179,1.179,0,0,0,.9.324A1.829,1.829,0,0,0,.814.483Z" transform="translate(457.445 92.177)" fill="#fff"/>
    <path id="Tracé_35" data-name="Tracé 35" d="M.487,1.552A4.112,4.112,0,0,1-1.167.011a4.245,4.245,0,0,1-.594-2.234A4.207,4.207,0,0,1-1.167-4.45,4.126,4.126,0,0,1,.487-5.982a5.06,5.06,0,0,1,2.379-.553,5.1,5.1,0,0,1,2.4.553A4.114,4.114,0,0,1,6.916-4.45a4.2,4.2,0,0,1,.595,2.227A4.234,4.234,0,0,1,6.916.011,4.1,4.1,0,0,1,5.262,1.552a5.1,5.1,0,0,1-2.4.553A5.06,5.06,0,0,1,.487,1.552M4.725-.312a2.569,2.569,0,0,0,.733-1.911,2.571,2.571,0,0,0-.733-1.912,2.533,2.533,0,0,0-1.859-.726,2.5,2.5,0,0,0-1.849.726A2.586,2.586,0,0,0,.292-2.222,2.583,2.583,0,0,0,1.017-.312,2.5,2.5,0,0,0,2.866.415,2.533,2.533,0,0,0,4.725-.312" transform="translate(461.26 92.529)" fill="#fff"/>
    <path id="Tracé_36" data-name="Tracé 36" d="M.081.389A1.092,1.092,0,0,1-.294-.456,1.094,1.094,0,0,1,.081-1.3,1.331,1.331,0,0,1,1.01-1.64a1.374,1.374,0,0,1,.929.323A1.032,1.032,0,0,1,2.314-.5a1.169,1.169,0,0,1-.368.876A1.287,1.287,0,0,1,1.01.729,1.331,1.331,0,0,1,.081.389m-.1,1.729H2.019v8.435H-.017Z" transform="translate(470.742 83.97)" fill="#fff"/>
    <path id="Tracé_37" data-name="Tracé 37" d="M1.092,0V1.88a2.612,2.612,0,0,0-.472-.047A2.5,2.5,0,0,0-1.239,2.5a2.628,2.628,0,0,0-.669,1.935v4.09H-3.944V.094H-2V1.327A3.436,3.436,0,0,1,1.092,0" transform="translate(479.38 85.994)" fill="#fff"/>
    <path id="Tracé_38" data-name="Tracé 38" d="M1.922.949H-4.907a2.283,2.283,0,0,0,.937,1.476,3.137,3.137,0,0,0,1.882.546A3.224,3.224,0,0,0,.276,2.054L1.367,3.27A3.679,3.679,0,0,1-.115,4.3a5.567,5.567,0,0,1-2.021.348,5.518,5.518,0,0,1-2.527-.553A4.063,4.063,0,0,1-6.349,2.551,4.245,4.245,0,0,1-6.943.318,4.3,4.3,0,0,1-6.365-1.9a4.043,4.043,0,0,1,1.6-1.539A4.8,4.8,0,0,1-2.446-4a4.693,4.693,0,0,1,2.274.544A3.928,3.928,0,0,1,1.392-1.919,4.528,4.528,0,0,1,1.953.365c0,.136-.01.332-.032.584M-4.1-1.855A2.348,2.348,0,0,0-4.923-.362H.015a2.309,2.309,0,0,0-.8-1.485,2.473,2.473,0,0,0-1.662-.569A2.505,2.505,0,0,0-4.1-1.855" transform="translate(488.343 89.989)" fill="#fff"/>
    <path id="Tracé_39" data-name="Tracé 39" d="M.35,1.607A5.309,5.309,0,0,1-1.264.927l.783-1.5A5.091,5.091,0,0,0,.928.035,6.05,6.05,0,0,0,2.55.264q1.825,0,1.826-.932a.627.627,0,0,0-.465-.616,8.307,8.307,0,0,0-1.491-.332A12.512,12.512,0,0,1,.668-1.978,2.71,2.71,0,0,1-.506-2.7,1.968,1.968,0,0,1-1-4.127,2.228,2.228,0,0,1,.032-6.046a4.823,4.823,0,0,1,2.795-.719,8.262,8.262,0,0,1,1.793.2,5.143,5.143,0,0,1,1.467.528L5.3-4.538A4.952,4.952,0,0,0,2.81-5.17a2.822,2.822,0,0,0-1.36.261.774.774,0,0,0-.465.687.689.689,0,0,0,.5.672,8.2,8.2,0,0,0,1.54.371,12.3,12.3,0,0,1,1.711.363,2.694,2.694,0,0,1,1.149.7,1.9,1.9,0,0,1,.481,1.39,2.185,2.185,0,0,1-1.06,1.9,5.115,5.115,0,0,1-2.884.71A8.055,8.055,0,0,1,.35,1.607" transform="translate(492.523 92.759)" fill="#fff"/>
    <path id="Tracé_40" data-name="Tracé 40" d="M6.477,1.622A13.139,13.139,0,0,0,3.235-2.926,14.522,14.522,0,0,0-1.7-5.814,18.435,18.435,0,0,0-7.9-6.829,18.251,18.251,0,0,0-14.08-5.814a14.538,14.538,0,0,0-4.913,2.888,13.106,13.106,0,0,0-3.242,4.548A14.814,14.814,0,0,0-23.4,7.612,14.993,14.993,0,0,0-22.235,13.6a13.6,13.6,0,0,0,3.242,4.644,14.533,14.533,0,0,0,4.913,2.986A17.612,17.612,0,0,0-7.9,22.288a17.789,17.789,0,0,0,6.2-1.053,14.514,14.514,0,0,0,4.933-2.986A13.63,13.63,0,0,0,6.477,13.6c.01-.025-.009-.075-.078-.075H-1.638c-.206,0-.309.174-.382.25A7.874,7.874,0,0,1-4.6,15.556a8.236,8.236,0,0,1-3.3.645,8.246,8.246,0,0,1-3.3-.645,7.653,7.653,0,0,1-2.556-1.777,8.123,8.123,0,0,1-1.671-2.711,9.619,9.619,0,0,1-.6-3.455,9.471,9.471,0,0,1,.585-3.356,7.546,7.546,0,0,1,1.67-2.674A8,8,0,0,1-11.2-.174,8.246,8.246,0,0,1-7.9-.817a8.38,8.38,0,0,1,3.322.643A7.73,7.73,0,0,1-2,1.582a8.238,8.238,0,0,1,1.887,3.3l-.006.009H-7.633V2.394A.216.216,0,0,0-8,2.247l-5.143,4.985a.2.2,0,0,0,0,.3L-8,12.511a.216.216,0,0,0,.368-.148V9.773H7.091a.443.443,0,0,0,.447-.384,15.793,15.793,0,0,0,.107-1.777A14.836,14.836,0,0,0,6.477,1.622" transform="translate(345.433 55.131)" fill="#fff"/>
    <path id="Tracé_41" data-name="Tracé 41" d="M0,1.049V-3.679a.75.75,0,0,1,.762-.739H6.926V1.049Z" transform="translate(469.994 53.465)" fill="#fff"/>
    <path id="Tracé_42" data-name="Tracé 42" d="M3.771,1.513A6.206,6.206,0,0,0,1.455-.224,6.724,6.724,0,0,0-1.3-.868,8.458,8.458,0,0,0-2.692-.75,3.65,3.65,0,0,0-3.961-.3a3.111,3.111,0,0,0-.947.858A2.246,2.246,0,0,0-5.29,1.9a2.116,2.116,0,0,0,.3,1.171,2.664,2.664,0,0,0,.885.819,8.054,8.054,0,0,0,1.39.645q.8.291,1.812.6Q.549,5.61,2.12,6.177a11.405,11.405,0,0,1,2.859,1.5A7.994,7.994,0,0,1,7.114,10a6.532,6.532,0,0,1,.845,3.454,8.78,8.78,0,0,1-.906,4.118,8.285,8.285,0,0,1-2.436,2.87,10.585,10.585,0,0,1-3.5,1.677,15.141,15.141,0,0,1-4.066.547,17.276,17.276,0,0,1-5.92-1.035,12.6,12.6,0,0,1-4.752-2.946l4.509-4.45a8.3,8.3,0,0,0,2.759,2.089,7.68,7.68,0,0,0,3.4.839,6.982,6.982,0,0,0,1.489-.157A3.734,3.734,0,0,0-.2,16.5a2.585,2.585,0,0,0,.866-.936,2.884,2.884,0,0,0,.323-1.406,2.179,2.179,0,0,0-.4-1.327,3.919,3.919,0,0,0-1.148-1,9.46,9.46,0,0,0-1.851-.819q-1.109-.369-2.518-.8A24.766,24.766,0,0,1-7.606,9.2,9.018,9.018,0,0,1-9.941,7.7a6.967,6.967,0,0,1-1.651-2.225,7.332,7.332,0,0,1-.624-3.18,7.636,7.636,0,0,1,.967-3.941A8.243,8.243,0,0,1-8.713-4.342,11.106,11.106,0,0,1-5.17-5.883a16.615,16.615,0,0,1,3.987-.488,15.247,15.247,0,0,1,4.933.859,12.814,12.814,0,0,1,4.41,2.537Z" transform="translate(491.889 54.715)" fill="#fff"/>
    <path id="Tracé_43" data-name="Tracé 43" d="M4.975.3C4.988.285,5,.274,5.016.263V-1.254H-17.978v5.7h8.055v21.2a.75.75,0,0,0,.761.739h6.125V4.443H1.756A15.191,15.191,0,0,1,4.975.3" transform="translate(319.978 50.301)" fill="#fff"/>
    <path id="Tracé_44" data-name="Tracé 44" d="M8.278,0H1.594L-8.83,24.085l-5.214-8.277A8.6,8.6,0,0,0-9.7,13.075,7.194,7.194,0,0,0-8.123,8.352,7.852,7.852,0,0,0-9.05,4.371a7.359,7.359,0,0,0-2.477-2.576A10.617,10.617,0,0,0-15.031.41,19.424,19.424,0,0,0-19.037,0H-29.91V4.968a16,16,0,0,1,.977,1.881A16.994,16.994,0,0,1-27.586,13.7a17.175,17.175,0,0,1-1.342,6.836,16.3,16.3,0,0,1-.982,1.921v5.18h5.964a.75.75,0,0,0,.761-.738V16.666h2.347l6.191,10.966H-3.4a.761.761,0,0,0,.714-.479l1.909-4.946H10.252l2.215,5.425h7.652ZM-15.395,10.187a3.047,3.047,0,0,1-1.2,1.015,5.666,5.666,0,0,1-1.618.488,11.4,11.4,0,0,1-1.74.136h-3.277V5.385h3.682a11.663,11.663,0,0,1,1.6.116,4.984,4.984,0,0,1,1.5.449,2.891,2.891,0,0,1,1.092.938,2.693,2.693,0,0,1,.425,1.58,2.934,2.934,0,0,1-.465,1.718M1.19,16.861,4.815,7.377l3.543,9.484Z" transform="translate(382.987 49.047)" fill="#fff"/>
    <path id="Tracé_45" data-name="Tracé 45" d="M4.485.842A7.066,7.066,0,0,0,2.178-1.653,10.465,10.465,0,0,0-1.365-3.1a20.242,20.242,0,0,0-4.37-.449h-9.708a.75.75,0,0,0-.761.739V12.526l4.953,11.562h1.934V13.666H-5.9A19.1,19.1,0,0,0-1.627,13.2a11.26,11.26,0,0,0,3.491-1.4c-.045-.538-.071-1.085-.071-1.641A16.986,16.986,0,0,1,3.139,3.3,15.866,15.866,0,0,1,4.485.842M-1.868,6.621A2.987,2.987,0,0,1-2.977,7.656,5.059,5.059,0,0,1-4.567,8.2a10.662,10.662,0,0,1-1.851.156h-2.9V1.839H-6.3a13.394,13.394,0,0,1,1.793.118,4.79,4.79,0,0,1,1.55.469A2.776,2.776,0,0,1-1.868,3.4a2.92,2.92,0,0,1,.4,1.6,3.018,3.018,0,0,1-.4,1.62" transform="translate(417.595 52.591)" fill="#fff"/>
    <path id="Tracé_46" data-name="Tracé 46" d="M3.893,1.77V14.364H-7.142V-7.454h-6.926v4.032A15.9,15.9,0,0,1-12.481-.6a17.016,17.016,0,0,1,1.346,6.847,17.153,17.153,0,0,1-1.342,6.836,16.264,16.264,0,0,1-1.591,2.875v4.226H10.058a.75.75,0,0,0,.762-.738V1.031H4.656a.751.751,0,0,0-.762.739" transform="translate(466.1 56.501)" fill="#fff"/>
    <path id="Tracé_47" data-name="Tracé 47" d="M0,2.811C0-5.241,6.554-11.836,15.571-11.836S31.058-5.322,31.058,2.811c0,8.051-6.555,14.647-15.571,14.647S0,10.943,0,2.811m24.337,0a8.733,8.733,0,0,0-8.85-8.9,8.615,8.615,0,0,0-8.766,8.9,8.732,8.732,0,0,0,8.85,8.9,8.615,8.615,0,0,0,8.766-8.9" transform="translate(421.621 59.836)" fill="#fff"/>
    <path id="Tracé_48" data-name="Tracé 48" d="M0,9.537H198.049v-49.7H0Z" transform="translate(302 88.161)" fill="none"/>
  </g>
</svg>
