<svg id="Groupe_1254" data-name="Groupe 1254" xmlns="http://www.w3.org/2000/svg" xmlns:xlink="http://www.w3.org/1999/xlink" width="200" height="50.188" viewBox="0 0 200 50.188">
  <defs>
    <clipPath id="clip-path">
      <path id="Tracé_48" data-name="Tracé 48" d="M0,10.027H200V-40.161H0Z" transform="translate(0 40.161)" fill="#063431"/>
    </clipPath>
  </defs>
  <g id="Groupe_7" data-name="Groupe 7" transform="translate(1.517 31.169)">
    <path id="Tracé_17" data-name="Tracé 17" d="M0,0V14.775H10.47V12.453H2.745V0Z" fill="#063431"/>
  </g>
  <g id="Groupe_38" data-name="Groupe 38" clip-path="url(#clip-path)">
    <g id="Groupe_8" data-name="Groupe 8" transform="translate(9.411 35.034)">
      <path id="Tracé_18" data-name="Tracé 18" d="M.513.073a1.253,1.253,0,0,1,.379.941,2.132,2.132,0,0,1-.075.559c-.049.181-.146.452-.288.814L-.326,4.651H-1.659L-1,2.2a1.1,1.1,0,0,1-.569-.439,1.319,1.319,0,0,1-.205-.742A1.257,1.257,0,0,1-1.4.073,1.317,1.317,0,0,1-.441-.294,1.314,1.314,0,0,1,.513.073" transform="translate(1.774 0.294)" fill="#063431"/>
    </g>
    <g id="Groupe_9" data-name="Groupe 9" transform="translate(12.95 35.114)">
      <path id="Tracé_19" data-name="Tracé 19" d="M2.009,1.648h-6.9A2.305,2.305,0,0,0-3.94,3.138a3.168,3.168,0,0,0,1.9.551A3.255,3.255,0,0,0,.347,2.763l1.1,1.228a3.715,3.715,0,0,1-1.5,1.037,5.622,5.622,0,0,1-2.041.351A5.573,5.573,0,0,1-4.64,4.822a4.1,4.1,0,0,1-1.7-1.556,4.287,4.287,0,0,1-.6-2.256,4.34,4.34,0,0,1,.584-2.242A4.082,4.082,0,0,1-4.738-2.786,4.845,4.845,0,0,1-2.4-3.345a4.739,4.739,0,0,1,2.3.55A3.966,3.966,0,0,1,1.474-1.248a4.573,4.573,0,0,1,.567,2.306c0,.137-.01.335-.032.59m-6.08-2.832A2.371,2.371,0,0,0-4.9.324H.084a2.332,2.332,0,0,0-.807-1.5A2.5,2.5,0,0,0-2.4-1.75a2.53,2.53,0,0,0-1.67.566M-1.612-6.6H.807L-2.056-4.413H-3.833Z" transform="translate(6.943 6.599)" fill="#063431"/>
    </g>
    <g id="Groupe_10" data-name="Groupe 10" transform="translate(23.909 38.369)">
      <path id="Tracé_20" data-name="Tracé 20" d="M1.717.188a3.647,3.647,0,0,1,1,2.792V7.86H.664V3.235A2.343,2.343,0,0,0,.121,1.551,2.044,2.044,0,0,0-1.426.985a2.416,2.416,0,0,0-1.793.662,2.584,2.584,0,0,0-.659,1.906V7.86H-5.935V-.658h1.958v1.1A3.2,3.2,0,0,1-2.694-.449a4.742,4.742,0,0,1,1.744-.3A3.74,3.74,0,0,1,1.717.188" transform="translate(5.935 0.753)" fill="#063431"/>
    </g>
    <g id="Groupe_11" data-name="Groupe 11" transform="translate(34.541 38.369)">
      <path id="Tracé_21" data-name="Tracé 21" d="M2.009,1h-6.9A2.305,2.305,0,0,0-3.94,2.488a3.168,3.168,0,0,0,1.9.551A3.255,3.255,0,0,0,.347,2.113l1.1,1.228a3.715,3.715,0,0,1-1.5,1.037,5.622,5.622,0,0,1-2.041.351A5.573,5.573,0,0,1-4.64,4.172a4.1,4.1,0,0,1-1.7-1.556A4.287,4.287,0,0,1-6.943.36a4.34,4.34,0,0,1,.584-2.242A4.082,4.082,0,0,1-4.738-3.436,4.845,4.845,0,0,1-2.4-4a4.739,4.739,0,0,1,2.3.55A3.966,3.966,0,0,1,1.474-1.9,4.573,4.573,0,0,1,2.041.408c0,.137-.01.335-.032.59m-6.08-2.832A2.371,2.371,0,0,0-4.9-.326H.084a2.332,2.332,0,0,0-.807-1.5A2.5,2.5,0,0,0-2.4-2.4a2.53,2.53,0,0,0-1.67.566" transform="translate(6.943 3.995)" fill="#063431"/>
    </g>
    <g id="Groupe_12" data-name="Groupe 12" transform="translate(45.5 38.369)">
      <path id="Tracé_22" data-name="Tracé 22" d="M1.141,0V1.9a2.638,2.638,0,0,0-.477-.047,2.527,2.527,0,0,0-1.876.677,2.654,2.654,0,0,0-.676,1.954v4.13H-3.944V.095h1.958V1.34A3.469,3.469,0,0,1,1.141,0" transform="translate(3.944 0)" fill="#063431"/>
    </g>
    <g id="Groupe_13" data-name="Groupe 13" transform="translate(51.524 38.369)">
      <path id="Tracé_23" data-name="Tracé 23" d="M2.12.019V7.245q0,4.5-4.74,4.5a9.05,9.05,0,0,1-2.4-.31,5.159,5.159,0,0,1-1.877-.9l.922-1.5a4.457,4.457,0,0,0,1.457.742,5.871,5.871,0,0,0,1.786.279A3.01,3.01,0,0,0-.612,9.414,2.559,2.559,0,0,0,.063,7.468V7.021a3.4,3.4,0,0,1-1.284.846,4.658,4.658,0,0,1-1.662.287,4.9,4.9,0,0,1-2.263-.519,3.967,3.967,0,0,1-1.6-1.46,4,4,0,0,1-.584-2.153,3.959,3.959,0,0,1,.584-2.146A3.92,3.92,0,0,1-5.146.434a4.956,4.956,0,0,1,2.263-.51,4.756,4.756,0,0,1,1.735.3,3.2,3.2,0,0,1,1.309.925V.019ZM-.654,5.785A2.265,2.265,0,0,0,.1,4.023,2.224,2.224,0,0,0-.654,2.285a2.763,2.763,0,0,0-1.917-.67,2.786,2.786,0,0,0-1.933.67,2.22,2.22,0,0,0-.749,1.738A2.261,2.261,0,0,0-4.5,5.785a2.767,2.767,0,0,0,1.933.679A2.746,2.746,0,0,0-.654,5.785" transform="translate(7.326 0.076)" fill="#063431"/>
    </g>
    <g id="Groupe_14" data-name="Groupe 14" transform="translate(63.388 34.668)">
      <path id="Tracé_24" data-name="Tracé 24" d="M.085.409A1.1,1.1,0,0,1-.294-.444,1.1,1.1,0,0,1,.085-1.3a1.345,1.345,0,0,1,.939-.342,1.386,1.386,0,0,1,.937.326,1.042,1.042,0,0,1,.379.822,1.18,1.18,0,0,1-.371.885,1.3,1.3,0,0,1-.945.359A1.345,1.345,0,0,1,.085.409m-.1,1.746H2.042v8.518H-.014Z" transform="translate(0.294 1.64)" fill="#063431"/>
    </g>
    <g id="Groupe_15" data-name="Groupe 15" transform="translate(67.7 38.369)">
      <path id="Tracé_25" data-name="Tracé 25" d="M2.009,1h-6.9A2.305,2.305,0,0,0-3.94,2.488a3.168,3.168,0,0,0,1.9.551A3.255,3.255,0,0,0,.347,2.113l1.1,1.228a3.715,3.715,0,0,1-1.5,1.037,5.622,5.622,0,0,1-2.041.351A5.573,5.573,0,0,1-4.64,4.172a4.1,4.1,0,0,1-1.7-1.556A4.287,4.287,0,0,1-6.943.36a4.34,4.34,0,0,1,.584-2.242A4.082,4.082,0,0,1-4.738-3.436,4.845,4.845,0,0,1-2.4-4a4.739,4.739,0,0,1,2.3.55A3.966,3.966,0,0,1,1.474-1.9,4.573,4.573,0,0,1,2.041.408c0,.137-.01.335-.032.59m-6.08-2.832A2.371,2.371,0,0,0-4.9-.326H.084a2.332,2.332,0,0,0-.807-1.5A2.5,2.5,0,0,0-2.4-2.4a2.53,2.53,0,0,0-1.67.566" transform="translate(6.943 3.995)" fill="#063431"/>
    </g>
    <g id="Groupe_16" data-name="Groupe 16" transform="translate(82.477 35.147)">
      <path id="Tracé_26" data-name="Tracé 26" d="M2.094,0V11.836H.119v-1.1a3.164,3.164,0,0,1-1.258.909,4.363,4.363,0,0,1-1.654.3,4.758,4.758,0,0,1-2.28-.542,3.952,3.952,0,0,1-1.587-1.54,4.485,4.485,0,0,1-.576-2.288,4.449,4.449,0,0,1,.576-2.282A3.979,3.979,0,0,1-5.073,3.764a4.758,4.758,0,0,1,2.28-.542,4.3,4.3,0,0,1,1.6.287A3.211,3.211,0,0,1,.037,4.37V0ZM-1.215,9.912A2.4,2.4,0,0,0-.276,8.98a2.78,2.78,0,0,0,.346-1.4,2.776,2.776,0,0,0-.346-1.4,2.39,2.39,0,0,0-.939-.934,2.712,2.712,0,0,0-1.332-.327A2.717,2.717,0,0,0-3.88,5.24a2.39,2.39,0,0,0-.939.934,2.789,2.789,0,0,0-.346,1.4,2.793,2.793,0,0,0,.346,1.4,2.4,2.4,0,0,0,.939.932,2.7,2.7,0,0,0,1.333.327,2.7,2.7,0,0,0,1.332-.327" transform="translate(7.237)" fill="#063431"/>
    </g>
    <g id="Groupe_17" data-name="Groupe 17" transform="translate(93.783 38.369)">
      <path id="Tracé_27" data-name="Tracé 27" d="M2.009,1h-6.9A2.305,2.305,0,0,0-3.94,2.488a3.168,3.168,0,0,0,1.9.551A3.255,3.255,0,0,0,.347,2.113l1.1,1.228a3.715,3.715,0,0,1-1.5,1.037,5.622,5.622,0,0,1-2.041.351A5.573,5.573,0,0,1-4.64,4.172a4.1,4.1,0,0,1-1.7-1.556A4.287,4.287,0,0,1-6.943.36a4.34,4.34,0,0,1,.584-2.242A4.082,4.082,0,0,1-4.738-3.436,4.845,4.845,0,0,1-2.4-4a4.739,4.739,0,0,1,2.3.55A3.966,3.966,0,0,1,1.474-1.9,4.573,4.573,0,0,1,2.041.408c0,.137-.01.335-.032.59m-6.08-2.832A2.371,2.371,0,0,0-4.9-.326H.084a2.332,2.332,0,0,0-.807-1.5A2.5,2.5,0,0,0-2.4-2.4a2.53,2.53,0,0,0-1.67.566" transform="translate(6.943 3.995)" fill="#063431"/>
    </g>
    <g id="Groupe_18" data-name="Groupe 18" transform="translate(103.739 38.368)">
      <path id="Tracé_28" data-name="Tracé 28" d="M.366,1.689A5.362,5.362,0,0,1-1.264,1l.79-1.515A5.142,5.142,0,0,0,.95.1,6.109,6.109,0,0,0,2.587.333q1.843,0,1.844-.941a.633.633,0,0,0-.469-.622,8.389,8.389,0,0,0-1.506-.335A12.636,12.636,0,0,1,.687-1.931,2.737,2.737,0,0,1-.5-2.657,1.987,1.987,0,0,1-1-4.1,2.25,2.25,0,0,1,.045-6.039a4.87,4.87,0,0,1,2.822-.726,8.344,8.344,0,0,1,1.81.2,5.194,5.194,0,0,1,1.481.534l-.79,1.516A5,5,0,0,0,2.85-5.154a2.85,2.85,0,0,0-1.373.264.782.782,0,0,0-.469.694.7.7,0,0,0,.5.679,8.282,8.282,0,0,0,1.555.375,12.418,12.418,0,0,1,1.728.366,2.721,2.721,0,0,1,1.16.7,1.92,1.92,0,0,1,.486,1.4,2.206,2.206,0,0,1-1.07,1.914,5.165,5.165,0,0,1-2.913.717,8.135,8.135,0,0,1-2.09-.271" transform="translate(1.264 6.765)" fill="#063431"/>
    </g>
    <g id="Groupe_19" data-name="Groupe 19" transform="translate(116.592 36.582)">
      <path id="Tracé_29" data-name="Tracé 29" d="M1.448,1.985a2.463,2.463,0,0,1-.881.431A4.113,4.113,0,0,1-.528,2.56a3.159,3.159,0,0,1-2.237-.735,2.77,2.77,0,0,1-.79-2.137v-4.1H-5v-1.6h1.448V-7.952H-1.5v1.946H.856v1.6H-1.5V-.359a1.317,1.317,0,0,0,.313.948A1.191,1.191,0,0,0-.28.917,1.847,1.847,0,0,0,.871.566Z" transform="translate(5.003 7.952)" fill="#063431"/>
    </g>
    <g id="Groupe_20" data-name="Groupe 20" transform="translate(123.718 38.369)">
      <path id="Tracé_30" data-name="Tracé 30" d="M2.009,1h-6.9A2.305,2.305,0,0,0-3.94,2.488a3.168,3.168,0,0,0,1.9.551A3.255,3.255,0,0,0,.347,2.113l1.1,1.228a3.715,3.715,0,0,1-1.5,1.037,5.622,5.622,0,0,1-2.041.351A5.573,5.573,0,0,1-4.64,4.172a4.1,4.1,0,0,1-1.7-1.556A4.287,4.287,0,0,1-6.943.36a4.34,4.34,0,0,1,.584-2.242A4.082,4.082,0,0,1-4.738-3.436,4.845,4.845,0,0,1-2.4-4a4.739,4.739,0,0,1,2.3.55A3.966,3.966,0,0,1,1.474-1.9,4.573,4.573,0,0,1,2.041.408c0,.137-.01.335-.032.59m-6.08-2.832A2.371,2.371,0,0,0-4.9-.326H.084a2.332,2.332,0,0,0-.807-1.5A2.5,2.5,0,0,0-2.4-2.4a2.53,2.53,0,0,0-1.67.566" transform="translate(6.943 3.995)" fill="#063431"/>
    </g>
    <g id="Groupe_21" data-name="Groupe 21" transform="translate(134.677 38.369)">
      <path id="Tracé_31" data-name="Tracé 31" d="M1.141,0V1.9a2.638,2.638,0,0,0-.477-.047,2.527,2.527,0,0,0-1.876.677,2.654,2.654,0,0,0-.676,1.954v4.13H-3.944V.095h1.958V1.34A3.469,3.469,0,0,1,1.141,0" transform="translate(3.944 0)" fill="#063431"/>
    </g>
    <g id="Groupe_22" data-name="Groupe 22" transform="translate(141.507 38.369)">
      <path id="Tracé_32" data-name="Tracé 32" d="M1.141,0V1.9a2.638,2.638,0,0,0-.477-.047,2.527,2.527,0,0,0-1.876.677,2.654,2.654,0,0,0-.676,1.954v4.13H-3.944V.095h1.958V1.34A3.469,3.469,0,0,1,1.141,0" transform="translate(3.944 0)" fill="#063431"/>
    </g>
    <g id="Groupe_23" data-name="Groupe 23" transform="translate(148.056 34.668)">
      <path id="Tracé_33" data-name="Tracé 33" d="M.085.409A1.1,1.1,0,0,1-.294-.444,1.1,1.1,0,0,1,.085-1.3a1.344,1.344,0,0,1,.937-.342,1.387,1.387,0,0,1,.939.326,1.042,1.042,0,0,1,.379.822,1.18,1.18,0,0,1-.371.885,1.3,1.3,0,0,1-.946.359A1.344,1.344,0,0,1,.085.409m-.1,1.746H2.042v8.518H-.014Z" transform="translate(0.294 1.64)" fill="#063431"/>
    </g>
    <g id="Groupe_24" data-name="Groupe 24" transform="translate(151.924 36.582)">
      <path id="Tracé_34" data-name="Tracé 34" d="M1.448,1.985a2.463,2.463,0,0,1-.881.431A4.113,4.113,0,0,1-.528,2.56a3.159,3.159,0,0,1-2.237-.735,2.77,2.77,0,0,1-.79-2.137v-4.1H-5v-1.6h1.448V-7.952H-1.5v1.946H.856v1.6H-1.5V-.359a1.317,1.317,0,0,0,.313.948A1.191,1.191,0,0,0-.28.917,1.847,1.847,0,0,0,.871.566Z" transform="translate(5.003 7.952)" fill="#063431"/>
    </g>
    <g id="Groupe_25" data-name="Groupe 25" transform="translate(159.05 38.369)">
      <path id="Tracé_35" data-name="Tracé 35" d="M.51,1.632A4.152,4.152,0,0,1-1.161.076a4.287,4.287,0,0,1-.6-2.256,4.249,4.249,0,0,1,.6-2.249A4.166,4.166,0,0,1,.51-5.976a5.109,5.109,0,0,1,2.4-.559,5.15,5.15,0,0,1,2.42.559A4.154,4.154,0,0,1,7-4.429,4.238,4.238,0,0,1,7.6-2.18,4.276,4.276,0,0,1,7,.076a4.141,4.141,0,0,1-1.67,1.556,5.15,5.15,0,0,1-2.42.559,5.109,5.109,0,0,1-2.4-.559M4.789-.25a2.594,2.594,0,0,0,.74-1.929,2.6,2.6,0,0,0-.74-1.931,2.558,2.558,0,0,0-1.877-.734,2.526,2.526,0,0,0-1.867.734A2.612,2.612,0,0,0,.312-2.18,2.609,2.609,0,0,0,1.045-.25,2.526,2.526,0,0,0,2.912.483,2.558,2.558,0,0,0,4.789-.25" transform="translate(1.761 6.535)" fill="#063431"/>
    </g>
    <g id="Groupe_26" data-name="Groupe 26" transform="translate(170.108 34.668)">
      <path id="Tracé_36" data-name="Tracé 36" d="M.085.409A1.1,1.1,0,0,1-.294-.444,1.1,1.1,0,0,1,.085-1.3a1.344,1.344,0,0,1,.937-.342,1.387,1.387,0,0,1,.939.326,1.042,1.042,0,0,1,.379.822,1.18,1.18,0,0,1-.371.885,1.3,1.3,0,0,1-.946.359A1.344,1.344,0,0,1,.085.409m-.1,1.746H2.042v8.518H-.014Z" transform="translate(0.294 1.64)" fill="#063431"/>
    </g>
    <g id="Groupe_27" data-name="Groupe 27" transform="translate(175.144 38.369)">
      <path id="Tracé_37" data-name="Tracé 37" d="M1.141,0V1.9a2.638,2.638,0,0,0-.477-.047,2.527,2.527,0,0,0-1.876.677,2.654,2.654,0,0,0-.676,1.954v4.13H-3.944V.095h1.958V1.34A3.469,3.469,0,0,1,1.141,0" transform="translate(3.944 0)" fill="#063431"/>
    </g>
    <g id="Groupe_28" data-name="Groupe 28" transform="translate(181.168 38.369)">
      <path id="Tracé_38" data-name="Tracé 38" d="M2.009,1h-6.9A2.305,2.305,0,0,0-3.94,2.488a3.168,3.168,0,0,0,1.9.551A3.255,3.255,0,0,0,.347,2.113l1.1,1.228a3.715,3.715,0,0,1-1.5,1.037,5.622,5.622,0,0,1-2.041.351A5.573,5.573,0,0,1-4.64,4.172a4.1,4.1,0,0,1-1.7-1.556A4.287,4.287,0,0,1-6.943.36a4.34,4.34,0,0,1,.584-2.242A4.082,4.082,0,0,1-4.738-3.436,4.845,4.845,0,0,1-2.4-4a4.739,4.739,0,0,1,2.3.55A3.966,3.966,0,0,1,1.474-1.9,4.573,4.573,0,0,1,2.041.408c0,.137-.01.335-.032.59m-6.08-2.832A2.371,2.371,0,0,0-4.9-.326H.084a2.332,2.332,0,0,0-.807-1.5A2.5,2.5,0,0,0-2.4-2.4a2.53,2.53,0,0,0-1.67.566" transform="translate(6.943 3.995)" fill="#063431"/>
    </g>
    <g id="Groupe_29" data-name="Groupe 29" transform="translate(191.123 38.368)">
      <path id="Tracé_39" data-name="Tracé 39" d="M.366,1.689A5.362,5.362,0,0,1-1.264,1l.79-1.515A5.142,5.142,0,0,0,.95.1,6.109,6.109,0,0,0,2.587.333q1.843,0,1.844-.941a.633.633,0,0,0-.469-.622,8.389,8.389,0,0,0-1.506-.335A12.636,12.636,0,0,1,.687-1.931,2.737,2.737,0,0,1-.5-2.657,1.987,1.987,0,0,1-1-4.1,2.25,2.25,0,0,1,.045-6.039a4.87,4.87,0,0,1,2.822-.726,8.344,8.344,0,0,1,1.81.2,5.194,5.194,0,0,1,1.481.534l-.79,1.516A5,5,0,0,0,2.85-5.154a2.85,2.85,0,0,0-1.373.264.782.782,0,0,0-.469.694.7.7,0,0,0,.5.679,8.282,8.282,0,0,0,1.555.375,12.418,12.418,0,0,1,1.728.366,2.721,2.721,0,0,1,1.16.7,1.92,1.92,0,0,1,.486,1.4,2.206,2.206,0,0,1-1.07,1.914,5.165,5.165,0,0,1-2.913.717,8.135,8.135,0,0,1-2.09-.271" transform="translate(1.264 6.765)" fill="#063431"/>
    </g>
    <g id="Groupe_30" data-name="Groupe 30" transform="translate(20.228 0.304)">
      <path id="Tracé_40" data-name="Tracé 40" d="M6.771,1.7A13.269,13.269,0,0,0,3.5-2.888,14.665,14.665,0,0,0-1.485-5.8,18.617,18.617,0,0,0-7.747-6.829,18.431,18.431,0,0,0-13.989-5.8,14.682,14.682,0,0,0-18.95-2.888,13.235,13.235,0,0,0-22.224,1.7,14.96,14.96,0,0,0-23.4,7.755a15.141,15.141,0,0,0,1.178,6.051A13.729,13.729,0,0,0-18.95,18.5a14.677,14.677,0,0,0,4.961,3.015,17.786,17.786,0,0,0,6.242,1.063,17.964,17.964,0,0,0,6.262-1.063A14.657,14.657,0,0,0,3.5,18.5a13.764,13.764,0,0,0,3.274-4.69c.01-.025-.009-.076-.079-.076H-1.424c-.208,0-.312.176-.386.252a7.952,7.952,0,0,1-2.6,1.795,8.317,8.317,0,0,1-3.334.651,8.327,8.327,0,0,1-3.336-.651,7.728,7.728,0,0,1-2.581-1.795,8.2,8.2,0,0,1-1.688-2.738,9.714,9.714,0,0,1-.61-3.489,9.564,9.564,0,0,1,.591-3.389,7.62,7.62,0,0,1,1.686-2.7,8.084,8.084,0,0,1,2.6-1.773,8.327,8.327,0,0,1,3.336-.65,8.462,8.462,0,0,1,3.355.65,7.806,7.806,0,0,1,2.6,1.773A8.319,8.319,0,0,1,.117,4.993L.11,5H-7.477V2.485a.218.218,0,0,0-.371-.149L-13.042,7.37a.207.207,0,0,0,0,.3L-7.849,12.7a.219.219,0,0,0,.371-.15V9.937H7.391a.448.448,0,0,0,.451-.387,15.948,15.948,0,0,0,.108-1.795A14.982,14.982,0,0,0,6.771,1.7" transform="translate(23.402 6.829)" fill="#063431"/>
    </g>
    <g id="Groupe_31" data-name="Groupe 31" transform="translate(169.649 1.056)">
      <path id="Tracé_41" data-name="Tracé 41" d="M0,1.1V-3.672a.758.758,0,0,1,.77-.746H6.995V1.1Z" transform="translate(0 4.418)" fill="#063431"/>
    </g>
    <g id="Groupe_32" data-name="Groupe 32" transform="translate(178 0.347)">
      <path id="Tracé_42" data-name="Tracé 42" d="M3.942,1.591A6.267,6.267,0,0,0,1.6-.164a6.79,6.79,0,0,0-2.785-.65,8.541,8.541,0,0,0-1.4.119,3.686,3.686,0,0,0-1.282.454,3.141,3.141,0,0,0-.957.866,2.268,2.268,0,0,0-.386,1.361A2.137,2.137,0,0,0-4.9,3.168a2.69,2.69,0,0,0,.894.827,8.133,8.133,0,0,0,1.4.651q.812.294,1.83.61Q.689,5.728,2.275,6.3A11.517,11.517,0,0,1,5.162,7.819a8.073,8.073,0,0,1,2.156,2.344,6.6,6.6,0,0,1,.854,3.488,8.866,8.866,0,0,1-.915,4.159,8.367,8.367,0,0,1-2.46,2.9A10.69,10.69,0,0,1,1.258,22.4a15.29,15.29,0,0,1-4.107.552,17.446,17.446,0,0,1-5.979-1.045,12.726,12.726,0,0,1-4.8-2.975l4.554-4.494a8.382,8.382,0,0,0,2.786,2.109,7.756,7.756,0,0,0,3.437.847,7.051,7.051,0,0,0,1.5-.159,3.771,3.771,0,0,0,1.282-.512,2.611,2.611,0,0,0,.874-.945,2.912,2.912,0,0,0,.326-1.42,2.2,2.2,0,0,0-.407-1.34A3.957,3.957,0,0,0-.43,12.015a9.553,9.553,0,0,0-1.87-.827q-1.12-.373-2.543-.807A25.01,25.01,0,0,1-7.547,9.356,9.107,9.107,0,0,1-9.9,7.838a7.035,7.035,0,0,1-1.667-2.247,7.4,7.4,0,0,1-.63-3.212,7.711,7.711,0,0,1,.976-3.98A8.325,8.325,0,0,1-8.665-4.322,11.215,11.215,0,0,1-5.087-5.879,16.779,16.779,0,0,1-1.06-6.371,15.4,15.4,0,0,1,3.922-5.5,12.94,12.94,0,0,1,8.375-2.942Z" transform="translate(13.626 6.371)" fill="#063431"/>
    </g>
    <g id="Groupe_33" data-name="Groupe 33" transform="translate(-0.001 1.057)">
      <path id="Tracé_43" data-name="Tracé 43" d="M5.2.313C5.215.3,5.23.289,5.243.278V-1.254H-17.978V4.5h8.134V25.9a.757.757,0,0,0,.768.746H-2.89V4.5H1.95A15.34,15.34,0,0,1,5.2.313" transform="translate(17.978 1.254)" fill="#063431"/>
    </g>
    <g id="Groupe_34" data-name="Groupe 34" transform="translate(51.58 1.056)">
      <path id="Tracé_44" data-name="Tracé 44" d="M8.654,0H1.9L-8.622,24.322l-5.266-8.359A8.681,8.681,0,0,0-9.5,13.2a7.265,7.265,0,0,0,1.587-4.77,7.93,7.93,0,0,0-.936-4.02,7.431,7.431,0,0,0-2.5-2.6,10.722,10.722,0,0,0-3.538-1.4A19.615,19.615,0,0,0-18.93,0H-29.91V5.017a16.162,16.162,0,0,1,.986,1.9,17.162,17.162,0,0,1,1.36,6.914,17.344,17.344,0,0,1-1.355,6.9,16.459,16.459,0,0,1-.991,1.939v5.231h6.022a.757.757,0,0,0,.768-.745V16.83h2.37L-14.5,27.905H-3.143a.768.768,0,0,0,.721-.484L-.5,22.426H10.647l2.237,5.479h7.727ZM-15.252,10.287a3.077,3.077,0,0,1-1.207,1.025,5.721,5.721,0,0,1-1.634.492,11.512,11.512,0,0,1-1.757.137h-3.31v-6.5h3.718a11.778,11.778,0,0,1,1.614.117,5.033,5.033,0,0,1,1.512.454,2.919,2.919,0,0,1,1.1.947,2.719,2.719,0,0,1,.429,1.6,2.963,2.963,0,0,1-.469,1.735M1.5,17.027l3.66-9.577,3.578,9.577Z" transform="translate(29.91)" fill="#063431"/>
    </g>
    <g id="Groupe_35" data-name="Groupe 35" transform="translate(100.369 1.056)">
      <path id="Tracé_45" data-name="Tracé 45" d="M4.689.885a7.135,7.135,0,0,0-2.33-2.519A10.568,10.568,0,0,0-1.219-3.092a20.441,20.441,0,0,0-4.413-.454h-9.8A.757.757,0,0,0-16.2-2.8V12.685l5,11.676H-9.25V13.836h3.455a19.289,19.289,0,0,0,4.312-.474,11.371,11.371,0,0,0,3.525-1.418c-.045-.544-.072-1.1-.072-1.657A17.153,17.153,0,0,1,3.33,3.372,16.022,16.022,0,0,1,4.689.885M-1.727,6.721A3.016,3.016,0,0,1-2.846,7.766a5.108,5.108,0,0,1-1.607.552,10.767,10.767,0,0,1-1.87.157H-9.25V1.893H-6.2a13.526,13.526,0,0,1,1.81.119,4.837,4.837,0,0,1,1.565.474,2.8,2.8,0,0,1,1.1.985,2.949,2.949,0,0,1,.406,1.616,3.048,3.048,0,0,1-.406,1.636" transform="translate(16.205 3.546)" fill="#063431"/>
    </g>
    <g id="Groupe_36" data-name="Groupe 36" transform="translate(151.51 1.056)">
      <path id="Tracé_46" data-name="Tracé 46" d="M4.07,1.861V14.579H-7.073V-7.454h-6.995v4.071a16.056,16.056,0,0,1,1.6,2.845,17.183,17.183,0,0,1,1.359,6.914,17.322,17.322,0,0,1-1.355,6.9,16.424,16.424,0,0,1-1.607,2.9v4.268H10.3a.757.757,0,0,0,.77-.745V1.115H4.84a.759.759,0,0,0-.77.746" transform="translate(14.068 7.454)" fill="#063431"/>
    </g>
    <g id="Groupe_37" data-name="Groupe 37" transform="translate(120.799 0)">
      <path id="Tracé_47" data-name="Tracé 47" d="M0,2.955C0-5.177,6.618-11.836,15.725-11.836s15.64,6.578,15.64,14.791c0,8.13-6.619,14.791-15.725,14.791S0,11.168,0,2.955m24.577,0A8.819,8.819,0,0,0,15.64-6.034,8.7,8.7,0,0,0,6.787,2.955a8.818,8.818,0,0,0,8.938,8.989,8.7,8.7,0,0,0,8.853-8.989" transform="translate(0 11.836)" fill="#063431"/>
    </g>
  </g>
</svg>
