<svg id="Groupe_1515" data-name="Groupe 1515" xmlns="http://www.w3.org/2000/svg" xmlns:xlink="http://www.w3.org/1999/xlink" width="165.991" height="116.019" viewBox="0 0 165.991 116.019">
  <defs>
    <clipPath id="clip-path">
      <rect id="Rectangle_427" data-name="Rectangle 427" width="165.991" height="116.019" fill="none"/>
    </clipPath>
    <clipPath id="clip-path-3">
      <rect id="Rectangle_425" data-name="Rectangle 425" width="159.045" height="60.368" fill="none"/>
    </clipPath>
  </defs>
  <g id="Groupe_1514" data-name="Groupe 1514" clip-path="url(#clip-path)">
    <g id="Groupe_1513" data-name="Groupe 1513" transform="translate(0 0)">
      <g id="Groupe_1512" data-name="Groupe 1512" clip-path="url(#clip-path)">
        <path id="Tracé_37389" data-name="Tracé 37389" d="M41.2,47.762c-3.681-13.941,1.019-30.07,13.169-38.4C65.82,1.5,81.538,1.2,92.238,10.551A28.9,28.9,0,0,1,102.263,29.69a1.716,1.716,0,0,0,3.167.858c4.183-5.575,12.142-6.095,18.249-3.874,7.488,2.724,11.768,10.035,13.432,17.486a45.834,45.834,0,0,1,.681,14.3c-.129,1.365,1.517,2.008,2.557,1.467a10.948,10.948,0,0,1,10.085.468,18.482,18.482,0,0,1,7.472,8.3,44.778,44.778,0,0,1,4.65,20.981c-.182,6.831-2.432,13.717-7.81,18.209-5.419,4.528-13.26,5.728-19.984,3.968-7.962-2.085-14.4-7.956-18.457-14.962a1.714,1.714,0,0,0-2.669-.344,35.008,35.008,0,0,1-21.185,11.443,34.386,34.386,0,0,1-32.8-14.708,1.723,1.723,0,0,0-3.107.406c-4.2,13.965-22.962,18.546-34.9,12.047C6.841,97.675.616,77.465,4.515,61.682c1.166-4.72,3.57-9.413,7.886-11.951,3.923-2.307,8.907-2.8,12.746-.086,1.79,1.266,3.491-1.68,1.717-2.935a14.315,14.315,0,0,0-13.052-1.364A18.863,18.863,0,0,0,3.383,54.893C-.978,63.646-.682,74.7,1.787,83.96c2.375,8.913,7.35,17.242,14.91,22.676a29.619,29.619,0,0,0,23.8,4.638c8.77-1.947,16.676-7.871,19.325-16.684l-3.106.406a38.385,38.385,0,0,0,20.828,15.224,37.75,37.75,0,0,0,38.494-11.27L113.37,98.6c4.122,7.111,10.43,13.016,18.233,15.823,7.63,2.744,16.74,1.981,23.519-2.607,14.07-9.52,12.562-30.136,6.228-43.793-2.009-4.332-5.065-8.441-9.393-10.664a14.446,14.446,0,0,0-13.323-.368l2.557,1.467c.872-9.22-.34-19.418-6.013-27.045a22.762,22.762,0,0,0-21.651-9.12A16.743,16.743,0,0,0,102.5,28.833l3.167.858C104.443,14.581,92.008,2.063,77.053.245c-15.78-1.919-31.184,7.633-37.3,22.1a41.037,41.037,0,0,0-1.833,26.323c.559,2.113,3.838,1.217,3.278-.9" transform="translate(0 0)" fill="#fff"/>
        <path id="Tracé_37390" data-name="Tracé 37390" d="M61.226,24.575C52.1,28.953,48.12,40.76,52.233,49.873a1.714,1.714,0,0,0,2.325.61,1.739,1.739,0,0,0,.61-2.325c-3.4-7.527.444-17.134,7.774-20.649,1.971-.945.249-3.876-1.715-2.935" transform="translate(6.734 3.245)" fill="#fff"/>
        <path id="Tracé_37391" data-name="Tracé 37391" d="M19.666,75.984A22.732,22.732,0,0,0,39.688,87.6c2.185-.039,2.191-3.438,0-3.4A19.312,19.312,0,0,1,22.6,74.269c-1.05-1.919-3.987-.206-2.935,1.715" transform="translate(2.587 9.769)" fill="#fff"/>
        <g id="Groupe_1511" data-name="Groupe 1511" transform="translate(1.828 47.677)" opacity="0.12">
          <g id="Groupe_1510" data-name="Groupe 1510">
            <g id="Groupe_1509" data-name="Groupe 1509" clip-path="url(#clip-path-3)">
              <path id="Tracé_37392" data-name="Tracé 37392" d="M138.028,68.622a60.421,60.421,0,0,1,2.46,9.438c-.12-.9-.244-1.807-.365-2.71a23.118,23.118,0,0,1,.124,5.637q.184-1.355.365-2.71a17.184,17.184,0,0,1-1.186,4.349q.515-1.219,1.028-2.436A15.61,15.61,0,0,1,138.825,83l1.593-2.064a13.038,13.038,0,0,1-1.933,2l2.063-1.594a11.109,11.109,0,0,1-2.387,1.417q1.217-.513,2.436-1.028a11.215,11.215,0,0,1-2.519.648l2.711-.365a12.805,12.805,0,0,1-2.635-.019l2.711.365a14.52,14.52,0,0,1-3.429-.943l2.436,1.028a15.962,15.962,0,0,1-3.089-1.819l2.064,1.6a20.559,20.559,0,0,1-3.241-3.253q.8,1.033,1.6,2.064a32.132,32.132,0,0,1-3.37-5.536,10.184,10.184,0,0,0-6.094-4.686c-2.484-.565-5.733-.595-7.858,1.028a41.693,41.693,0,0,1-8.846,5.158l2.437-1.028a45.89,45.89,0,0,1-11.386,3.111l2.71-.364a48.865,48.865,0,0,1-12.64.018l2.711.364a47.549,47.549,0,0,1-11.8-3.178L85.5,76.946a43.4,43.4,0,0,1-9.513-5.532l2.063,1.6a43.2,43.2,0,0,1-3.285-2.855c-3.144-3.025-8.533-4.065-12.357-1.594a115.338,115.338,0,0,1-17.543,9.3l2.436-1.029a50.121,50.121,0,0,1-11.981,3.78l2.709-.365a20.321,20.321,0,0,1-5.153.019l2.713.365a18.136,18.136,0,0,1-3.74-1.037l2.436,1.028a28.665,28.665,0,0,1-6.1-3.65l2.066,1.594a36.306,36.306,0,0,1-6.386-6.275l1.593,2.063a27.046,27.046,0,0,1-3.371-5.714q.515,1.217,1.028,2.436a21.794,21.794,0,0,1-1.395-5q.182,1.356.366,2.711a18.974,18.974,0,0,1-.009-4.667q-.182,1.356-.365,2.711a19.175,19.175,0,0,1,1.2-4.5q-.512,1.219-1.028,2.436a17.08,17.08,0,0,1,2.113-3.635q-.8,1.032-1.6,2.064a15.033,15.033,0,0,1,2.412-2.4L22.76,62.4a14.225,14.225,0,0,1,2.282-1.385,10.3,10.3,0,0,0,4.686-6.095A10.426,10.426,0,0,0,28.7,47.06a10.292,10.292,0,0,0-6.1-4.686A11.376,11.376,0,0,0,14.748,43.4C8.268,46.549,3.411,53.611,2.17,60.642a30.223,30.223,0,0,0,.195,12.5A30.791,30.791,0,0,0,6.807,83.2,42.108,42.108,0,0,0,14.1,91.574a40.122,40.122,0,0,0,9.463,6.472,26.988,26.988,0,0,0,13.96,2.658,46.634,46.634,0,0,0,12.3-3.027A126.5,126.5,0,0,0,72.707,86.17L60.349,84.576c14.292,13.751,36.415,18.534,55.23,12.308a49.746,49.746,0,0,0,14.6-7.436L116.224,85.79c2.673,5.46,6.727,10.715,12.145,13.677,6.586,3.6,15.166,4.307,21.671.063A23.164,23.164,0,0,0,160.249,83.9a36.078,36.078,0,0,0-.266-12.326,63.868,63.868,0,0,0-2.289-8.374,10.746,10.746,0,0,0-4.686-6.095,10.411,10.411,0,0,0-7.858-1.028c-5.072,1.641-8.874,7.108-7.122,12.544" transform="translate(-1.613 -42.078)" fill="#fff"/>
            </g>
          </g>
        </g>
      </g>
    </g>
  </g>
</svg>
