<svg xmlns="http://www.w3.org/2000/svg" xmlns:xlink="http://www.w3.org/1999/xlink" width="134.821" height="64.023" viewBox="0 0 134.821 64.023">
  <defs>
    <clipPath id="clip-path">
      <rect id="Rectangle_424" data-name="Rectangle 424" width="134.821" height="64.023" transform="translate(0 0)" fill="none"/>
    </clipPath>
  </defs>
  <g id="Groupe_1508" data-name="Groupe 1508" transform="translate(0 0)">
    <g id="Groupe_1507" data-name="Groupe 1507" clip-path="url(#clip-path)">
      <path id="Tracé_37377" data-name="Tracé 37377" d="M46.018,43.705c-5.563-8.227-11.3-16.752-19.357-22.764-1.579-1.178-4.67-3.419-6.481-1.449-1.564,1.7.056,3.981.976,5.53a75.9,75.9,0,0,0,9,12.812,30.29,30.29,0,0,0,13.415,8.815c1.853.556,2.645-2.339.8-2.892C36.142,41.292,30.508,34.372,26.1,27.38a62.075,62.075,0,0,1-3.35-5.562c-.04-.082-.128-.406-.186-.432-.017-.007-.439.157-.421.367a13.878,13.878,0,0,0,1.371.675A21.34,21.34,0,0,1,26.2,24.373a62.2,62.2,0,0,1,8.784,9.068c3.031,3.763,5.736,7.778,8.441,11.778,1.075,1.591,3.675.091,2.59-1.514" fill="#fff"/>
      <path id="Tracé_37378" data-name="Tracé 37378" d="M24.685,19.136c.657-3.215,1.674-6.555,3.937-9.029,2.042-2.232,5.124-3.75,8.179-2.963,5.5,1.415,11.046,9.469,7.064,14.655-.886,1.154.573,2.4,1.693,2.2,4.635-.831,8.546,3.332,8.091,7.839-.495,4.917-5.429,7.918-10.1,6.924-1.883-.4-2.688,2.49-.8,2.893,6.643,1.414,13.281-2.887,13.895-9.817A10.126,10.126,0,0,0,44.761,21.109l1.694,2.2c5.139-6.692-1.5-16.815-8.483-18.957-3.846-1.178-7.915.27-10.78,2.931-3.084,2.866-4.577,7.025-5.4,11.051-.385,1.885,2.507,2.691,2.893.8" fill="#fff"/>
      <path id="Tracé_37379" data-name="Tracé 37379" d="M19.937,21.155C12.183,20.362,5.348,27.362,5.05,34.881A12.865,12.865,0,0,0,9.692,45.548a10.385,10.385,0,0,0,10.931,1.168l-2.2-1.694c-2.386,6.542,2.915,13.291,9.631,13.418,7.3.138,12.564-6.65,11.794-13.668-.208-1.9-3.21-1.92-3,0,.575,5.233-2.8,10.566-8.421,10.668a7.245,7.245,0,0,1-7.111-9.62c.484-1.327-1.133-2.227-2.2-1.694a7.4,7.4,0,0,1-8.14-1.406A10.326,10.326,0,0,1,8.1,34.112c.638-5.717,6.031-10.55,11.834-9.957,1.919.2,1.9-2.805,0-3" fill="#fff"/>
      <path id="Tracé_37380" data-name="Tracé 37380" d="M22.816,18.123a17.927,17.927,0,0,1-2.963-11.4,1.513,1.513,0,0,0-1.5-1.5,1.53,1.53,0,0,0-1.5,1.5,20.591,20.591,0,0,0,3.373,12.912,1.534,1.534,0,0,0,2.052.538,1.515,1.515,0,0,0,.538-2.052" fill="#fff"/>
      <path id="Tracé_37381" data-name="Tracé 37381" d="M21.315,19.121a27.573,27.573,0,0,0-13.468-5.21,1.51,1.51,0,0,0-1.5,1.5,1.535,1.535,0,0,0,1.5,1.5,24.7,24.7,0,0,1,11.954,4.8,1.509,1.509,0,0,0,2.052-.538,1.536,1.536,0,0,0-.538-2.052" fill="#fff"/>
      <path id="Tracé_37382" data-name="Tracé 37382" d="M19.154.338a3.128,3.128,0,0,0-4.118,1.309,3.666,3.666,0,0,0,.623,4.34,5.21,5.21,0,0,0,1.56,1.179,5.47,5.47,0,0,0,2.4.648,3.867,3.867,0,0,0,3.606-2.662A3.817,3.817,0,0,0,21.4.736a1.526,1.526,0,0,0-2.053.538,1.522,1.522,0,0,0,.538,2.052c.085.045.163.1.245.145.157.094-.243-.215-.112-.086.029.028.061.054.09.082s.073.079.112.116c.083.082.087.192-.082-.114.052.094.121.18.172.275.025.046.044.1.072.146,0,.007-.113-.316-.076-.17.023.091.054.183.079.273.068.239-.01-.152-.013-.159a.739.739,0,0,1,.013.161.949.949,0,0,1-.011.324c0-.007.084-.4.012-.159-.011.039-.02.079-.031.117-.1.329.134-.235.018-.019-.051.1-.105.187-.163.279-.026.041-.118.167.02-.022.15-.206,0-.011-.042.033s-.293.25-.091.1-.062.035-.115.066-.1.05-.143.077c-.114.065-.175.006.135-.055-.1.02-.21.061-.311.089-.147.041-.116-.065.158-.018a.876.876,0,0,0-.153.007c-.068,0-.137-.009-.2-.005-.158.01.131.021.145.027-.249-.093-.535-.131-.791-.217-.28-.094.291.137-.009-.005q-.135-.064-.267-.138c-.1-.056-.2-.115-.294-.179-.035-.023-.071-.048-.106-.073-.212-.149.023-.024.065.053-.039-.072-.161-.138-.223-.2s-.136-.141-.2-.213c-.164-.171.065.084.076.109a1.088,1.088,0,0,0-.1-.135c-.061-.092-.11-.189-.165-.284-.126-.219.111.322.012.018-.029-.09-.039-.191-.071-.279.112.305.022.289.021.151,0-.048,0-.1,0-.15s.023-.209-.014.05c-.04.277,0,.042.013-.022.012-.049.03-.1.044-.145.057-.207-.066.139-.064.149-.011-.068.145-.238.175-.293.078-.141-.123.185-.118.154s.1-.111.129-.138.078-.064.112-.1c.094-.1-.317.195-.095.08.031-.016.065-.037.094-.056.232-.157-.119.027-.129.044.032-.055.212-.053.271-.075-.363.135-.322.023-.191.034.067.005.291.024.008-.011-.248-.03-.121-.014-.061,0,.26.065-.336-.169-.09-.04a1.525,1.525,0,0,0,2.052-.538A1.522,1.522,0,0,0,19.154.338" fill="#fff"/>
      <path id="Tracé_37383" data-name="Tracé 37383" d="M8.393,14.958a6.757,6.757,0,0,0-2.374-3.881A3.95,3.95,0,0,0,3.8,10.352a3.568,3.568,0,0,0-2.347.916A4.626,4.626,0,0,0,.024,15.147a5.2,5.2,0,0,0,2.252,3.865,4.945,4.945,0,0,0,4.866.258,1.507,1.507,0,0,0,.538-2.052,1.539,1.539,0,0,0-2.052-.538c-.231.11.094-.045.114-.043a.862.862,0,0,0-.167.059q-.148.048-.3.081c-.063.014-.263.036-.019.012s.073-.007.024,0c-.134.009-.266.017-.4.013-.1,0-.208-.019-.311-.021.436.008.106.011-.04-.025-.116-.029-.229-.066-.342-.1-.047-.014-.192-.08.013.011.232.1-.014-.01-.065-.035a3.38,3.38,0,0,1-.308-.179c-.037-.024-.073-.051-.11-.075-.161-.1.231.2.092.07-.076-.072-.155-.138-.228-.213-.042-.042-.079-.088-.121-.13-.183-.186.141.209.041.06-.125-.187-.234-.374-.34-.572-.121-.23.109.3,0-.013a3.689,3.689,0,0,1-.113-.385c-.034-.144-.034-.481-.024-.041,0-.1-.019-.208-.022-.312s0-.208,0-.312a.784.784,0,0,0,.014-.178c.027.085-.06.359-.008.09a3.08,3.08,0,0,1,.071-.3c.017-.057.038-.112.054-.169.044-.154.1-.048-.052.11a1.51,1.51,0,0,0,.141-.278c.03-.051.061-.1.093-.151.016-.025.032-.05.05-.074.065-.092.032-.049-.1.129.069-.027.149-.167.209-.223.254-.24-.258.154.037-.031.036-.023.075-.043.111-.066.2-.127-.085.049-.123.043.033.005.528-.122.231-.079-.255.036.079.013.154.011.246-.008-.1,0-.133-.024a.91.91,0,0,0,.174.038c.072.018.375.157.162.039s-.025-.008.028.019.134.073.2.113a1.034,1.034,0,0,0,.153.1c-.057-.017-.239-.2-.086-.066a3.777,3.777,0,0,1,.293.287c.039.043.168.21.039.037-.145-.195.046.072.058.09.074.111.142.225.206.342s.133.268.2.4c.087.183-.1-.271-.036-.08.028.079.061.157.089.236.1.285.188.575.271.866a1.5,1.5,0,0,0,2.893-.8" fill="#fff"/>
      <path id="Tracé_37384" data-name="Tracé 37384" d="M34.888,17.082a.662.662,0,0,1,.109,0l-.4-.053a.691.691,0,0,1,.173.046l-.358-.151a.87.87,0,0,1,.156.091l-.3-.235a.861.861,0,0,1,.142.141l-.234-.3a.9.9,0,0,1,.1.172l-.151-.358a.739.739,0,0,1,.047.173l-.053-.4a.731.731,0,0,1,0,.162c.017-.133.035-.266.053-.4a.657.657,0,0,1-.04.146c.051-.119.1-.239.151-.358a.725.725,0,0,1-.082.143c.078-.1.156-.2.235-.3a.855.855,0,0,1-.141.141l.3-.235a.883.883,0,0,1-.174.1l.359-.151a.821.821,0,0,1-.193.051l.4-.054a.7.7,0,0,1-.165,0l.4.053a.64.64,0,0,1-.16-.042A1.446,1.446,0,0,0,33.484,16a1.134,1.134,0,0,0-.269.51c-.018.133-.036.266-.053.4a1.49,1.49,0,0,0,.2.757c.078.1.157.2.235.3a1.494,1.494,0,0,0,.662.385.608.608,0,0,0,.119.037c.143.028.295.045.44.06l.065,0a3.023,3.023,0,0,0,.507-.06.848.848,0,0,0,.121-.028.475.475,0,0,0,.063-.023c.133-.052.268-.106.4-.168a.789.789,0,0,0,.115-.068,3.416,3.416,0,0,0,.381-.3,1.944,1.944,0,0,0,.2-.244,1.684,1.684,0,0,0,.175-.243,2.678,2.678,0,0,0,.2-.465c.005-.018.01-.037.014-.056.029-.147.048-.3.062-.452a.761.761,0,0,0,0-.135,2.92,2.92,0,0,0-.078-.513.59.59,0,0,0-.021-.059c-.053-.136-.109-.277-.174-.408a.767.767,0,0,0-.071-.116,2.993,2.993,0,0,0-.319-.4,3.132,3.132,0,0,0-.4-.315,1.7,1.7,0,0,0-.305-.145,1.546,1.546,0,0,0-.317-.117c-.147-.026-.3-.049-.452-.061-.031,0-.061,0-.091,0A1.446,1.446,0,0,0,33.517,15a1.126,1.126,0,0,0-.129.578l.054.4a1.494,1.494,0,0,0,.385.662l.3.234a1.491,1.491,0,0,0,.757.2" fill="#fff"/>
      <path id="Tracé_37385" data-name="Tracé 37385" d="M15.212,36.338a.531.531,0,0,1,.055.061l-.234-.3a.748.748,0,0,1,.069.12c-.052-.119-.1-.239-.152-.358a.641.641,0,0,1,.041.156c-.017-.133-.035-.266-.053-.4a.853.853,0,0,1,0,.175c.017-.133.034-.266.053-.4a.719.719,0,0,1-.048.182c.05-.12.1-.239.151-.358a.632.632,0,0,1-.089.15l.236-.3a.606.606,0,0,1-.1.1l.3-.235a.538.538,0,0,1-.111.065l.359-.151-.012,0a1.124,1.124,0,0,0-.509.268,1.136,1.136,0,0,0-.387.421,1.12,1.12,0,0,0-.177.558,1.138,1.138,0,0,0,.026.6c.051.119.1.239.151.358a1.51,1.51,0,0,0,.539.538l.357.151a1.5,1.5,0,0,0,.8,0,3.569,3.569,0,0,0,.423-.182,3.322,3.322,0,0,0,.361-.273,2.251,2.251,0,0,0,.34-.41.814.814,0,0,0,.08-.141,4.508,4.508,0,0,0,.174-.419c.007-.027.014-.053.02-.08a2.287,2.287,0,0,0-.01-1.094,2.033,2.033,0,0,0-.535-.919,1.111,1.111,0,0,0-.482-.31,1.352,1.352,0,0,0-1.157,0,1.111,1.111,0,0,0-.482.31l-.235.3a1.493,1.493,0,0,0-.2.757c.018.133.034.266.053.4a1.505,1.505,0,0,0,.386.662" fill="#fff"/>
      <path id="Tracé_37386" data-name="Tracé 37386" d="M26.642,45.486l-.2.428a1.111,1.111,0,0,0-.178.558,1.539,1.539,0,0,0,.716,1.494l.359.151a1.5,1.5,0,0,0,.8,0l.358-.151a1.5,1.5,0,0,0,.538-.538c.067-.143.134-.285.2-.428a1.111,1.111,0,0,0,.178-.558,1.539,1.539,0,0,0-.716-1.494l-.358-.151a1.5,1.5,0,0,0-.8,0l-.358.151a1.507,1.507,0,0,0-.538.538" fill="#fff"/>
      <path id="Tracé_37387" data-name="Tracé 37387" d="M43.85,31.051c.022.014.043.028.064.044l-.3-.235a.835.835,0,0,1,.13.129l-.235-.3a.845.845,0,0,1,.11.185c-.051-.12-.1-.239-.152-.358a.978.978,0,0,1,.066.238l-.054-.4a.948.948,0,0,1,0,.232l.053-.4a.831.831,0,0,1-.054.207l.151-.358a.758.758,0,0,1-.1.172l.235-.3-.03.035a1.114,1.114,0,0,0-.31.483,1.35,1.35,0,0,0,0,1.156,1.114,1.114,0,0,0,.31.483l.3.234a1.494,1.494,0,0,0,.757.205l.4-.054a1.494,1.494,0,0,0,.662-.385,2.331,2.331,0,0,0,.55-.972A.915.915,0,0,0,46.421,31a4.745,4.745,0,0,0,.061-.475,2.819,2.819,0,0,0-.061-.577.941.941,0,0,0-.047-.188c-.053-.145-.115-.29-.181-.429a.723.723,0,0,0-.044-.082,2.333,2.333,0,0,0-.785-.786,1.111,1.111,0,0,0-.558-.178A1.539,1.539,0,0,0,43.312,29c-.051.119-.1.239-.151.358a1.5,1.5,0,0,0,0,.8l.151.358a1.508,1.508,0,0,0,.538.538" fill="#fff"/>
      <path id="Tracé_37388" data-name="Tracé 37388" d="M46.583,47.56C51.649,55.4,60.231,60.219,69.322,61.742a51.247,51.247,0,0,0,15.6.065c4.864-.682,10.295-1.871,14.3-4.884a8.016,8.016,0,0,0,3.4-5.438,5.549,5.549,0,0,0-2.638-5.461c-3.42-2.069-8.985-1.083-11.1,2.408-2.151,3.546-.6,8.212,2.378,10.735,3.491,2.957,8.37,3.961,12.79,4.522a43.554,43.554,0,0,0,30.106-7.413c1.572-1.1.074-3.7-1.514-2.59A40.75,40.75,0,0,1,110.789,61,39.3,39.3,0,0,1,99.237,59.72c-3.285-.882-7.222-2.48-8.157-6.123a4.529,4.529,0,0,1,.746-4.129,5.81,5.81,0,0,1,4.96-1.421c1.63.237,3.039,1.232,2.874,3.039-.179,1.965-1.814,3.3-3.412,4.211a33.754,33.754,0,0,1-12.38,3.65,47.6,47.6,0,0,1-13.291-.024c-8.479-1.308-16.661-5.535-21.4-12.877-1.044-1.616-3.642-.114-2.59,1.514" fill="#fff"/>
    </g>
  </g>
</svg>
