<svg id="Groupe_1504" data-name="Groupe 1504" xmlns="http://www.w3.org/2000/svg" xmlns:xlink="http://www.w3.org/1999/xlink" width="734.257" height="291.92" viewBox="0 0 734.257 291.92">
  <defs>
    <clipPath id="clip-path">
      <rect id="Rectangle_423" data-name="Rectangle 423" width="734.257" height="291.92" fill="none"/>
    </clipPath>
  </defs>
  <g id="Groupe_1503" data-name="Groupe 1503" clip-path="url(#clip-path)">
    <path id="Tracé_37141" data-name="Tracé 37141" d="M73.984,182.39l-27,42.2c-2.738,4.279,4.072,8.231,6.8,3.973l27-42.2c2.738-4.28-4.072-8.231-6.8-3.973" transform="translate(-15.947 -62.124)" fill="#c6e2dd"/>
    <path id="Tracé_37142" data-name="Tracé 37142" d="M168.366,185.588a161.272,161.272,0,0,0-16.493,29.5c-1.974,4.605,4.8,8.62,6.8,3.973a161.273,161.273,0,0,1,16.493-29.5c2.927-4.147-3.9-8.084-6.8-3.973" transform="translate(-52.131 -63.255)" fill="#c6e2dd"/>
    <path id="Tracé_37143" data-name="Tracé 37143" d="M222.566,186.5l-13.558,26.111c-2.331,4.49,4.46,8.475,6.8,3.973l13.558-26.111c2.331-4.49-4.46-8.476-6.8-3.973" transform="translate(-71.746 -63.487)" fill="#c6e2dd"/>
    <path id="Tracé_37144" data-name="Tracé 37144" d="M172.1,179.554c-27.656-3.271-55.384-5.892-83.137-8.181-29.038-2.395-58.1-4.427-87.174-6.363" transform="translate(-0.616 -56.774)" fill="#016f67"/>
    <path id="Tracé_37145" data-name="Tracé 37145" d="M291.748,191.036q-2.6-.344-5.193-.68a.984.984,0,0,0-.984.984,1.015,1.015,0,0,0,.984.984q2.6.335,5.193.68a.984.984,0,0,0,.984-.984,1.015,1.015,0,0,0-.984-.984" transform="translate(-98.254 -65.494)" fill="#016f67"/>
    <path id="Tracé_37146" data-name="Tracé 37146" d="M5.78,262.22q47.547-7,95.056-14.272c27.628-4.259,55.243-8.625,82.8-13.325q4.526-.772,9.052-1.558c1.246-.216.717-2.113-.525-1.9" transform="translate(-1.989 -79.529)" fill="#016f67"/>
    <path id="Tracé_37147" data-name="Tracé 37147" d="M198.078,231.176c-26.959,4.684-53.984,9-81.025,13.208q-47.005,7.308-94.075,14.206" transform="translate(-7.906 -79.538)" fill="#016f67"/>
    <path id="Tracé_37148" data-name="Tracé 37148" d="M6.734,230.22q45.584-2.636,91.153-5.514,43.025-2.721,86.034-5.689,5.024-.347,10.048-.7c1.256-.088,1.266-2.056,0-1.968" transform="translate(-2.317 -74.436)" fill="#016f67"/>
    <path id="Tracé_37149" data-name="Tracé 37149" d="M199.92,216.354q-42.578,2.983-85.174,5.7-45.344,2.9-90.705,5.547" transform="translate(-8.272 -74.439)" fill="#016f67"/>
    <path id="Tracé_37150" data-name="Tracé 37150" d="M73.485,182.056q-6.691,10.867-13.9,21.4c-3.823,5.617-7.69,11.2-11.348,16.928Q44.6,226.077,41.2,231.918a.984.984,0,1,0,1.7.993q5.738-9.828,12.116-19.253c3.944-5.852,7.978-11.641,11.856-17.537q4.257-6.472,8.313-13.072c.666-1.081-1.035-2.071-1.7-.993" transform="translate(-14.13 -62.478)" fill="#016f67"/>
    <path id="Tracé_37151" data-name="Tracé 37151" d="M0,239.036c.4,13.377.459,26.762.35,40.147Q.307,284.5.208,289.824a.985.985,0,0,0,1.968,0q.383-20.072.033-40.149-.088-5.32-.241-10.639c-.037-1.263-2.005-1.269-1.968,0" transform="translate(0 -81.916)" fill="#016f67"/>
    <path id="Tracé_37152" data-name="Tracé 37152" d="M29.69,237.661c.335,12.361,1.162,24.7,1.715,37.053.153,3.423.287,6.848.379,10.274a.985.985,0,0,0,1.968,0c-.335-12.361-1.161-24.7-1.715-37.053-.153-3.423-.286-6.848-.379-10.274a.985.985,0,0,0-1.968,0" transform="translate(-10.215 -81.443)" fill="#016f67"/>
    <path id="Tracé_37153" data-name="Tracé 37153" d="M55.739,237.3c0,11.413.868,22.821,1.95,34.174q.441,4.622.945,9.237c.136,1.246,2.1,1.259,1.968,0-1.233-11.348-2.261-22.726-2.7-34.132-.12-3.091-.192-6.184-.19-9.278a.984.984,0,0,0-1.968,0" transform="translate(-19.178 -81.309)" fill="#016f67"/>
    <path id="Tracé_37154" data-name="Tracé 37154" d="M78.1,234.585a337.539,337.539,0,0,0,.412,33.963q.206,4.28.477,8.557c.081,1.257,2.049,1.267,1.968,0-.725-11.3-1.175-22.637-1.115-33.959.016-2.855.072-5.71.223-8.561.066-1.265-1.9-1.262-1.968,0" transform="translate(-26.774 -80.385)" fill="#016f67"/>
    <path id="Tracé_37155" data-name="Tracé 37155" d="M98.387,232.528c0,10.868.394,21.771,1.246,32.605.213,2.712.462,5.421.81,8.119.159,1.238,2.129,1.254,1.968,0a307.979,307.979,0,0,1-1.96-32.56c-.06-2.721-.1-5.444-.1-8.165a.984.984,0,0,0-1.968,0" transform="translate(-33.851 -79.665)" fill="#016f67"/>
    <path id="Tracé_37156" data-name="Tracé 37156" d="M117.811,231.848c-.322,4.731-.425,9.482-.481,14.223-.066,5.548-.047,11.1.222,16.648.116,2.394.279,4.788.611,7.164.174,1.246,2.071.718,1.9-.525a112.97,112.97,0,0,1-.757-13.914q-.12-8.23.145-16.464c.074-2.379.169-4.76.328-7.135.086-1.264-1.882-1.259-1.968,0" transform="translate(-40.357 -79.443)" fill="#016f67"/>
    <path id="Tracé_37157" data-name="Tracé 37157" d="M135.154,230.154c-.092,4.536.163,9.082.439,13.608.31,5.1.708,10.185,1.125,15.274q.291,3.546.586,7.092c.1,1.254,2.071,1.265,1.968,0-.783-9.613-1.667-19.227-2.044-28.867-.092-2.367-.155-4.738-.106-7.106a.985.985,0,0,0-1.968,0" transform="translate(-46.494 -78.86)" fill="#016f67"/>
    <path id="Tracé_37158" data-name="Tracé 37158" d="M149.594,228.79a266.02,266.02,0,0,0,1.161,27.761q.263,3.462.567,6.923c.11,1.252,2.079,1.263,1.968,0-.811-9.226-1.486-18.484-1.713-27.746-.056-2.312-.081-4.627-.014-6.939a.985.985,0,0,0-1.968,0" transform="translate(-51.45 -78.39)" fill="#016f67"/>
    <path id="Tracé_37159" data-name="Tracé 37159" d="M161.9,229.137c-.262,3.963-.175,7.954-.074,11.92.117,4.588.323,9.174.579,13.756q.173,3.107.386,6.212c.087,1.256,2.056,1.266,1.968,0-.59-8.54-1.036-17.115-1.049-25.676,0-2.071.02-4.146.158-6.212.085-1.264-1.884-1.259-1.968,0" transform="translate(-55.642 -78.511)" fill="#016f67"/>
    <path id="Tracé_37160" data-name="Tracé 37160" d="M174.43,227.774a107.508,107.508,0,0,0-.256,11.873c.087,4.526.3,9.052.656,13.565.165,2.056.366,4.108.643,6.151a.991.991,0,0,0,1.21.687,1.009,1.009,0,0,0,.687-1.21c-.521-3.837-.762-7.719-.96-11.584-.228-4.448-.355-8.906-.294-13.36.028-2.042.092-4.087.279-6.121.116-1.261-1.852-1.253-1.968,0" transform="translate(-59.905 -78.044)" fill="#016f67"/>
    <path id="Tracé_37161" data-name="Tracé 37161" d="M186.361,228.1a109.234,109.234,0,0,0-.075,11q.189,6.316.689,12.618c.153,1.9.328,3.8.561,5.7.153,1.24,2.123,1.256,1.968,0a194.033,194.033,0,0,1-1.337-23.6c0-1.907.026-3.817.162-5.72.09-1.263-1.878-1.258-1.968,0" transform="translate(-64.058 -78.156)" fill="#016f67"/>
    <path id="Tracé_37162" data-name="Tracé 37162" d="M198.933,225.9a90.948,90.948,0,0,0,.053,10.731c.2,4.116.507,8.227.9,12.332.178,1.862.375,3.723.605,5.58.154,1.24,2.124,1.255,1.968,0a212.008,212.008,0,0,1-1.673-23.043c-.027-1.866-.018-3.739.114-5.6.089-1.264-1.879-1.258-1.968,0" transform="translate(-68.399 -77.398)" fill="#016f67"/>
    <path id="Tracé_37163" data-name="Tracé 37163" d="M216.1,224.932a90.811,90.811,0,0,0,.053,10.731c.2,4.116.507,8.227.9,12.332.178,1.862.375,3.723.605,5.58.154,1.24,2.124,1.255,1.968,0a212.181,212.181,0,0,1-1.674-23.043c-.026-1.866-.017-3.739.115-5.6.089-1.264-1.879-1.258-1.968,0" transform="translate(-74.304 -77.065)" fill="#016f67"/>
    <path id="Tracé_37164" data-name="Tracé 37164" d="M231.431,222.729a90.807,90.807,0,0,0,.053,10.731c.2,4.116.507,8.227.9,12.332.178,1.862.375,3.723.605,5.58.154,1.24,2.124,1.255,1.968,0a212.016,212.016,0,0,1-1.673-23.043c-.027-1.866-.018-3.739.114-5.6.09-1.264-1.879-1.258-1.968,0" transform="translate(-79.58 -76.307)" fill="#016f67"/>
    <path id="Tracé_37165" data-name="Tracé 37165" d="M247.235,222.243a124.75,124.75,0,0,0-.166,12.608c.125,4.2.367,8.408.883,12.58.154,1.24,2.123,1.256,1.968,0-.516-4.172-.759-8.38-.883-12.58a124.947,124.947,0,0,1,.166-12.608c.091-1.263-1.878-1.258-1.968,0" transform="translate(-84.977 -76.14)" fill="#016f67"/>
    <path id="Tracé_37166" data-name="Tracé 37166" d="M165.493,184.7q-8.976,15.476-16.805,31.58-2.237,4.608-4.378,9.263c-.525,1.143,1.17,2.144,1.7.993q7.478-16.252,16.136-31.927,2.478-4.484,5.051-8.915a.984.984,0,1,0-1.7-.993" transform="translate(-49.617 -63.38)" fill="#016f67"/>
    <path id="Tracé_37167" data-name="Tracé 37167" d="M219.624,189.447l-15.644,30.275c-.581,1.124,1.115,2.12,1.7.994l15.644-30.276c.58-1.123-1.115-2.12-1.7-.993" transform="translate(-70.14 -65.011)" fill="#016f67"/>
    <path id="Tracé_37168" data-name="Tracé 37168" d="M256.053,197.133c-1.614,3.856-3.154,7.74-4.793,11.587a1.017,1.017,0,0,0,.353,1.346.991.991,0,0,0,1.347-.353c1.705-4,3.312-8.044,4.991-12.057a.991.991,0,0,0-.687-1.211,1.01,1.01,0,0,0-1.21.687" transform="translate(-86.406 -67.579)" fill="#016f67"/>
    <path id="Tracé_37169" data-name="Tracé 37169" d="M12.5,184.609.922,203.741a.984.984,0,0,0,1.7.993L14.2,185.6a.984.984,0,1,0-1.7-.993" transform="translate(-0.271 -63.349)" fill="#016f67"/>
    <path id="Tracé_37170" data-name="Tracé 37170" d="M47.993,187.715l-12.7,19.056c-.7,1.057,1,2.043,1.7.993l12.7-19.054c.7-1.057-1-2.043-1.7-.993" transform="translate(-12.085 -64.431)" fill="#016f67"/>
    <path id="Tracé_37171" data-name="Tracé 37171" d="M104.389,190.591l-10,17.662a.984.984,0,0,0,1.7.993l10-17.662a.984.984,0,0,0-1.7-.993" transform="translate(-32.43 -65.407)" fill="#016f67"/>
    <path id="Tracé_37172" data-name="Tracé 37172" d="M140.126,189.916l-8.037,13.6a.984.984,0,1,0,1.7.993l8.036-13.6a.984.984,0,1,0-1.7-.993" transform="translate(-45.4 -65.175)" fill="#016f67"/>
    <path id="Tracé_37173" data-name="Tracé 37173" d="M183.5,190.011l-9.069,16.61c-.607,1.115,1.091,2.106,1.7.993L185.2,191c.607-1.115-1.091-2.106-1.7-.993" transform="translate(-59.97 -65.208)" fill="#016f67"/>
    <path id="Tracé_37174" data-name="Tracé 37174" d="M203.2,190.754l-6.545,11.579a.984.984,0,1,0,1.7.994l6.545-11.58a.984.984,0,0,0-1.7-.993" transform="translate(-67.614 -65.463)" fill="#016f67"/>
    <path id="Tracé_37175" data-name="Tracé 37175" d="M234.743,199.2l-2.014,3.017a.992.992,0,0,0,.353,1.347,1.008,1.008,0,0,0,1.346-.354l2.014-3.017a.99.99,0,0,0-.353-1.346,1.007,1.007,0,0,0-1.346.353" transform="translate(-80.028 -68.372)" fill="#016f67"/>
    <path id="Tracé_37176" data-name="Tracé 37176" d="M245.727,196.894l-3.017,6.042a.984.984,0,1,0,1.7.994l3.017-6.042a.984.984,0,1,0-1.7-.994" transform="translate(-83.46 -67.576)" fill="#016f67"/>
    <path id="Tracé_37177" data-name="Tracé 37177" d="M16.252,239.777l-7.034,13.6c-.581,1.124,1.115,2.12,1.7.993l7.032-13.6c.581-1.123-1.115-2.119-1.7-.993" transform="translate(-3.13 -82.328)" fill="#016f67"/>
    <path id="Tracé_37178" data-name="Tracé 37178" d="M386.494,122.1c-.024-8.481-5.238-16.061-12.583-20.083-8-4.38-17.306-4.384-26.176-4.365-16.648.037-33.866.969-48.592,9.572-8.744,5.107-.829,18.719,7.945,13.593,10.969-6.407,23.811-7.233,36.229-7.393,6.222-.08,12.922-.643,19,.89a13.147,13.147,0,0,1,6.214,3.149,6.043,6.043,0,0,1,2.215,4.639c.029,10.128,15.771,10.147,15.743,0" transform="translate(-101.616 -33.596)" fill="#c6e2dd"/>
    <path id="Tracé_37179" data-name="Tracé 37179" d="M414.944,259.153c2.683,7.33,4.909,14.477,2.866,22.242-2.58,9.806,12.6,13.99,15.18,4.184,2.774-10.54.806-20.583-2.867-30.612-1.461-3.989-5.343-6.691-9.683-5.5-3.845,1.057-6.965,5.671-5.5,9.683" transform="translate(-142.638 -85.735)" fill="#c6e2dd"/>
    <path id="Tracé_37180" data-name="Tracé 37180" d="M287.475,254.681c-5.838,9.463-8.382,18.965-6.2,30.007.826,4.172,5.8,6.565,9.683,5.5,4.353-1.2,6.325-5.5,5.5-9.683-1.346-6.8.945-11.932,4.611-17.876,5.333-8.647-8.279-16.562-13.593-7.945" transform="translate(-96.509 -86.346)" fill="#c6e2dd"/>
    <path id="Tracé_37181" data-name="Tracé 37181" d="M372.281,165.629a250.494,250.494,0,0,1-33.387.192c-5.059-.308-5.041,7.564,0,7.871a250.494,250.494,0,0,0,33.387-.192c5.023-.364,5.063-8.239,0-7.871" transform="translate(-115.297 -56.982)" fill="#c6e2dd"/>
    <path id="Tracé_37182" data-name="Tracé 37182" d="M265.41,166.106q-.15,12.07-1.336,24.081c-.5,5.038,7.377,5,7.871,0q1.187-12.012,1.336-24.081c.066-5.066-7.806-5.07-7.871,0" transform="translate(-90.85 -55.843)" fill="#c6e2dd"/>
    <path id="Tracé_37183" data-name="Tracé 37183" d="M479.358,130.251c-2.661,4.579-7.483,6.88-11.95,9.354-4.716,2.612-9.008,5.581-12.266,9.951a30,30,0,0,0-1.74,32.764c1.873,3.305,6.975.333,5.1-2.979a24.027,24.027,0,0,1,4.737-29.953c6.8-6.02,16.387-7.848,21.216-16.158,1.913-3.291-3.187-6.266-5.1-2.979" transform="translate(-154.607 -44.322)" fill="#c6e2dd"/>
    <path id="Tracé_37184" data-name="Tracé 37184" d="M360.863,213.938a9.853,9.853,0,0,0-1.539,12.272c1.341,2.142,4.748.169,3.4-1.986a5.88,5.88,0,0,1,.924-7.5c1.833-1.755-.952-4.536-2.783-2.783" transform="translate(-123.123 -73.416)" fill="#c6e2dd"/>
    <path id="Tracé_37185" data-name="Tracé 37185" d="M394.093,334.876l-128.269-.693c-2.533-.014-2.536,3.922,0,3.936l128.269.693c2.533.014,2.536-3.922,0-3.936" transform="translate(-90.805 -114.979)" fill="#c6e2dd"/>
    <path id="Tracé_37186" data-name="Tracé 37186" d="M439.765,255.087c1.437-2.941,4.526-3.394,7.324-1.968,3.292,1.679,5.11,5.23,6.358,8.544,1.771,4.7,9.38,2.662,7.59-2.092-2.354-6.251-6.018-12.166-12.664-14.42-5.8-1.968-12.65.328-15.4,5.964-2.215,4.534,4.571,8.527,6.8,3.973" transform="translate(-148.816 -84.108)" fill="#c6e2dd"/>
    <path id="Tracé_37187" data-name="Tracé 37187" d="M278.424,250.057a12.837,12.837,0,0,0-15.936-.99c-5.213,3.616-7.261,9.8-6.987,15.939.224,5.045,8.1,5.073,7.871,0-.135-3.036.227-6.18,2.419-8.485,1.832-1.926,4.872-2.79,7.067-.9,3.822,3.289,9.413-2.254,5.566-5.566" transform="translate(-87.899 -84.9)" fill="#c6e2dd"/>
    <path id="Tracé_37188" data-name="Tracé 37188" d="M437.005,323.954q-66.433-1-132.859-2.392-66.1-1.382-132.188-3.148-37.626-1.007-75.247-2.136c-5.067-.152-5.063,7.719,0,7.871q66.41,1.992,132.831,3.6,66.094,1.6,132.2,2.815,37.632.692,75.266,1.259c5.067.077,5.068-7.795,0-7.871" transform="translate(-31.968 -108.818)" fill="#c6e2dd"/>
    <path id="Tracé_37189" data-name="Tracé 37189" d="M492.713,188.42q8.435,17.432,16.871,34.864c1.1,2.279,4.5.285,3.4-1.987l-16.871-34.863c-1.1-2.279-4.5-.286-3.4,1.986" transform="translate(-169.449 -63.798)" fill="#c6e2dd"/>
    <path id="Tracé_37190" data-name="Tracé 37190" d="M503.223,180.13l23.466,30.9c1.509,1.991,4.931.033,3.4-1.986l-23.466-30.9c-1.509-1.991-4.931-.033-3.4,1.986" transform="translate(-173.006 -61.006)" fill="#c6e2dd"/>
    <path id="Tracé_37191" data-name="Tracé 37191" d="M479.38,156.829l5.045,10.538c1.093,2.283,4.488.289,3.4-1.987q-2.523-5.268-5.045-10.538c-1.093-2.284-4.488-.289-3.4,1.986" transform="translate(-164.862 -52.928)" fill="#c6e2dd"/>
    <path id="Tracé_37192" data-name="Tracé 37192" d="M382.873,129.049q-17.327.107-34.652-.2t-34.638-1.032q-9.8-.41-19.592-.953l.949.722c-1.757-7.223,1.586-14.712,6.832-19.651,5.817-5.476,13.983-7.737,21.769-8.374,9.091-.745,18.166.608,27.227,1.148,4.468.262,8.954.051,13.417.373,4.059.293,8.062,1.332,11.246,3.98,7.423,6.174,8.5,16.38,7.49,25.388-.142,1.257,1.827,1.246,1.968,0,.979-8.7,0-18.141-6.1-24.892a19.051,19.051,0,0,0-10.353-5.88c-4.441-.918-9-.642-13.5-.755-9.829-.247-19.613-1.962-29.46-1.458-8.339.428-16.967,2.441-23.595,7.774-6.658,5.359-10.916,14.316-8.835,22.871a1,1,0,0,0,.948.722q17.3.957,34.62,1.5t34.646.67q9.808.072,19.613.01a.984.984,0,1,0,0-1.968" transform="translate(-100.642 -33.503)" fill="#016f67"/>
    <path id="Tracé_37193" data-name="Tracé 37193" d="M403.114,129.465l-17.19-.68c-1.267-.05-1.265,1.918,0,1.968l17.19.68c1.267.05,1.264-1.918,0-1.968" transform="translate(-132.455 -44.31)" fill="#016f67"/>
    <path id="Tracé_37194" data-name="Tracé 37194" d="M330.717,129.877l-15.87.158a.984.984,0,1,0,0,1.968l15.87-.158a.984.984,0,1,0,0-1.968" transform="translate(-107.988 -44.686)" fill="#016f67"/>
    <path id="Tracé_37195" data-name="Tracé 37195" d="M370.539,165.323l-36.417-.514a1,1,0,0,0-.984.984l-.569,11a.992.992,0,0,0,.984.984q19.8-.442,39.571,1a1.008,1.008,0,0,0,.984-.984q.32-2.52.639-5.04c.189-1.489.486-3.006.55-4.5a2.838,2.838,0,0,0-1.377-2.848,2.014,2.014,0,0,0-2.731.8c-.506,1.148,1.189,2.151,1.7.993.117-.262-.044-.087.031-.058.036.014.14,0,.163.041a1.455,1.455,0,0,1,.247.954,30.171,30.171,0,0,1-.354,3.051q-.42,3.308-.839,6.615l.984-.984q-19.749-1.443-39.571-1l.984.984q.284-5.5.569-11l-.984.984,36.417.514a.984.984,0,1,0,0-1.968" transform="translate(-114.424 -56.704)" fill="#016f67"/>
    <path id="Tracé_37196" data-name="Tracé 37196" d="M388.068,186.344a232.175,232.175,0,0,1,7.107,31.5q.707,4.622,1.222,9.271c.138,1.246,2.108,1.259,1.968,0a233.962,233.962,0,0,0-5.9-32.333q-1.158-4.5-2.5-8.959a.985.985,0,0,0-1.9.525" transform="translate(-133.503 -63.697)" fill="#016f67"/>
    <path id="Tracé_37197" data-name="Tracé 37197" d="M332.635,185.258q-3.716,16.483-6.4,33.176-.766,4.767-1.447,9.547a1.018,1.018,0,0,0,.687,1.21.99.99,0,0,0,1.21-.687q2.387-16.726,5.809-33.285.979-4.728,2.042-9.437c.278-1.234-1.619-1.761-1.9-.525" transform="translate(-111.736 -63.497)" fill="#016f67"/>
    <path id="Tracé_37198" data-name="Tracé 37198" d="M363.617,226.912q-.09,8.1-.178,16.2a.984.984,0,0,0,1.968,0q.09-8.1.178-16.2a.984.984,0,0,0-1.968,0" transform="translate(-125.045 -77.733)" fill="#016f67"/>
    <path id="Tracé_37199" data-name="Tracé 37199" d="M360.454,225.326a7.771,7.771,0,0,0,9.1-2.188,8.068,8.068,0,0,0,.062-9.577,8.505,8.505,0,0,0-9.376-2.87,9.075,9.075,0,0,0-6,8.068,9.767,9.767,0,0,0,6.256,9.365.992.992,0,0,0,1.211-.687,1.008,1.008,0,0,0-.687-1.21,7.871,7.871,0,0,1-4.794-6.263,7.237,7.237,0,0,1,3.5-6.911,6.66,6.66,0,0,1,7.5.769,6.224,6.224,0,0,1,1.439,7.07,5.751,5.751,0,0,1-7.221,2.734c-1.148-.506-2.151,1.189-.993,1.7" transform="translate(-121.875 -72.344)" fill="#016f67"/>
    <path id="Tracé_37200" data-name="Tracé 37200" d="M300.64,147.289a458.6,458.6,0,0,0-1.633,54.187q.222,7.63.7,15.249c.078,1.258,2.047,1.267,1.968,0a458.505,458.505,0,0,1-.176-54.211q.428-7.621,1.11-15.225c.113-1.261-1.856-1.253-1.968,0" transform="translate(-102.81 -50.352)" fill="#016f67"/>
    <path id="Tracé_37201" data-name="Tracé 37201" d="M423.9,148.315q-.779,25.693-1.558,51.385-.218,7.2-.436,14.4c-.039,1.267,1.929,1.265,1.968,0q.778-25.693,1.557-51.385l.437-14.4c.039-1.267-1.93-1.265-1.968,0" transform="translate(-145.159 -50.703)" fill="#016f67"/>
    <path id="Tracé_37202" data-name="Tracé 37202" d="M379.916,250.593l-34.821-.051-34.821-.05-19.618-.029a.984.984,0,0,0,0,1.968l34.821.051,34.821.05,19.617.028a.984.984,0,1,0,0-1.968" transform="translate(-99.665 -86.175)" fill="#016f67"/>
    <path id="Tracé_37203" data-name="Tracé 37203" d="M383.263,270.13q-18.57,1.414-37.2,1.705-18.7.287-37.4-.568-10.481-.48-20.94-1.319c-1.263-.1-1.256,1.867,0,1.968q18.563,1.485,37.2,1.847,18.7.358,37.4-.426,10.483-.44,20.945-1.239c1.255-.1,1.265-2.064,0-1.968" transform="translate(-98.668 -92.877)" fill="#016f67"/>
    <path id="Tracé_37204" data-name="Tracé 37204" d="M385.54,287.054l-37.468-1.181-37.3-1.175-21.107-.665c-1.267-.04-1.265,1.928,0,1.968l37.469,1.181,37.3,1.174,21.106.666c1.267.04,1.265-1.928,0-1.968" transform="translate(-99.334 -97.724)" fill="#016f67"/>
    <path id="Tracé_37205" data-name="Tracé 37205" d="M309.308,283.3c-.722-5.588-.237-11.282-1.309-16.831-.868-4.493-2.868-9.087-6.709-11.807-3.393-2.4-8.4-3.116-12.042-.853-4.172,2.595-4.908,7.846-5.408,12.311a107.451,107.451,0,0,0-.36,19.83c.093,1.255,2.062,1.265,1.968,0a107.642,107.642,0,0,1,.014-16.162,62.3,62.3,0,0,1,.87-7.316,11.913,11.913,0,0,1,2.411-5.675c2.672-3.017,7.249-2.921,10.568-1.061,3.716,2.083,5.654,6.248,6.576,10.238,1.312,5.673.709,11.575,1.452,17.317.16,1.238,2.13,1.254,1.968,0" transform="translate(-97.433 -86.854)" fill="#016f67"/>
    <path id="Tracé_37206" data-name="Tracé 37206" d="M406.482,283.9a30.28,30.28,0,0,1-.777-13.915,27.436,27.436,0,0,1,5.561-12.7c2.79-3.311,7.757-5.646,11.558-2.46,3.442,2.886,4.717,8.02,5.421,12.248.942,5.665.666,11.466.409,17.176-.057,1.267,1.911,1.264,1.968,0a89.736,89.736,0,0,0-.322-16.675c-.673-4.742-2.054-10.309-5.641-13.744-3.8-3.638-9.3-2.91-13.093.347s-6.09,8.386-7.289,13.127a32.5,32.5,0,0,0,.311,17.115.985.985,0,0,0,1.9-.525" transform="translate(-138.753 -86.498)" fill="#016f67"/>
    <path id="Tracé_37207" data-name="Tracé 37207" d="M279.631,249.4a10.677,10.677,0,0,0-8.653-5.745,13.194,13.194,0,0,0-10.55,3.416,19.627,19.627,0,0,0-5.666,11.449,41.793,41.793,0,0,0,.466,12.818c.753,4.937,1.805,9.823,2.851,14.7.262,1.238,2.165.714,1.9-.525-.839-3.915-1.678-7.83-2.369-11.773a57.8,57.8,0,0,1-1.211-11.8c.244-7.329,4.2-16.128,12.57-16.412,3.641-.123,7.37,1.423,8.965,4.861.532,1.148,2.23.15,1.7-.993" transform="translate(-87.543 -83.799)" fill="#016f67"/>
    <path id="Tracé_37208" data-name="Tracé 37208" d="M437.494,252.109c.712-3.924,4.316-6.41,8.094-6.963,4.366-.64,8.391,1.65,11,5.055a19.459,19.459,0,0,1,3.963,11.446,74.492,74.492,0,0,1-1.146,11.88c-.634,4.142-1.443,8.255-2.059,12.4-.185,1.239,1.711,1.771,1.9.525.59-3.958,1.357-7.888,1.973-11.842a80.028,80.028,0,0,0,1.3-12.961c-.081-8.738-6.625-19.449-16.472-18.522-4.748.447-9.546,3.507-10.446,8.462-.225,1.238,1.671,1.771,1.9.525" transform="translate(-149.865 -83.63)" fill="#016f67"/>
    <path id="Tracé_37209" data-name="Tracé 37209" d="M278.744,193.109l-8.386-.939-1.935-.217c-.446-.05-1.261-.012-1.583-.386a1.97,1.97,0,0,1-.212-1.2c0-.722.032-1.448.049-2.17l.394-16.726.226-9.581-.984.984,5.154-.169c.859-.028,1.718-.058,2.577-.084.131,0,.7-.1.813.02s.07.429.08.576c.231,3.414.254,6.855.382,10.275l.758,20.385c.047,1.262,2.015,1.269,1.968,0q-.328-8.724-.649-17.448l-.321-8.643c-.055-1.468-.1-2.936-.164-4.4-.043-1.023-.237-2.114-1.29-2.558a4.487,4.487,0,0,0-1.9-.159l-2.416.079-4.993.163a1,1,0,0,0-.984.984q-.216,9.175-.434,18.349-.107,4.547-.215,9.093a5.288,5.288,0,0,0,.584,3.4c.756,1.01,2,1.063,3.156,1.192l10.321,1.156c1.257.141,1.246-1.828,0-1.968" transform="translate(-91.058 -55.264)" fill="#016f67"/>
    <path id="Tracé_37210" data-name="Tracé 37210" d="M428.251,189.7a146.3,146.3,0,0,0,19.5-.284c1.254-.1,1.264-2.07,0-1.968a146.3,146.3,0,0,1-19.5.284c-1.265-.066-1.262,1.9,0,1.968" transform="translate(-147.018 -64.493)" fill="#016f67"/>
    <path id="Tracé_37211" data-name="Tracé 37211" d="M451.829,230.5l.394-18.181a.984.984,0,0,0-1.968,0l-.394,18.181a.985.985,0,0,0,1.968,0" transform="translate(-154.779 -72.722)" fill="#016f67"/>
    <path id="Tracé_37212" data-name="Tracé 37212" d="M454.711,175.916a7.674,7.674,0,0,1-12.635,5.457l.253.957c.984-5.041.25-10.094-.417-15.123-.579-4.363-1.088-8.9-.1-13.243a15.723,15.723,0,0,1,2.667-5.924,24.589,24.589,0,0,1,4.638-4.535c3.78-2.971,7.829-5.636,11.835-8.289q3.168-2.1,6.369-4.145c1.936-1.246,3.846-2.566,5.845-3.709a9.054,9.054,0,0,1,5.1-1.538c1.892.191,2.733,1.968,2.3,3.712-.485,1.968-2.195,3.293-3.759,4.422-2.07,1.495-4.158,2.966-6.237,4.449-3.959,2.821-8.019,5.547-11.867,8.519a21.132,21.132,0,0,0-5.062,5.216,15.567,15.567,0,0,0-2.224,6.387c-.634,4.86.525,9.777,1.727,14.459a.985.985,0,0,0,1.9-.525c-1.115-4.35-2.217-8.892-1.721-13.415a13.779,13.779,0,0,1,2.018-5.915,19.494,19.494,0,0,1,4.773-4.83c4.075-3.1,8.336-5.98,12.506-8.953,2.079-1.482,4.212-2.913,6.231-4.478a8.953,8.953,0,0,0,3.667-5.051,4.944,4.944,0,0,0-1.725-5.084,5.96,5.96,0,0,0-5.157-.568,20.84,20.84,0,0,0-5.572,2.813q-3.2,2.044-6.4,4.106c-4.427,2.871-8.816,5.8-13.094,8.892-3.558,2.571-7.212,5.355-9.21,9.38-5.137,10.347,1.156,21.712-.936,32.448a.988.988,0,0,0,.253.957,9.642,9.642,0,0,0,16-6.849c.075-1.265-1.893-1.261-1.968,0" transform="translate(-151.144 -42.612)" fill="#016f67"/>
    <path id="Tracé_37213" data-name="Tracé 37213" d="M475.536,154.14a56.785,56.785,0,0,0,8.917,13.217.986.986,0,0,0,1.193.153l10.547-7.755a1.006,1.006,0,0,0,.353-1.346,92.414,92.414,0,0,0-7.74-10.823c-.809-.976-2.194.422-1.391,1.391a88.987,88.987,0,0,1,7.431,10.423l.353-1.346-10.547,7.755,1.192.153a54.966,54.966,0,0,1-8.611-12.816c-.552-1.139-2.25-.142-1.7.993" transform="translate(-163.575 -50.665)" fill="#016f67"/>
    <path id="Tracé_37214" data-name="Tracé 37214" d="M507.982,178.985l21.827,27.431c.787.99,2.172-.41,1.391-1.392l-21.829-27.43c-.787-.991-2.172.41-1.391,1.391" transform="translate(-174.696 -60.986)" fill="#016f67"/>
    <path id="Tracé_37215" data-name="Tracé 37215" d="M499.879,181.615l8.261,12.565c.692,1.054,2.4.066,1.7-.993q-4.129-6.283-8.26-12.565c-.693-1.054-2.4-.07-1.7.993" transform="translate(-171.932 -61.99)" fill="#016f67"/>
    <path id="Tracé_37216" data-name="Tracé 37216" d="M494.923,188.606l18.629,31.4,5.263,8.872a.984.984,0,0,0,1.7-.993l-18.629-31.4-5.267-8.872a.984.984,0,0,0-1.7.993" transform="translate(-170.236 -64.383)" fill="#016f67"/>
    <path id="Tracé_37217" data-name="Tracé 37217" d="M396.461,332.329q-11.531-.291-23.063-.552-13.32-.293-26.643-.5-13.964-.214-27.929-.283c-8.973-.037-17.947-.018-26.92.11-7.871.112-15.749.3-23.614.676q-1.3.062-2.594.131c-1.259.066-1.267,2.033,0,1.968,7.675-.414,15.359-.626,23.044-.758,8.877-.154,17.756-.192,26.631-.171q13.965.032,27.929.244,13.465.191,26.928.486,11.818.253,23.633.555l2.6.066a.985.985,0,0,0,0-1.968" transform="translate(-91.09 -113.875)" fill="#016f67"/>
    <path id="Tracé_37218" data-name="Tracé 37218" d="M322.764,325.712l-.328,8.926c-.047,1.266,1.921,1.264,1.968,0l.328-8.926c.047-1.267-1.921-1.265-1.968,0" transform="translate(-110.937 -111.738)" fill="#016f67"/>
    <path id="Tracé_37219" data-name="Tracé 37219" d="M308.947,321.676l-.5,14.882c-.043,1.267,1.925,1.265,1.968,0l.5-14.882c.043-1.267-1.925-1.265-1.968,0" transform="translate(-106.125 -110.349)" fill="#016f67"/>
    <path id="Tracé_37220" data-name="Tracé 37220" d="M285.571,320.674q.165,7.6.328,15.207a.984.984,0,0,0,1.968,0q-.165-7.6-.328-15.207a.984.984,0,0,0-1.968,0" transform="translate(-98.253 -110.004)" fill="#016f67"/>
    <path id="Tracé_37221" data-name="Tracé 37221" d="M274.049,325.694v9.257a.984.984,0,0,0,1.968,0v-9.257a.984.984,0,0,0-1.968,0" transform="translate(-94.289 -111.72)" fill="#016f67"/>
    <path id="Tracé_37222" data-name="Tracé 37222" d="M341.68,328.674c-.071-.459-.009.013,0,.169.014.245.023.491.032.737.026.71.045,1.419.066,2.129.041,1.562.073,3.125.131,4.687a13.211,13.211,0,0,0,.106,1.536.991.991,0,0,0,1.21.687,1.009,1.009,0,0,0,.687-1.21c.071.459.009-.013,0-.169-.014-.245-.023-.491-.032-.737-.026-.71-.045-1.419-.066-2.129-.041-1.562-.073-3.126-.131-4.687a13.2,13.2,0,0,0-.106-1.536.99.99,0,0,0-1.21-.687,1.008,1.008,0,0,0-.687,1.21" transform="translate(-117.547 -112.656)" fill="#016f67"/>
    <path id="Tracé_37223" data-name="Tracé 37223" d="M360.857,324.7q.152,4.794.3,9.587c.041,1.264,2.008,1.269,1.968,0q-.152-4.793-.3-9.587c-.04-1.264-2.008-1.269-1.968,0" transform="translate(-124.156 -111.39)" fill="#016f67"/>
    <path id="Tracé_37224" data-name="Tracé 37224" d="M385.34,322.69q.165,7.77.328,15.538a.985.985,0,0,0,1.968,0q-.165-7.769-.328-15.538a.985.985,0,0,0-1.968,0" transform="translate(-132.58 -110.698)" fill="#016f67"/>
    <path id="Tracé_37225" data-name="Tracé 37225" d="M409.118,325.191v10.248a.984.984,0,1,0,1.968,0V325.191a.984.984,0,1,0-1.968,0" transform="translate(-140.761 -111.547)" fill="#016f67"/>
    <path id="Tracé_37226" data-name="Tracé 37226" d="M432,326.191l.262,7.275a.984.984,0,1,0,1.968,0l-.262-7.275a.984.984,0,0,0-1.968,0" transform="translate(-148.633 -111.891)" fill="#016f67"/>
    <path id="Tracé_37227" data-name="Tracé 37227" d="M450.9,325.441a53.517,53.517,0,0,0-1.027,14.807c.09,1.256,2.058,1.266,1.968,0a51.592,51.592,0,0,1,.957-14.284c.262-1.236-1.637-1.764-1.9-.525" transform="translate(-154.738 -111.728)" fill="#016f67"/>
    <path id="Tracé_37228" data-name="Tracé 37228" d="M439.651,311.869q-69.887-3.083-139.846-4.085-69.59-1-139.19.072-39.255.6-78.5,1.862c-1.263.041-1.269,2.009,0,1.968q69.919-2.238,139.883-2.4,69.595-.157,139.179,1.747,39.245,1.075,78.469,2.806c1.266.056,1.263-1.912,0-1.968" transform="translate(-27.927 -105.731)" fill="#016f67"/>
    <path id="Tracé_37229" data-name="Tracé 37229" d="M629.007,316.1q1.086,8.377,2.173,16.753a1.017,1.017,0,0,0,.984.984.988.988,0,0,0,.984-.984q-1.086-8.376-2.173-16.753a1.017,1.017,0,0,0-.984-.984.989.989,0,0,0-.984.984" transform="translate(-216.416 -108.419)" fill="#016f67"/>
    <path id="Tracé_37230" data-name="Tracé 37230" d="M81.108,309.492a30.515,30.515,0,0,0-1.718,20.629.984.984,0,0,0,1.9-.525,28.37,28.37,0,0,1,1.519-19.113c.525-1.144-1.173-2.145-1.7-.993" transform="translate(-26.954 -106.308)" fill="#016f67"/>
    <path id="Tracé_37231" data-name="Tracé 37231" d="M192.717,327.336l-34.2-.131-34.2-.131q-9.655-.035-19.31-.073a.984.984,0,1,0,0,1.968l34.2.131,34.2.131q9.655.038,19.31.074a.984.984,0,1,0,0-1.968" transform="translate(-35.789 -112.508)" fill="#016f67"/>
    <path id="Tracé_37232" data-name="Tracé 37232" d="M565.756,332.043l-64.43-2.563-17.988-.716c-1.266-.05-1.264,1.918,0,1.968l64.43,2.564,17.988.716c1.267.051,1.264-1.917,0-1.968" transform="translate(-165.971 -113.114)" fill="#016f67"/>
    <path id="Tracé_37233" data-name="Tracé 37233" d="M603.6,325.725l7.075,21.591c.394,1.2,2.3.685,1.9-.525q-3.538-10.8-7.075-21.59c-.394-1.2-2.3-.685-1.9.525" transform="translate(-207.654 -111.654)" fill="#016f67"/>
    <path id="Tracé_37234" data-name="Tracé 37234" d="M589.113,328.537l5.591,16.357c.407,1.192,2.308.68,1.9-.525l-5.591-16.357c-.407-1.191-2.309-.68-1.9.525" transform="translate(-202.67 -112.623)" fill="#016f67"/>
    <path id="Tracé_37235" data-name="Tracé 37235" d="M548.372,329.8q1.316,5.291,2.632,10.582a.985.985,0,0,0,1.9-.525q-1.317-5.291-2.632-10.582a.985.985,0,0,0-1.9.525" transform="translate(-188.662 -113.049)" fill="#016f67"/>
    <path id="Tracé_37236" data-name="Tracé 37236" d="M504.027,331.8l3.116,11.011a.984.984,0,1,0,1.9-.525l-3.116-11.011a.984.984,0,0,0-1.9.525" transform="translate(-173.403 -113.729)" fill="#016f67"/>
    <path id="Tracé_37237" data-name="Tracé 37237" d="M215.238,331.24a23.265,23.265,0,0,1,0,4.928,44.035,44.035,0,0,1-.984,4.731c-.293,1.231,1.6,1.757,1.9.525a48.69,48.69,0,0,0,1.034-5.116,23.627,23.627,0,0,0,.017-5.063,1.01,1.01,0,0,0-.984-.984.991.991,0,0,0-.984.984" transform="translate(-73.706 -113.629)" fill="#016f67"/>
    <path id="Tracé_37238" data-name="Tracé 37238" d="M195.564,331.238c.35,3.45.309,6.923.659,10.373a1.012,1.012,0,0,0,.984.984.99.99,0,0,0,.984-.984c-.35-3.45-.309-6.923-.659-10.373a1.013,1.013,0,0,0-.984-.984.99.99,0,0,0-.984.984" transform="translate(-67.286 -113.627)" fill="#016f67"/>
    <path id="Tracé_37239" data-name="Tracé 37239" d="M137.881,325.76q1.653,10.156,3.307,20.312c.2,1.246,2.1.718,1.9-.525l-3.309-20.311c-.2-1.246-2.1-.718-1.9.525" transform="translate(-47.434 -111.656)" fill="#016f67"/>
    <path id="Tracé_37240" data-name="Tracé 37240" d="M113.76,325.861q1.594,9.249,3.189,18.5c.215,1.246,2.111.718,1.9-.525q-1.595-9.249-3.189-18.5c-.215-1.246-2.111-.717-1.9.525" transform="translate(-39.135 -111.69)" fill="#016f67"/>
    <path id="Tracé_37241" data-name="Tracé 37241" d="M95.322,326.219l.973,11.894c.1,1.253,2.071,1.264,1.968,0q-.486-5.947-.973-11.894c-.1-1.253-2.071-1.264-1.968,0" transform="translate(-32.795 -111.914)" fill="#016f67"/>
    <path id="Tracé_37242" data-name="Tracé 37242" d="M636.165,342.153l-6.171,3.526a.984.984,0,0,0,.993,1.7l6.171-3.526a.984.984,0,1,0-.993-1.7" transform="translate(-216.588 -117.675)" fill="#016f67"/>
    <path id="Tracé_37243" data-name="Tracé 37243" d="M72.926,339.822c1.312.651,2.579,1.416,3.916,2.019a20.847,20.847,0,0,0,4.369,1.274,1.008,1.008,0,0,0,1.21-.687.994.994,0,0,0-.687-1.21c-.849-.177-1.7-.359-2.534-.6-.3-.085-.59-.178-.882-.284-.112-.041-.223-.087-.335-.131-.207-.078.161.075-.022-.009l-.189-.085c-1.312-.6-2.558-1.349-3.853-1.99a1.008,1.008,0,0,0-1.346.353.993.993,0,0,0,.353,1.346" transform="translate(-24.924 -116.291)" fill="#016f67"/>
    <path id="Tracé_37244" data-name="Tracé 37244" d="M792.189,298.7,721.673,176.264l-20.24-35.144c-2.528-4.389-9.332-.429-6.8,3.972L765.15,267.531l20.24,35.145c2.528,4.388,9.332.429,6.8-3.973" transform="translate(-238.805 -47.896)" fill="#c6e2dd"/>
    <path id="Tracé_37245" data-name="Tracé 37245" d="M646.931,154.628a458.742,458.742,0,0,1-89.3,23c-4.991.762-2.871,8.347,2.092,7.59a458.741,458.741,0,0,0,89.3-23c4.714-1.735,2.676-9.345-2.092-7.59" transform="translate(-190.879 -53.112)" fill="#c6e2dd"/>
    <path id="Tracé_37246" data-name="Tracé 37246" d="M750.887,323.37c.087,20.459-.087,40.919,0,61.378.022,5.064,7.893,5.074,7.871,0-.087-20.459.087-40.918,0-61.378-.022-5.064-7.893-5.074-7.871,0" transform="translate(-258.342 -109.951)" fill="#c6e2dd"/>
    <path id="Tracé_37247" data-name="Tracé 37247" d="M714.592,304.431l2.427,58.051c.211,5.047,8.083,5.074,7.871,0l-2.427-58.051c-.211-5.047-8.083-5.074-7.871,0" transform="translate(-245.861 -103.437)" fill="#c6e2dd"/>
    <path id="Tracé_37248" data-name="Tracé 37248" d="M689.814,307.009q-.741,17.618-1.482,35.236c-.213,5.065,7.659,5.055,7.871,0q.741-17.618,1.482-35.236c.213-5.065-7.659-5.055-7.871,0" transform="translate(-236.826 -104.324)" fill="#c6e2dd"/>
    <path id="Tracé_37249" data-name="Tracé 37249" d="M640.63,266.573q.394,17.453.78,34.9c.114,5.057,7.985,5.075,7.871,0q-.39-17.453-.78-34.9c-.113-5.057-7.985-5.076-7.871,0" transform="translate(-220.415 -90.41)" fill="#c6e2dd"/>
    <path id="Tracé_37250" data-name="Tracé 37250" d="M614.853,261.984q.721,14.766,1.443,29.531c.247,5.042,8.12,5.072,7.871,0q-.721-14.765-1.443-29.531c-.247-5.042-8.12-5.072-7.871,0" transform="translate(-211.544 -88.833)" fill="#c6e2dd"/>
    <path id="Tracé_37251" data-name="Tracé 37251" d="M587.278,243.552q-.307,6.546-.613,13.093c-.237,5.064,7.635,5.051,7.871,0l.613-13.093c.237-5.064-7.635-5.051-7.871,0" transform="translate(-201.846 -82.492)" fill="#c6e2dd"/>
    <path id="Tracé_37252" data-name="Tracé 37252" d="M568.767,233.272l1.01,6.712c.316,2.1,2.967,3.264,4.841,2.749,2.251-.619,3.066-2.731,2.749-4.841l-1.01-6.712c-.316-2.1-2.967-3.264-4.841-2.749-2.251.619-3.066,2.731-2.749,4.841" transform="translate(-195.668 -78.552)" fill="#c6e2dd"/>
    <path id="Tracé_37253" data-name="Tracé 37253" d="M689.894,252.006q-53.947-10.392-106.923-25.118c-4.888-1.358-6.974,6.231-2.093,7.591Q633.809,249.193,687.8,259.6c4.949.954,7.069-6.631,2.092-7.59" transform="translate(-198.901 -78.007)" fill="#c6e2dd"/>
    <path id="Tracé_37254" data-name="Tracé 37254" d="M649.268,137.78q-19.288,7.759-38.464,15.794c-12.2,5.084-24.385,10.2-36.6,15.235q-11.086,4.572-22.211,9.052c-1.16.466-.656,2.371.525,1.9Q571.8,172,590.98,163.965c12.2-5.084,24.385-10.2,36.6-15.236q11.086-4.571,22.21-9.052c1.16-.467.656-2.371-.525-1.9" transform="translate(-189.693 -47.379)" fill="#016f67"/>
    <path id="Tracé_37255" data-name="Tracé 37255" d="M685.753,113.114l20.722,34.491L727.2,182.1q10.363,17.246,20.722,34.491t20.722,34.491q10.364,17.246,20.722,34.491l2.545,4.235a.984.984,0,0,0,1.7-.993q-10.363-17.246-20.722-34.491l-20.723-34.491q-10.363-17.246-20.722-34.491L710.72,150.848Q700.356,133.6,690,116.357l-2.545-4.235a.984.984,0,1,0-1.7.993" transform="translate(-235.894 -38.409)" fill="#016f67"/>
    <path id="Tracé_37256" data-name="Tracé 37256" d="M703.461,165.843q8.681,14.267,17.261,28.593t17.055,28.716q8.477,14.388,16.852,28.836Q762.96,266.366,771.2,280.8q8.272,14.507,16.44,29.073,1.026,1.829,2.051,3.659a.984.984,0,0,0,1.7-.993q-8.156-14.573-16.415-29.087t-16.621-28.97q-8.362-14.455-16.827-28.85-8.424-14.326-16.949-28.592-8.566-14.336-17.235-28.609l-2.18-3.585c-.656-1.08-2.361-.092-1.7.993" transform="translate(-241.981 -56.558)" fill="#016f67"/>
    <path id="Tracé_37257" data-name="Tracé 37257" d="M843.193,382.452a53.037,53.037,0,0,1-11.187,9.276c-1.075.665-.088,2.368.993,1.7a54.958,54.958,0,0,0,11.585-9.583c.853-.932-.533-2.327-1.391-1.391" transform="translate(-286.1 -131.48)" fill="#016f67"/>
    <path id="Tracé_37258" data-name="Tracé 37258" d="M619.128,252.721q-17.81-10.245-35.957-19.89-5.1-2.712-10.233-5.375c-1.122-.582-2.119,1.115-.993,1.7q18.235,9.47,36.142,19.547,5.037,2.835,10.045,5.717a.984.984,0,1,0,.993-1.7" transform="translate(-196.614 -78.217)" fill="#016f67"/>
    <path id="Tracé_37259" data-name="Tracé 37259" d="M692.6,295.613q-13.889-8.8-28.009-17.232-4.014-2.4-8.047-4.761a.984.984,0,1,0-.993,1.7q14.183,8.32,28.14,17.017,3.968,2.473,7.917,4.976c1.072.68,2.061-1.022.993-1.7" transform="translate(-225.38 -94.096)" fill="#016f67"/>
    <path id="Tracé_37260" data-name="Tracé 37260" d="M740.023,325.592q-5.041-3.35-10.115-6.652c-1.065-.693-2.052,1.01-.993,1.7q5.073,3.3,10.115,6.652c1.057.7,2.044-1,.993-1.7" transform="translate(-250.635 -109.679)" fill="#016f67"/>
    <path id="Tracé_37261" data-name="Tracé 37261" d="M809.484,374.176q-16.327-12.249-33.055-23.95-4.742-3.316-9.511-6.586c-1.05-.718-2.033.987-.993,1.7q16.836,11.539,33.282,23.634,4.657,3.429,9.288,6.9c1.013.76,2-.947.993-1.7" transform="translate(-263.372 -118.173)" fill="#016f67"/>
    <path id="Tracé_37262" data-name="Tracé 37262" d="M582.98,175.9l2.039,3.341a.984.984,0,1,0,1.7-.993l-2.039-3.341a.984.984,0,1,0-1.7.993" transform="translate(-200.534 -60.012)" fill="#016f67"/>
    <path id="Tracé_37263" data-name="Tracé 37263" d="M569.169,184.094l1.032,2.338a.982.982,0,0,0,.59.453,1,1,0,0,0,.758-.1.99.99,0,0,0,.452-.59l.035-.262a.98.98,0,0,0-.134-.5l-1.032-2.338a.979.979,0,0,0-.59-.452,1,1,0,0,0-.758.1.99.99,0,0,0-.452.59l-.035.262a.976.976,0,0,0,.131.5" transform="translate(-195.782 -62.829)" fill="#016f67"/>
    <path id="Tracé_37264" data-name="Tracé 37264" d="M562.984,188.724l.671,1.007a.744.744,0,0,0,.254.276,1.017,1.017,0,0,0,1.093.077.99.99,0,0,0,.452-.59l.035-.262a.976.976,0,0,0-.131-.5l-.672-1.007a.945.945,0,0,0-.98-.47.729.729,0,0,0-.366.117.992.992,0,0,0-.452.59l-.035.262a.971.971,0,0,0,.134.5" transform="translate(-193.655 -64.424)" fill="#016f67"/>
    <path id="Tracé_37265" data-name="Tracé 37265" d="M609.552,158.018l2.349,5.37a.984.984,0,0,0,1.346.353,1.013,1.013,0,0,0,.353-1.346l-2.35-5.37a.984.984,0,0,0-1.346-.353,1.013,1.013,0,0,0-.353,1.346" transform="translate(-209.68 -53.858)" fill="#016f67"/>
    <path id="Tracé_37266" data-name="Tracé 37266" d="M636.972,105.471q-16.992,11.735-34.131,23.255-16.432,11.086-32.855,22.189-9.818,6.671-19.588,13.411c-1.035.715-.052,2.422.993,1.7q16.989-11.734,34.13-23.254,16.432-11.086,32.855-22.189,9.818-6.671,19.588-13.413c1.035-.714.052-2.421-.993-1.7" transform="translate(-189.219 -36.228)" fill="#016f67"/>
    <path id="Tracé_37267" data-name="Tracé 37267" d="M548.33,194.926l8.755,20.639a.991.991,0,0,0,1.346.352,1.009,1.009,0,0,0,.354-1.346l-8.755-20.636a.99.99,0,0,0-1.346-.353,1.008,1.008,0,0,0-.353,1.346" transform="translate(-188.615 -66.559)" fill="#016f67"/>
    <path id="Tracé_37268" data-name="Tracé 37268" d="M650.213,163.079q-18.289,6.795-37.069,12.149-18.839,5.364-38.061,9.234-10.788,2.171-21.664,3.862c-1.246.2-.718,2.09.525,1.9q19.278-3,38.281-7.5,19.059-4.519,37.722-10.53,10.474-3.375,20.79-7.211c1.177-.438.668-2.34-.525-1.9" transform="translate(-190.165 -56.086)" fill="#016f67"/>
    <path id="Tracé_37269" data-name="Tracé 37269" d="M625.221,189.039Q632.9,202,640.578,214.959q8.541,14.414,17.081,28.829l8.074,13.625a.984.984,0,0,0,1.7-.993q-7.681-12.958-15.359-25.919l-17.079-28.829-8.076-13.627a.984.984,0,1,0-1.7.993" transform="translate(-215.067 -64.531)" fill="#016f67"/>
    <path id="Tracé_37270" data-name="Tracé 37270" d="M684.907,247.176c-14.306-3.459-28.669-6.677-42.988-10.08-16.441-3.908-32.834-8.023-49.085-12.66q-14.452-4.125-28.718-8.861c-1.2-.4-1.72,1.5-.525,1.9,16.739,5.6,33.722,10.435,50.807,14.853,15.571,4.027,31.231,7.693,46.9,11.327,7.7,1.786,15.4,3.566,23.089,5.423,1.231.3,1.756-1.6.525-1.9" transform="translate(-193.676 -74.152)" fill="#016f67"/>
    <path id="Tracé_37271" data-name="Tracé 37271" d="M761.032,317.684c-.054,18.334.1,36.667-.015,55.005q-.041,6.845-.156,13.688a.985.985,0,0,0,1.968,0c.325-17.727.184-35.462.163-53.192q-.009-7.751.008-15.5a.984.984,0,0,0-1.968,0" transform="translate(-261.782 -108.964)" fill="#016f67"/>
    <path id="Tracé_37272" data-name="Tracé 37272" d="M747.777,304.9c.54,19.749.869,39.534.1,59.281-.2,5.07-.476,10.137-.88,15.194-.1,1.263,1.867,1.256,1.968,0,1.532-19.157,1.48-38.438,1.158-57.643q-.141-8.417-.378-16.833a.984.984,0,0,0-1.968,0" transform="translate(-257.01 -104.578)" fill="#016f67"/>
    <path id="Tracé_37273" data-name="Tracé 37273" d="M713.645,286.3l.412,54.234q.058,7.674.117,15.355a.984.984,0,1,0,1.968,0q-.206-27.117-.412-54.233l-.117-15.356a.984.984,0,0,0-1.968,0" transform="translate(-245.537 -98.166)" fill="#016f67"/>
    <path id="Tracé_37274" data-name="Tracé 37274" d="M724.025,301.334q.778,23.629.209,47.275-.161,6.683-.432,13.362c-.05,1.267,1.917,1.264,1.968,0q.952-23.622.558-47.272-.113-6.684-.335-13.365c-.041-1.263-2.01-1.269-1.968,0" transform="translate(-249.031 -103.35)" fill="#016f67"/>
    <path id="Tracé_37275" data-name="Tracé 37275" d="M698.846,309.7a256.741,256.741,0,0,1-.853,29.374c-.267,3.075-.565,6.146-.87,9.217-.125,1.259,1.843,1.251,1.968,0,.968-9.761,1.814-19.523,1.848-29.339.011-3.083-.04-6.166-.126-9.253a.985.985,0,0,0-1.968,0" transform="translate(-239.851 -106.229)" fill="#016f67"/>
    <path id="Tracé_37276" data-name="Tracé 37276" d="M691,297.583q.7,20.811-.683,41.616c-.085,1.264,1.884,1.259,1.968,0q1.381-20.776.683-41.616c-.043-1.263-2.01-1.269-1.968,0" transform="translate(-237.51 -102.06)" fill="#016f67"/>
    <path id="Tracé_37277" data-name="Tracé 37277" d="M649.775,262.118q.637,17.01,1.273,34.019.18,4.8.359,9.6c.047,1.262,2.016,1.269,1.968,0L652.1,271.722q-.18-4.8-.359-9.6c-.047-1.263-2.015-1.269-1.968,0" transform="translate(-223.561 -89.858)" fill="#016f67"/>
    <path id="Tracé_37278" data-name="Tracé 37278" d="M643.454,274.7c.05,11.859-.05,23.719,0,35.578a.984.984,0,0,0,1.968,0c-.05-11.859.05-23.719,0-35.578a.984.984,0,0,0-1.968,0" transform="translate(-221.382 -94.175)" fill="#016f67"/>
    <path id="Tracé_37279" data-name="Tracé 37279" d="M634.5,264.459a285.876,285.876,0,0,0,1.766,30.649c.131,1.246,2.1,1.26,1.968,0a285.86,285.86,0,0,1-1.766-30.649.984.984,0,0,0-1.968,0" transform="translate(-218.307 -90.651)" fill="#016f67"/>
    <path id="Tracé_37280" data-name="Tracé 37280" d="M625.251,258.608a91.739,91.739,0,0,0-.465,13.55c.176,4.533.612,9.052.978,13.571.1,1.254,2.07,1.264,1.968,0-.366-4.52-.8-9.039-.978-13.571a91.731,91.731,0,0,1,.465-13.55c.138-1.257-1.831-1.246-1.968,0" transform="translate(-214.939 -88.654)" fill="#016f67"/>
    <path id="Tracé_37281" data-name="Tracé 37281" d="M616.834,253.91c.18,8.353.444,16.7.624,25.057a.984.984,0,0,0,1.968,0c-.18-8.353-.444-16.7-.624-25.057a.984.984,0,0,0-1.968,0" transform="translate(-212.228 -87.033)" fill="#016f67"/>
    <path id="Tracé_37282" data-name="Tracé 37282" d="M607.491,248.4c.154,7.543-.6,15.087.192,22.618.131,1.246,2.1,1.26,1.968,0-.8-7.529-.037-15.072-.192-22.618a.985.985,0,0,0-1.968,0" transform="translate(-208.952 -85.138)" fill="#016f67"/>
    <path id="Tracé_37283" data-name="Tracé 37283" d="M596.58,242.122c.073,6.079.055,12.158.131,18.235a.984.984,0,0,0,1.968,0c-.073-6.079-.055-12.158-.131-18.235a.984.984,0,0,0-1.968,0" transform="translate(-205.259 -82.966)" fill="#016f67"/>
    <path id="Tracé_37284" data-name="Tracé 37284" d="M589.089,238.8c.056,5.1.373,10.188.378,15.283a.984.984,0,1,0,1.968,0c-.005-5.1-.322-10.189-.378-15.283a.984.984,0,1,0-1.968,0" transform="translate(-202.682 -81.822)" fill="#016f67"/>
    <path id="Tracé_37285" data-name="Tracé 37285" d="M580.716,234.038c.073,4.643.18,9.286.255,13.929a.985.985,0,0,0,1.968,0c-.074-4.643-.181-9.285-.255-13.929a.985.985,0,0,0-1.968,0" transform="translate(-199.801 -80.196)" fill="#016f67"/>
    <path id="Tracé_37286" data-name="Tracé 37286" d="M572.99,229.61a45.976,45.976,0,0,0,.083,8.993,1.012,1.012,0,0,0,.984.984.99.99,0,0,0,.984-.984,45.986,45.986,0,0,1-.083-8.993.99.99,0,0,0-.984-.984,1.006,1.006,0,0,0-.984.984" transform="translate(-197.081 -78.661)" fill="#016f67"/>
    <path id="Tracé_37287" data-name="Tracé 37287" d="M566.771,225.919v7.609a.984.984,0,1,0,1.968,0v-7.609a.984.984,0,1,0-1.968,0" transform="translate(-195.003 -77.391)" fill="#016f67"/>
    <path id="Tracé_37288" data-name="Tracé 37288" d="M709.276,269.667l-40.092-12.856-39.936-12.8-22.619-7.252c-1.209-.388-1.727,1.509-.525,1.9L646.2,251.508l39.936,12.8,22.62,7.252c1.208.388,1.726-1.509.525-1.9" transform="translate(-208.302 -81.44)" fill="#016f67"/>
    <path id="Tracé_37289" data-name="Tracé 37289" d="M597.088,199.583a247.774,247.774,0,0,1,16.065,30.333c.513,1.155,2.209.155,1.7-.993a247.88,247.88,0,0,0-16.066-30.333c-.667-1.073-2.37-.087-1.7.993" transform="translate(-205.381 -68.168)" fill="#016f67"/>
    <path id="Tracé_37290" data-name="Tracé 37290" d="M577.87,204.553l8.658,14.36a.984.984,0,0,0,1.7-.993l-8.658-14.36a.984.984,0,0,0-1.7.993" transform="translate(-198.776 -69.869)" fill="#016f67"/>
    <path id="Tracé_37291" data-name="Tracé 37291" d="M563.494,207.653l3.133,5.37a.984.984,0,0,0,1.7-.993l-3.133-5.371a.984.984,0,1,0-1.7.994" transform="translate(-193.83 -70.936)" fill="#016f67"/>
    <path id="Tracé_37292" data-name="Tracé 37292" d="M958.108,275.973c-7.617,4.54-11.453,13.369-10.772,22.08.689,8.809,4.9,19.271,12.355,24.5,7.2,5.051,17.386,2.714,22.274-4.424,4.965-7.251,3.377-18.612-3.9-23.766-3.841-2.72-9.505-3.024-13.07.394a8.491,8.491,0,0,0-.249,12.006l.075.077c3.536,3.64,9.1-1.929,5.566-5.566-.635-.656.394-1.071.949-1.181,1.327-.258,2.646.91,3.4,1.817a10.382,10.382,0,0,1,2.094,8.265c-1.032,6.035-8.094,9.455-13.136,5.587-4.823-3.7-7.793-11.3-8.446-17.155-.681-6.112,1.345-12.569,6.83-15.838,4.347-2.591.394-9.4-3.973-6.8" transform="translate(-325.914 -94.751)" fill="#c6e2dd"/>
    <path id="Tracé_37293" data-name="Tracé 37293" d="M833.295,244.287q.14,11.237,1.273,22.417c.506,4.991,8.383,5.044,7.871,0q-1.133-11.181-1.273-22.417c-.066-5.061-7.937-5.075-7.871,0" transform="translate(-286.703 -82.742)" fill="#c6e2dd"/>
    <path id="Tracé_37294" data-name="Tracé 37294" d="M808.006,251.737q.488,10.44.977,20.881c.236,5.043,8.109,5.072,7.871,0q-.488-10.44-.977-20.881c-.236-5.044-8.109-5.072-7.871,0" transform="translate(-278.001 -85.308)" fill="#c6e2dd"/>
    <path id="Tracé_37295" data-name="Tracé 37295" d="M852.786,177.294l-.628.222c-2.21.787-3.9,3.546-2.352,5.781,1.326,1.915.984,4.007.71,6.231-.334,2.7-.737,5.394-1.107,8.089-.291,2.122.514,4.2,2.748,4.841,1.837.525,4.553-.645,4.842-2.748.863-6.3,3.56-14.671-.4-20.383l-2.352,5.781.627-.223c4.741-1.682,2.7-9.289-2.092-7.59" transform="translate(-292.178 -60.916)" fill="#c6e2dd"/>
    <path id="Tracé_37296" data-name="Tracé 37296" d="M903.3,191.218a3.625,3.625,0,0,1-2.727-.135c-2.213-.772-5.287,1.323-4.982,3.8q1.615,13.109,1.92,26.316c.1,4.229,7.064,5.6,7.73,1.05q1.635-11.173,3.271-22.345l-7.731-1.049a271.992,271.992,0,0,0,1.078,41.379c.506,4.929,8.024,5.162,7.871,0q-.4-13.507-.8-27.014h-7.871q.913,12.414,1.828,24.828c.266,3.612.748,7.368.072,10.96-.687,3.652-2.374,7.093-3.726,10.529h7.591c-1.594-7.629,1.077-15.3.777-22.966-.243-6.2-2.052-12.463-6.887-16.635-2.493-2.153-6.734-.811-6.719,2.783a21.8,21.8,0,0,0,3.852,12.5c2.867,4.132,9.693.2,6.8-3.973a14.508,14.508,0,0,1-2.777-8.527l-6.718,2.782c4.329,3.739,4.862,9.5,4.522,14.907-.452,7.192-1.94,14.037-.439,21.221.874,4.182,6.306,3.263,7.59,0,1.359-3.455,2.977-6.872,3.725-10.528a42.683,42.683,0,0,0,.3-11.779q-.955-13.054-1.921-26.1c-.368-4.993-8.023-5.116-7.871,0q.4,13.507.8,27.014h7.871a272.055,272.055,0,0,1-1.078-41.379c.218-4.348-7.084-5.479-7.731-1.049l-3.271,22.345,7.731,1.05q-.305-13.205-1.92-26.316l-4.985,3.8a11,11,0,0,0,6.912.134c4.86-1.4,2.793-8.994-2.092-7.59" transform="translate(-307.588 -65.688)" fill="#c6e2dd"/>
    <path id="Tracé_37297" data-name="Tracé 37297" d="M960.874,191.265q-22.963,1.3-45.97.954c-5.067-.077-5.068,7.794,0,7.871q23,.351,45.97-.954c5.036-.286,5.069-8.159,0-7.871" transform="translate(-313.474 -65.804)" fill="#c6e2dd"/>
    <path id="Tracé_37298" data-name="Tracé 37298" d="M982.331,200.279q.222,19.1.445,38.193c.059,5.061,7.931,5.075,7.871,0q-.222-19.1-.445-38.193c-.059-5.061-7.93-5.075-7.871,0" transform="translate(-337.981 -67.6)" fill="#c6e2dd"/>
    <path id="Tracé_37299" data-name="Tracé 37299" d="M1022.789,270.17a34.508,34.508,0,0,1,10.474,28.357c-.213,2.006-.411,5.392-2.051,6.8-1.837,1.574-5.707,1.716-7.951,2.176q-10.167,2.084-20.411,3.73c-4.985.808-2.871,8.4,2.092,7.59,8.377-1.358,16.854-2.709,25.1-4.723,3.046-.743,5.958-1.963,7.884-4.54s2.526-5.893,2.956-9.013a42.255,42.255,0,0,0-12.529-35.946c-3.656-3.508-9.229,2.05-5.566,5.566" transform="translate(-344.061 -90.655)" fill="#c6e2dd"/>
    <path id="Tracé_37300" data-name="Tracé 37300" d="M909.662,165.974l-34.79,1.64c-1.261.059-1.268,2.027,0,1.968l34.79-1.64c1.261-.06,1.268-2.027,0-1.968" transform="translate(-300.682 -57.105)" fill="#016f67"/>
    <path id="Tracé_37301" data-name="Tracé 37301" d="M928.207,166.957q-.314,1.7-.627,3.4a1.056,1.056,0,0,0,.1.758.984.984,0,0,0,1.8-.235l.628-3.4a1.062,1.062,0,0,0-.1-.758.984.984,0,0,0-1.8.235" transform="translate(-319.133 -57.194)" fill="#016f67"/>
    <path id="Tracé_37302" data-name="Tracé 37302" d="M905.254,173.95l-33.562,1.421-9.659.409c-1.261.054-1.268,2.022,0,1.968l33.562-1.421,9.659-.409c1.261-.053,1.269-2.022,0-1.968" transform="translate(-296.265 -59.849)" fill="#016f67"/>
    <path id="Tracé_37303" data-name="Tracé 37303" d="M862.168,167.861q-.444,2.886-.888,5.772a1.009,1.009,0,0,0,.687,1.21.994.994,0,0,0,1.21-.687q.445-2.886.889-5.772a1.011,1.011,0,0,0-.687-1.211,1,1,0,0,0-1.21.687" transform="translate(-296.322 -57.506)" fill="#016f67"/>
    <path id="Tracé_37304" data-name="Tracé 37304" d="M858.865,175.882l-4-2.367a.984.984,0,0,0-.993,1.7l4,2.367a.984.984,0,1,0,.993-1.7" transform="translate(-293.615 -59.653)" fill="#016f67"/>
    <path id="Tracé_37305" data-name="Tracé 37305" d="M860.891,166.235h-3.4a.984.984,0,0,0,0,1.968h3.4a.984.984,0,0,0,0-1.968" transform="translate(-294.688 -57.195)" fill="#016f67"/>
    <path id="Tracé_37306" data-name="Tracé 37306" d="M851.867,166.317l.01,5.33a.984.984,0,0,0,1.968,0l-.01-5.33a.984.984,0,0,0-1.968,0" transform="translate(-293.093 -56.884)" fill="#016f67"/>
    <path id="Tracé_37307" data-name="Tracé 37307" d="M921.839,177.15l.02,6.366a.984.984,0,1,0,1.968,0l-.02-6.366a.984.984,0,1,0-1.968,0" transform="translate(-317.168 -60.612)" fill="#016f67"/>
    <path id="Tracé_37308" data-name="Tracé 37308" d="M958.178,186.716q-24.795,1.156-49.629.255-7.018-.257-14.028-.679c-1.265-.075-1.26,1.892,0,1.968q24.779,1.486,49.623.918,7.018-.163,14.037-.492c1.261-.059,1.268-2.027,0-1.968" transform="translate(-307.443 -64.095)" fill="#016f67"/>
    <path id="Tracé_37309" data-name="Tracé 37309" d="M963.112,263.072A34.76,34.76,0,0,0,950.26,313.3c2.787,4.2,6.564,8.083,11.185,10.227a16.312,16.312,0,0,0,14.007.009,20.073,20.073,0,0,0,9.774-10.2,28.33,28.33,0,0,0,1.594-15.725c-1.519-9.457-6.9-18.711-15.188-23.752a26.359,26.359,0,0,0-3.154-1.631c-1.149-.5-2.152,1.193-.993,1.7,8.265,3.608,13.992,11.388,16.468,19.905,2.64,9.081,1.7,20.328-6.546,26.273a14.762,14.762,0,0,1-12.622,2.583c-4.584-1.282-8.4-4.619-11.3-8.28a32.789,32.789,0,0,1,5.153-46.084q1.253-1,2.6-1.877c.929-.609,1.889-1.166,2.874-1.68,1.123-.586.131-2.285-.993-1.7" transform="translate(-324.914 -90.471)" fill="#016f67"/>
    <path id="Tracé_37310" data-name="Tracé 37310" d="M975.882,264.653l37.444-1.571,10.744-.451c1.262-.053,1.269-2.021,0-1.968l-37.443,1.571-10.745.451c-1.261.053-1.269,2.021,0,1.968" transform="translate(-335.436 -89.684)" fill="#016f67"/>
    <path id="Tracé_37311" data-name="Tracé 37311" d="M1041.8,261.4a39.96,39.96,0,0,1,13.883,18.314,39.483,39.483,0,0,1,1.126,23.741,40,40,0,0,1-5.824,12.633c-.721,1.043.984,2.027,1.7.993a42.079,42.079,0,0,0,7.412-24.477,41.364,41.364,0,0,0-7.629-23.128,42.132,42.132,0,0,0-9.672-9.773c-1.027-.745-2.01.962-.993,1.7" transform="translate(-358.296 -89.291)" fill="#016f67"/>
    <path id="Tracé_37312" data-name="Tracé 37312" d="M1039.063,335.476l-32.169,7.425-9.237,2.132c-1.234.285-.711,2.182.525,1.9l32.169-7.425,9.236-2.132c1.234-.285.712-2.182-.525-1.9" transform="translate(-343.012 -115.414)" fill="#016f67"/>
    <path id="Tracé_37313" data-name="Tracé 37313" d="M963.879,287.83a9.484,9.484,0,0,0-6.266,6.035c-1.335,3.515-.734,7.512.3,11.02,1.844,6.273,5.983,12.452,12.976,13.283a9.712,9.712,0,0,0,8.308-2.848,11.217,11.217,0,0,0,2.777-7.539c.033-5.748-4.533-12.553-10.929-11.823-3.109.355-6.181,2.624-6.38,5.941-.184,3.057,2.209,6.147,5.374,6.166a.984.984,0,0,0,0-1.968c-2.092-.014-3.576-2.23-3.406-4.2.2-2.276,2.527-3.784,4.634-4,5.138-.52,8.683,5.11,8.74,9.662a9.338,9.338,0,0,1-1.992,6.13,7.7,7.7,0,0,1-6.51,2.565c-5.731-.374-9.445-5.379-11.207-10.386-1.124-3.2-1.968-6.822-1.181-10.188a7.757,7.757,0,0,1,5.287-5.957.984.984,0,0,0-.525-1.9" transform="translate(-329.212 -99.017)" fill="#016f67"/>
    <path id="Tracé_37314" data-name="Tracé 37314" d="M992.731,195.453q.695,20.426,1.39,40.851c.043,1.263,2.011,1.269,1.968,0q-.695-20.426-1.39-40.851c-.043-1.263-2.011-1.269-1.968,0" transform="translate(-341.559 -66.921)" fill="#016f67"/>
    <path id="Tracé_37315" data-name="Tracé 37315" d="M966.744,202.776a253.509,253.509,0,0,0-34.862.939c-1.25.12-1.262,2.089,0,1.968a253.509,253.509,0,0,1,34.862-.939c1.266.053,1.264-1.915,0-1.968" transform="translate(-320.299 -69.691)" fill="#016f67"/>
    <path id="Tracé_37316" data-name="Tracé 37316" d="M970.03,226.848l-33.753-.715a.985.985,0,0,0,0,1.968l33.753.715a.985.985,0,0,0,0-1.968" transform="translate(-321.809 -77.803)" fill="#016f67"/>
    <path id="Tracé_37317" data-name="Tracé 37317" d="M967.779,249.065l-33.545,2.5c-1.255.093-1.265,2.062,0,1.968l33.545-2.5c1.255-.094,1.265-2.062,0-1.968" transform="translate(-321.107 -85.692)" fill="#016f67"/>
    <path id="Tracé_37318" data-name="Tracé 37318" d="M893.306,190.012A190.46,190.46,0,0,0,895.3,217.1l.452-1.111L893,217.487a5.3,5.3,0,0,0-1.3.752,1.935,1.935,0,0,0-.328,1.319,30.7,30.7,0,0,0,.111,6.34c.491,3.353,2.213,6.734,5.375,8.265l-.487-.853-.466,8.145c-.153,2.671-.472,5.391-.43,8.068.032,1.976.847,3.8,2.827,4.447a4.227,4.227,0,0,0,4.575-1.217c.777-.984-.606-2.384-1.392-1.391a2.349,2.349,0,0,1-3.172.448c-1.4-1-.831-3.542-.749-4.976q.387-6.761.774-13.522a.961.961,0,0,0-.487-.853c-5.016-2.432-4.769-8.822-4.472-13.531q-.244.424-.487.849l3.853-2.093a1.017,1.017,0,0,0,.452-1.111,186.736,186.736,0,0,1-1.923-26.566.984.984,0,1,0-1.968,0" transform="translate(-306.647 -65.036)" fill="#016f67"/>
    <path id="Tracé_37319" data-name="Tracé 37319" d="M914.9,193.09l4.008,41.849q.569,5.944,1.139,11.888c.12,1.246,2.089,1.262,1.968,0l-4.008-41.849q-.57-5.943-1.139-11.887c-.119-1.246-2.089-1.262-1.968,0" transform="translate(-314.78 -66.111)" fill="#016f67"/>
    <path id="Tracé_37320" data-name="Tracé 37320" d="M946.816,273.849a184.945,184.945,0,0,1-18.673,1.549c-1.263.041-1.269,2.009,0,1.968a184.945,184.945,0,0,0,18.673-1.549,1.018,1.018,0,0,0,.984-.984.989.989,0,0,0-.984-.984" transform="translate(-319.01 -94.221)" fill="#016f67"/>
    <path id="Tracé_37321" data-name="Tracé 37321" d="M940.307,284.357q-7.943.646-15.822,1.871c-1.246.193-.722,2.09.525,1.9q7.615-1.181,15.3-1.8c1.254-.1,1.264-2.071,0-1.968" transform="translate(-317.833 -97.835)" fill="#016f67"/>
    <path id="Tracé_37322" data-name="Tracé 37322" d="M936.638,296.065l-12.219.546c-1.261.056-1.268,2.024,0,1.968l12.219-.546c1.261-.056,1.268-2.024,0-1.968" transform="translate(-317.729 -101.864)" fill="#016f67"/>
    <path id="Tracé_37323" data-name="Tracé 37323" d="M921.287,275.168a46.971,46.971,0,0,0-4.565,10.256c-.778,2.533-2.3,6.725.239,8.773.977.787,2.378-.6,1.392-1.391-.951-.765-.891-2.05-.691-3.156a34.355,34.355,0,0,1,1.227-4.552,44.776,44.776,0,0,1,4.1-8.936.984.984,0,1,0-1.7-.993" transform="translate(-315.005 -94.507)" fill="#016f67"/>
    <path id="Tracé_37324" data-name="Tracé 37324" d="M888.274,229.133,872.3,227.8c-1.262-.106-1.255,1.863,0,1.968l15.97,1.337c1.262.106,1.255-1.863,0-1.968" transform="translate(-299.8 -78.374)" fill="#016f67"/>
    <path id="Tracé_37325" data-name="Tracé 37325" d="M868.462,230.385a67.423,67.423,0,0,0-.758,16.98c.077,1.258,2.046,1.267,1.968,0a65.449,65.449,0,0,1,.688-16.456c.243-1.237-1.654-1.767-1.9-.525" transform="translate(-298.474 -79.022)" fill="#016f67"/>
    <path id="Tracé_37326" data-name="Tracé 37326" d="M890.17,257.208a30.344,30.344,0,0,1-9.511-.436,1.008,1.008,0,0,0-1.21.687.993.993,0,0,0,.687,1.21,32.009,32.009,0,0,0,10.036.506,1.013,1.013,0,0,0,.984-.984.99.99,0,0,0-.984-.984" transform="translate(-302.572 -88.334)" fill="#016f67"/>
    <path id="Tracé_37327" data-name="Tracé 37327" d="M868.085,256.832a12.115,12.115,0,0,1,3.785,6.117,27.136,27.136,0,0,1,.328,7.986c-.07,1.265,1.9,1.261,1.968,0a27.977,27.977,0,0,0-.459-8.765,13.978,13.978,0,0,0-4.226-6.729c-.939-.846-2.335.542-1.391,1.391" transform="translate(-298.567 -87.796)" fill="#016f67"/>
    <path id="Tracé_37328" data-name="Tracé 37328" d="M886.575,279.8a29.22,29.22,0,0,0-15.069.47.985.985,0,0,0,.525,1.9,27.149,27.149,0,0,1,14.022-.47c1.232.287,1.758-1.61.525-1.9" transform="translate(-299.614 -96.003)" fill="#016f67"/>
    <path id="Tracé_37329" data-name="Tracé 37329" d="M868.041,281.555a24.592,24.592,0,0,0-1.829,16.411c.3,1.236.856,2.48,2.341,2.38a4.254,4.254,0,0,0,2.83-2.046,11.884,11.884,0,0,0,2.243-6.483,11.706,11.706,0,0,0-2.151-7.427c-.739-1.013-2.447-.033-1.7.993a10.209,10.209,0,0,1,1.066,9.948,7.026,7.026,0,0,1-1.938,2.807,1.92,1.92,0,0,1-.4.223c-.154.087-.216.047-.186-.123-.175-.184-.219-.823-.276-1.07-.147-.646-.269-1.3-.355-1.957a22.84,22.84,0,0,1-.143-4.219,22.314,22.314,0,0,1,2.192-8.444c.55-1.135-1.147-2.134-1.7-.993" transform="translate(-297.804 -96.698)" fill="#016f67"/>
    <path id="Tracé_37330" data-name="Tracé 37330" d="M885.877,307.4a48.332,48.332,0,0,1-17.973,1.542c-1.259-.131-1.25,1.841,0,1.968a49.88,49.88,0,0,0,18.5-1.612.984.984,0,0,0-.525-1.9" transform="translate(-298.288 -105.752)" fill="#016f67"/>
    <path id="Tracé_37331" data-name="Tracé 37331" d="M895.109,281.809a35.315,35.315,0,0,1,2.279,16.128c-.116,1.26,1.852,1.252,1.968,0a36.643,36.643,0,0,0-2.35-16.652c-.456-1.166-2.361-.656-1.9.525" transform="translate(-307.947 -96.552)" fill="#016f67"/>
    <path id="Tracé_37332" data-name="Tracé 37332" d="M833.31,230.118a44.656,44.656,0,0,0-3.221,32.661,43.051,43.051,0,0,0,3.6,8.767,1,1,0,0,0,1.8-.235c1.555-4.175,3.587-8.237,4.077-12.713a70.99,70.99,0,0,0,.294-8.847,62.471,62.471,0,0,0-.865-9.766,8.371,8.371,0,0,0-.754-2.767,2.886,2.886,0,0,0-3.9-.966c-1.053.693-.066,2.4.993,1.7a.918.918,0,0,1,1.181.212c.122.125.122.273.212.6a23.823,23.823,0,0,1,.555,2.886,63.82,63.82,0,0,1,.62,9.533c-.021,4.1-.03,8.208-1.421,12.109-.9,2.521-1.953,4.985-2.886,7.5l1.8-.235a42.59,42.59,0,0,1-3.658-30.951,40.668,40.668,0,0,1,3.28-8.491c.586-1.122-1.115-2.117-1.7-.993" transform="translate(-285.011 -79.005)" fill="#016f67"/>
    <path id="Tracé_37333" data-name="Tracé 37333" d="M844.853,223.579a9.024,9.024,0,0,0-9.3,3.985c-.676,1.075,1.026,2.064,1.7.993a7.019,7.019,0,0,1,7.08-3.083,1.009,1.009,0,0,0,1.211-.687.994.994,0,0,0-.687-1.21" transform="translate(-287.426 -76.868)" fill="#016f67"/>
    <path id="Tracé_37334" data-name="Tracé 37334" d="M864.844,227.272a39.9,39.9,0,0,0-15.206-.67.992.992,0,0,0-.687,1.21,1.009,1.009,0,0,0,1.21.687,37.408,37.408,0,0,1,14.16.67c1.229.3,1.753-1.593.525-1.9" transform="translate(-292.078 -77.815)" fill="#016f67"/>
    <path id="Tracé_37335" data-name="Tracé 37335" d="M843.378,219.245q.328.226.65.465l.159.121c.12.09-.18-.143.022.018.1.083.209.166.312.251q.6.495,1.162,1.039t1.073,1.13q.263.3.514.613l.1.125c.161.2-.073-.1.018.022s.177.233.262.352a1.008,1.008,0,0,0,1.346.353.994.994,0,0,0,.353-1.346,20.594,20.594,0,0,0-4.979-4.841.988.988,0,0,0-1.346.353,1.008,1.008,0,0,0,.353,1.346" transform="translate(-290.008 -74.803)" fill="#016f67"/>
    <path id="Tracé_37336" data-name="Tracé 37336" d="M860.3,214.4a49.545,49.545,0,0,0-14.7,1.339c-1.229.3-.708,2.2.525,1.9a47.692,47.692,0,0,1,14.176-1.269c1.265.075,1.261-1.893,0-1.968" transform="translate(-290.697 -73.736)" fill="#016f67"/>
    <path id="Tracé_37337" data-name="Tracé 37337" d="M866.853,217.068a.984.984,0,1,0-.984-.984.984.984,0,0,0,.984.984" transform="translate(-297.911 -74.007)" fill="#016f67"/>
    <path id="Tracé_37338" data-name="Tracé 37338" d="M866.216,216.725l9.446,8.334a1.008,1.008,0,0,0,1.391,0,.994.994,0,0,0,0-1.392l-9.446-8.33a1.007,1.007,0,0,0-1.391,0,.993.993,0,0,0,0,1.391" transform="translate(-297.932 -73.993)" fill="#016f67"/>
    <path id="Tracé_37339" data-name="Tracé 37339" d="M884.886,188.114a26.578,26.578,0,0,0-7.487-.44,4.687,4.687,0,0,0-2.881,1.085,5.715,5.715,0,0,0-1.4,2.522c-.751,2.388-1.315,4.854-1.964,7.268l-2.015,7.5a.984.984,0,0,0,1.9.525q1.763-6.56,3.526-13.123a12.718,12.718,0,0,1,.8-2.549,2.37,2.37,0,0,1,2.169-1.268,24.869,24.869,0,0,1,6.829.38c1.237.237,1.767-1.66.525-1.9" transform="translate(-299.023 -64.54)" fill="#016f67"/>
    <path id="Tracé_37340" data-name="Tracé 37340" d="M861.977,178.862l-.445,26.648a.985.985,0,0,0,1.968,0l.445-26.648a.985.985,0,0,0-1.968,0" transform="translate(-296.419 -61.212)" fill="#016f67"/>
    <path id="Tracé_37341" data-name="Tracé 37341" d="M848.111,175.129q-.478,13.587-1.795,27.125c-.123,1.259,1.846,1.251,1.968,0q1.316-13.532,1.795-27.125c.045-1.267-1.923-1.265-1.968,0" transform="translate(-291.182 -59.928)" fill="#016f67"/>
    <path id="Tracé_37342" data-name="Tracé 37342" d="M839.069,179.955l-16.217.468c-1.263.036-1.268,2,0,1.968l16.217-.468c1.263-.037,1.269-2,0-1.968" transform="translate(-282.784 -61.915)" fill="#016f67"/>
    <path id="Tracé_37343" data-name="Tracé 37343" d="M818.061,183.091a8.791,8.791,0,0,1-.23,3.8,1,1,0,0,0,.452,1.111,7.874,7.874,0,0,0,3.98.787q-.424-.741-.853-1.48a3.835,3.835,0,0,0-.139,2.662,5.366,5.366,0,0,1,.478,2.257c-.163.7-1.13.735-1.705.732a7.132,7.132,0,0,0-3.345.426l1.443.59a7.381,7.381,0,0,1,.085-5.492,1.016,1.016,0,0,0-.353-1.347.991.991,0,0,0-1.346.353,9.373,9.373,0,0,0-.283,7.009,1,1,0,0,0,1.443.59c.918-.44,2.1-.083,3.077-.2a3.239,3.239,0,0,0,2.664-1.591,3.791,3.791,0,0,0,.049-2.778c-.172-.611-.659-1.586-.372-2.218s-.034-1.54-.853-1.48a5.871,5.871,0,0,1-2.986-.52q.225.556.452,1.111a11.136,11.136,0,0,0,.23-4.844.992.992,0,0,0-1.21-.687,1.006,1.006,0,0,0-.687,1.21" transform="translate(-280.649 -62.567)" fill="#016f67"/>
    <path id="Tracé_37344" data-name="Tracé 37344" d="M827.687,232.731c-3.677-.277-7.65-.422-10.721,1.968a6.873,6.873,0,0,0-2.646,4.223,12.865,12.865,0,0,0,.661,5.727,54.158,54.158,0,0,1,1.663,17.059,32.94,32.94,0,0,1-1.152,8.532c-.378,1.212,1.522,1.73,1.9.525a31.2,31.2,0,0,0,1.124-7.164,73.622,73.622,0,0,0,.049-8.684,51.981,51.981,0,0,0-.9-7.835c-.611-2.97-2.585-6.563-.774-9.453,2.23-3.558,7.2-3.2,10.8-2.925,1.263.1,1.257-1.873,0-1.968" transform="translate(-280.136 -80.022)" fill="#016f67"/>
    <path id="Tracé_37345" data-name="Tracé 37345" d="M810.448,242.6a54.691,54.691,0,0,0-2.479,15.328c-.1,2.6-.091,5.194-.058,7.789.028,2.289-.171,4.811.868,6.924a4.219,4.219,0,0,0,5.6,2.122c1.115-.6.123-2.3-.993-1.7a2.134,2.134,0,0,1-2.541-.81,6.126,6.126,0,0,1-.918-3.6c-.1-2.807-.1-5.627-.051-8.435a56.481,56.481,0,0,1,2.471-17.094c.4-1.2-1.5-1.721-1.9-.525" transform="translate(-277.962 -83.235)" fill="#016f67"/>
    <path id="Tracé_37346" data-name="Tracé 37346" d="M816.618,290.618a8.752,8.752,0,0,0,9.655-.2,1.013,1.013,0,0,0,.353-1.346.992.992,0,0,0-1.347-.353,6.817,6.817,0,0,1-7.669.2c-1.064-.694-2.051,1.01-.993,1.7" transform="translate(-280.81 -99.293)" fill="#016f67"/>
    <path id="Tracé_37347" data-name="Tracé 37347" d="M837.548,294.86A13.491,13.491,0,0,0,852.9,298.9a1.018,1.018,0,0,0,.688-1.21.99.99,0,0,0-1.211-.687,11.625,11.625,0,0,1-13.436-3.538.989.989,0,0,0-1.391,0,1.008,1.008,0,0,0,0,1.391" transform="translate(-288.071 -100.873)" fill="#016f67"/>
    <path id="Tracé_37348" data-name="Tracé 37348" d="M934.034,305.112a96.558,96.558,0,0,1-13.325-.342c-1.26-.119-1.252,1.849,0,1.968a96.553,96.553,0,0,0,13.325.342c1.261-.054,1.268-2.023,0-1.968" transform="translate(-316.455 -104.857)" fill="#016f67"/>
    <path id="Tracé_37349" data-name="Tracé 37349" d="M849.455,164.878a5.889,5.889,0,0,1-1.312.338l.262-.035a5.939,5.939,0,0,1-1.526,0l.262.035c-.094-.012-.187-.028-.28-.045l.687,1.21q.2-1.426.409-2.852a1.084,1.084,0,0,0-.1-.758.984.984,0,0,0-1.346-.353.945.945,0,0,0-.453.59q-.2,1.427-.409,2.853a1.058,1.058,0,0,0,.1.758.964.964,0,0,0,.59.452,6.776,6.776,0,0,0,3.642-.294,1.063,1.063,0,0,0,.59-.453.984.984,0,0,0-1.111-1.443" transform="translate(-290.945 -55.835)" fill="#016f67"/>
    <path id="Tracé_37350" data-name="Tracé 37350" d="M846.854,156.86c-.048.048-.1.092-.147.138-.161.153.18-.1-.013.005-.031.018-.254.177-.287.159l.115-.049c-.041.016-.082.03-.124.044-.062.021-.126.039-.19.054-.043.01-.087.017-.131.027-.109.018-.087.016.066-.007-.044.005-.089.009-.131.011a2.856,2.856,0,0,1-.335,0,.276.276,0,0,1-.066-.005c-.109-.01-.09-.007.06.011-.017.016-.175-.033-.2-.038a3.008,3.008,0,0,1-.328-.094l-.066-.024c-.1-.04-.085-.032.047.022-.049.007-.168-.084-.211-.108a1.223,1.223,0,0,1-.312-.2c.16.187.04.026-.009-.02-.033-.03-.066-.061-.1-.094s-.128-.11-.135-.15l.071.091c-.026-.035-.052-.073-.077-.111-.035-.053-.065-.108-.1-.164s-.14-.306-.047-.073a3.272,3.272,0,0,1-.127-.394c-.015-.062-.025-.123-.039-.184-.056-.244.005.213,0-.038-.005-.127-.014-.252-.011-.379,0-.077.01-.152.014-.228.012-.113.01-.1-.007.033.008-.051.017-.1.027-.151q.038-.189.094-.373c.024-.075.051-.146.076-.219.079-.235-.066.121.006-.014s.124-.253.2-.376c.04-.066.085-.131.126-.193.107-.172-.113.119.033-.047a4.1,4.1,0,0,1,.316-.333c.037-.034.076-.066.113-.1-.179.159,0,0,.041-.028a3.51,3.51,0,0,1,.359-.214c.056-.028.113-.055.171-.082-.232.11.069-.022.119-.037a3.288,3.288,0,0,1,.365-.1c.066-.013.27-.094.035-.012a.908.908,0,0,1,.223-.017,3.449,3.449,0,0,1,.368.009c.243.01-.207-.056.027.005.07.018.141.031.211.051a.7.7,0,0,1,.2.066c-.183-.141-.037-.012.026.022s.1.06.154.093.161.146.006,0c.056.053.114.1.167.158.028.03.178.237.052.051a2.794,2.794,0,0,1,.24.419c-.1-.214,0,.032.016.066.024.078.045.157.066.236.009.039.053.31.02.066.013.109.022.218.025.328a4.664,4.664,0,0,1-.02.5c.02-.244-.006.022-.014.066-.019.1-.041.192-.066.287a5.7,5.7,0,0,1-.2.6c-.014.035-.1.227-.032.082-.053.119-.11.238-.168.356-.19.384-.4.755-.617,1.126a.984.984,0,0,0,1.7.993c.894-1.553,1.777-3.333,1.2-5.163a3.321,3.321,0,0,0-1.635-2.014,3.855,3.855,0,0,0-2.476-.283,4.479,4.479,0,0,0-3.345,3.158,4.008,4.008,0,0,0,1.36,4.42,3.651,3.651,0,0,0,4.635-.249.984.984,0,0,0-1.366-1.416l-.025.025" transform="translate(-289.717 -51.896)" fill="#016f67"/>
    <path id="Tracé_37351" data-name="Tracé 37351" d="M921.439,160.525l-.131-3.574-1.68.7a2.653,2.653,0,0,0,2.619.607,3.26,3.26,0,0,0,1.963-1.882,4.416,4.416,0,0,0-.83-4.615,3.958,3.958,0,0,0-4.425-1.031,3.906,3.906,0,0,0-2.6,3.76,4.005,4.005,0,0,0,3.627,3.739.993.993,0,0,0,.984-.984,1,1,0,0,0-.984-.984,1.7,1.7,0,0,1-.984-.474,2.194,2.194,0,0,1-.619-1.034,1.775,1.775,0,0,1,.867-1.984,2.038,2.038,0,0,1,2.274-.043,2.54,2.54,0,0,1,1.057,2.144,1.915,1.915,0,0,1-.534,1.278.749.749,0,0,1-1.023.112,1,1,0,0,0-1.68.7q.066,1.787.131,3.574c.046,1.263,2.014,1.269,1.968,0" transform="translate(-315.282 -51.761)" fill="#016f67"/>
    <path id="Tracé_37352" data-name="Tracé 37352" d="M891.35,209.592l-4.062.02c-1.252.006-2.781-.15-3.509,1.115a3.985,3.985,0,0,0-.416,1.7c-.058.689-.109,1.377-.163,2.068l-.328,4.132a.992.992,0,0,0,.984.984,1,1,0,0,0,.984-.984q.145-1.829.289-3.659.072-.914.145-1.829a5.029,5.029,0,0,1,.17-1.353c-.039.111.084-.151.091-.157-.039.037-.047.047.022.017a1.048,1.048,0,0,1,.39-.057c.6-.024,1.207-.009,1.809-.012l3.593-.017a.984.984,0,0,0,0-1.968" transform="translate(-303.761 -72.111)" fill="#016f67"/>
    <path id="Tracé_37353" data-name="Tracé 37353" d="M1018.117,279.045a35.582,35.582,0,0,1,3.774,31.858c-.44,1.189,1.461,1.705,1.9.525a37.422,37.422,0,0,0-.371-26.491,36.471,36.471,0,0,0-3.6-6.882c-.7-1.049-2.407-.066-1.7.993" transform="translate(-350.236 -95.513)" fill="#016f67"/>
    <path id="Tracé_37354" data-name="Tracé 37354" d="M1039.629,279.6a35.917,35.917,0,0,1,7,21.477.984.984,0,0,0,1.968,0,37.7,37.7,0,0,0-7.269-22.471c-.742-1.009-2.451-.029-1.7.993" transform="translate(-357.63 -95.712)" fill="#016f67"/>
    <path id="Tracé_37355" data-name="Tracé 37355" d="M746.029,418.062c-7.617-9.461-20.421-14.159-32.384-12.612a33.763,33.763,0,0,0-9.755,2.786l.993,1.7c4.336-2.908,5.72-8.453,4.6-13.367-1.272-5.56-5.856-9.424-11.1-11.182a25.628,25.628,0,0,0-9.9-1.163.994.994,0,0,0-.984.984,3.844,3.844,0,0,0,4.316,3.306l.049-.007a4.285,4.285,0,0,0,3.516-4.756,6.067,6.067,0,0,0-4.307-5.164c-2.882-1.037-5.983-.262-8.828.5l1.21.687c-2.154-6.22-9.766-9.848-15.92-7.306-1.154.477-.649,2.382.525,1.9,5.116-2.112,11.665.632,13.5,5.932a1.006,1.006,0,0,0,1.21.687,15.9,15.9,0,0,1,6.369-.861,5.026,5.026,0,0,1,4.031,2.64c.489,1.171.348,3.066-.974,3.653-.929.413-2.608-.036-2.727-1.21l-.984.984c5.125-.36,10.71.656,14.763,4.008a12.488,12.488,0,0,1,4.411,12.172,9.226,9.226,0,0,1-3.76,5.865.984.984,0,0,0,.993,1.7c10.445-4.778,23.2-3.28,32.666,3.029a31.557,31.557,0,0,1,7.084,6.489c.794.984,2.178-.413,1.391-1.391" transform="translate(-229.446 -127.869)" fill="#016f67"/>
    <path id="Tracé_37356" data-name="Tracé 37356" d="M895.78,344.266l12.77-30.089-1.8-.758a84.066,84.066,0,0,0,.394,28.73.988.988,0,0,0,1.217.685,1,1,0,0,0,.226-.094,36.964,36.964,0,0,0,10.474-12.321c.489-.936-.8-2.1-1.545-1.193a5.888,5.888,0,0,0-.459,6.465c1.107,2.216,3.356,3.62,5.45,4.782,5.444,3.022,10.919,5.978,16.379,8.965l33.04,18.08L990.6,377.737c1.112.609,2.106-1.09.994-1.7l-31.46-17.215-31.46-17.216-4.453-2.437A23.128,23.128,0,0,1,920.711,337c-1.731-1.4-3.524-4.268-1.8-6.38l-1.545-1.192a34.772,34.772,0,0,1-9.768,11.615l1.443.59a81.237,81.237,0,0,1-.394-27.687c.157-.992-1.324-1.875-1.8-.758l-12.77,30.089a1.019,1.019,0,0,0,.353,1.346.99.99,0,0,0,1.346-.353" transform="translate(-307.575 -107.575)" fill="#016f67"/>
    <path id="Tracé_37357" data-name="Tracé 37357" d="M1082.585,361.459l-51.735,1.115-14.735.317a.985.985,0,0,0,0,1.968l51.735-1.115,14.734-.317a.985.985,0,0,0,0-1.968" transform="translate(-349.278 -124.364)" fill="#016f67"/>
    <path id="Tracé_37358" data-name="Tracé 37358" d="M1071.693,377.182l-22.827,1.343c-1.259.074-1.267,2.042,0,1.968l22.827-1.343c1.259-.074,1.267-2.043,0-1.968" transform="translate(-360.547 -129.773)" fill="#016f67"/>
    <path id="Tracé_37359" data-name="Tracé 37359" d="M398.393,416.27q-23.023-8.475-46.7-14.982-11.76-3.224-23.65-5.947-6.013-1.377-12.055-2.624c-3.627-.749-7.291-1.653-10.972-2.094-4.4-.525-10.882.3-11.047,5.965-.054,1.837.787,3.692.375,5.521a4.949,4.949,0,0,1-2.706,3.186c-2.836,1.489-5.944.992-8.835-.038-3.339-1.189-6.46-2.886-10.016-3.374a18.972,18.972,0,0,0-9.966,1.355c-3.366,1.435-5.844,4.132-9.017,5.871-3.245,1.775-7.009,1.947-10.611,1.513a74.492,74.492,0,0,1-11.315-2.569,68.854,68.854,0,0,1-9.651-3.4c-5.9-2.678-11.445-6.7-13.622-13.057a.993.993,0,0,0-1.9,0,17.807,17.807,0,0,1-8.357,11.474l1.347.353-2.039-3.323a.992.992,0,0,0-1.7,0,9.7,9.7,0,0,1-5.589,5.253c-2.755.973-6.035.582-8.914.632q-9.964.171-19.929.209-20.078.076-40.153-.39-11.3-.263-22.6-.7c-1.267-.049-1.264,1.919,0,1.968q41.915,1.6,83.867.853c3.137-.056,6.363.23,9.287-1.1a11.481,11.481,0,0,0,5.727-5.737h-1.7l2.039,3.322a1,1,0,0,0,1.346.353,19.785,19.785,0,0,0,9.262-12.65h-1.9c3.936,11.493,16.766,15.808,27.438,18.593,6.559,1.714,14.061,3.575,20.426.218,3.305-1.743,5.838-4.626,9.353-6.035a17.118,17.118,0,0,1,11.282-.477c5.787,1.747,11.729,5.934,17.742,2.4a6.667,6.667,0,0,0,3.417-6.555c-.153-1.687-.844-3.523-.115-5.159a4.531,4.531,0,0,1,3.168-2.308c2.784-.743,5.682-.228,8.448.3q6.2,1.192,12.37,2.521,12.061,2.6,24,5.711,27.21,7.1,53.634,16.835c1.19.438,1.705-1.463.525-1.9" transform="translate(-33.657 -134.351)" fill="#016f67"/>
    <path id="Tracé_37360" data-name="Tracé 37360" d="M450.1,106.618c12.434,3.366,24.66,7.617,37.344,10a93.39,93.39,0,0,0,36.615-.343c12.088-2.508,23.721-6.727,35.566-10.132a149.218,149.218,0,0,1,34.133-5.884c22.137-1.069,44.177,2.565,65.784,7.019,21.794,4.493,43.423,9.97,65.492,13,21.056,2.9,42.675,3.463,63.4-1.878,2.664-.687,5.3-1.473,7.911-2.34,1.2-.4.683-2.3-.525-1.9-20.55,6.828-42.319,7.417-63.686,5.037-22.084-2.461-43.722-7.788-65.417-12.423-21.283-4.545-42.889-8.631-64.729-8.677a145.54,145.54,0,0,0-32.268,3.385c-12.063,2.716-23.7,6.977-35.6,10.283-12.063,3.353-24.335,5.468-36.883,4.28-12.835-1.214-25.216-5.143-37.53-8.75-3.023-.886-6.051-1.755-9.092-2.579a.985.985,0,0,0-.525,1.9" transform="translate(-154.612 -33.75)" fill="#016f67"/>
    <path id="Tracé_37361" data-name="Tracé 37361" d="M110.606,103.776c10.1.792,20.118,2.325,30.093,4.053,19.673,3.407,39.31,7.635,59.307,8.589q3.779.18,7.562.193a.984.984,0,1,0,0-1.968c-20.112-.077-39.9-3.977-59.621-7.522-19.739-3.548-39.461-6.407-59.573-5.81" transform="translate(-30.406 -34.83)" fill="#016f67"/>
    <path id="Tracé_37362" data-name="Tracé 37362" d="M112.116,67.515a45.035,45.035,0,0,0,.939-17.312l-.948,1.246c6.109.726,11.529-6.21,9.413-11.966l-.687,1.211a8.506,8.506,0,0,0,1.644-15.334q.176.673.353,1.346c1.774-4.149-.8-9.486-5.357-10.316l.687,1.21a15.613,15.613,0,0,0-1.9-11.028C114.249,3.2,110.773.35,106.752.024a7.406,7.406,0,0,0-5.471,1.8,6.13,6.13,0,0,0-2.027,5.166,15.843,15.843,0,0,1,.116,3.246,11.419,11.419,0,0,1-.946,2.974,24.732,24.732,0,0,0-2.186,5.444c-.556,3.122,1.091,8.048,5.04,7.556l-.853-1.481c-4.367,7.047-3.558,16.648,1.347,23.22a19.19,19.19,0,0,0,5.09,4.752c1.072.682,2.06-1.02.993-1.7-6.292-4-9.386-12.147-8.009-19.392a17.234,17.234,0,0,1,2.278-5.89.991.991,0,0,0-.853-1.48c-2.57.321-3.456-3.07-3.142-5.065a19.22,19.22,0,0,1,1.878-4.732,12.956,12.956,0,0,0,1.377-4.854c.066-1.81-.642-3.7.385-5.352A5.1,5.1,0,0,1,105.5,1.994c3.5-.373,6.822,2.185,8.664,4.952a13.594,13.594,0,0,1,2.091,10.126,1,1,0,0,0,.687,1.21c3.173.578,5.5,4.351,4.181,7.426a1.015,1.015,0,0,0,.353,1.346A6.53,6.53,0,0,1,120.3,38.792a1,1,0,0,0-.687,1.21c1.705,4.645-2.624,10.056-7.516,9.474-.71-.085-1.025.693-.949,1.246a42.488,42.488,0,0,1-.939,16.267.985.985,0,0,0,1.9.525" transform="translate(-33.076 0)" fill="#016f67"/>
    <path id="Tracé_37363" data-name="Tracé 37363" d="M224.14,87.187a18.859,18.859,0,0,0-1.306-15.523q.05.379.1.758a13.307,13.307,0,0,0-1.566-12.58q-.177.673-.353,1.346a7.4,7.4,0,0,0,1.938-9.717l-.353,1.346c4.058-3.042,8.9-6.756,9.449-12.214.426-4.249-2.206-9.183-6.841-9.425l.984.984a7.613,7.613,0,0,0-14.465-3.673l1.111-.452A9.265,9.265,0,0,0,202.772,42.07a23.244,23.244,0,0,0,1.69,2.111,4.181,4.181,0,0,1,1.246,2.376c.022.969-.756,1.771-1.2,2.566a6.8,6.8,0,0,0-.853,2.741c-.328,3.7,2.361,7.2,5.087,9.394,3.12,2.511,7.368,4.562,8.855,8.539.44,1.175,2.342.666,1.9-.525-1.25-3.339-4.011-5.5-6.812-7.529S206.82,57.506,205.829,54a5.4,5.4,0,0,1-.182-2.328,6.794,6.794,0,0,1,1.128-2.471,4.426,4.426,0,0,0,.234-4.846c-.878-1.522-2.325-2.618-3.07-4.229a7.62,7.62,0,0,1-.428-5.038,7.389,7.389,0,0,1,8.8-5.156,1,1,0,0,0,1.11-.452,5.653,5.653,0,0,1,10.8,2.68,1,1,0,0,0,.984.984c3.65.19,5.368,4.652,4.823,7.8C229.25,45.43,225,48.566,221.6,51.115a1.006,1.006,0,0,0-.353,1.346,5.4,5.4,0,0,1-1.232,7.024,1,1,0,0,0-.354,1.347,11.413,11.413,0,0,1,1.974,9.129,11.608,11.608,0,0,1-.466,1.58,1.587,1.587,0,0,0,.223,1.592,16.877,16.877,0,0,1,.844,13.528c-.432,1.193,1.469,1.705,1.9.525" transform="translate(-69.263 -8.317)" fill="#016f67"/>
    <path id="Tracé_37364" data-name="Tracé 37364" d="M590.787,95.61a10.477,10.477,0,0,0-12.78-15.27l1.111.452A13.263,13.263,0,0,0,558.5,77.427a13.122,13.122,0,0,0-1.955,2.226,1.718,1.718,0,0,0-.506,1.377,1.772,1.772,0,0,0,.865,1.036,2.328,2.328,0,0,0,3.345-2.18c-.144-2.417-2.874-3.027-4.8-2.636a29.109,29.109,0,0,0-5.658,1.926c-3.549,1.541-7.15,4.09-7.773,8.185l.687-.687a11.587,11.587,0,0,0-3.114,21.433.984.984,0,0,0,.993-1.7,9.615,9.615,0,0,1,2.644-17.836.957.957,0,0,0,.687-.687c.516-3.377,3.345-5.379,6.248-6.731a33.535,33.535,0,0,1,4.9-1.771c.9-.262,2.278-.683,3,.183.172.206.344.51.094.7-.085.066-.234.032-.3.073s.012-.009-.017-.066v.993a11.307,11.307,0,0,1,19.585.518.989.989,0,0,0,1.111.452,8.518,8.518,0,0,1,10.561,12.38.984.984,0,0,0,1.7.993" transform="translate(-183.602 -25.429)" fill="#016f67"/>
    <path id="Tracé_37365" data-name="Tracé 37365" d="M840.177,114.4c-2.422-3.241-4.1-7.671-1.858-11.462a5.4,5.4,0,0,1,4.122-2.772,4.549,4.549,0,0,1,4.247,1.863,1,1,0,0,0,1.8-.235,6.151,6.151,0,0,1,11.735-.318,1.012,1.012,0,0,0,.949.722c4.147-.15,7.478-2.758,11.4-3.728a6.383,6.383,0,0,1,5.167.56,3.59,3.59,0,0,1,1.719,3.837c-.324,1.133,1.174,1.621,1.8.758a8.62,8.62,0,0,1,15.611,5.553,1,1,0,0,0,.984.984c1.875.02,2.466,2.573,1.94,4.022-.823,2.265-3.592,3.389-5.625,4.246a1.019,1.019,0,0,0-.687,1.21.99.99,0,0,0,1.211.687c2.81-1.181,6.483-2.808,7.144-6.166.521-2.645-.974-5.935-3.982-5.969l.984.984a10.582,10.582,0,0,0-19.275-6.545l1.8.758a5.248,5.248,0,0,0-1.374-5.009,7.063,7.063,0,0,0-5.366-2.165c-4.838.071-8.658,3.841-13.447,4.014l.948.722a8.119,8.119,0,0,0-15.531.317q.9-.116,1.8-.235a6.46,6.46,0,0,0-5.518-2.854,7.217,7.217,0,0,0-5.722,2.986c-3.313,4.39-1.69,10.181,1.332,14.226.749,1,2.458.023,1.7-.994" transform="translate(-287.399 -32.804)" fill="#016f67"/>
    <path id="Tracé_37366" data-name="Tracé 37366" d="M758.241,104.217c-.82-5.044.495-10.12.3-15.182-.165-4.264-1.482-8.675-5.116-11.243-1.036-.732-2.02.973-.993,1.7,3.473,2.455,4.207,7.105,4.156,11.057-.061,4.752-1.017,9.449-.247,14.193.2,1.246,2.1.718,1.9-.525" transform="translate(-258.732 -26.704)" fill="#016f67"/>
    <path id="Tracé_37367" data-name="Tracé 37367" d="M755.639,87.832l-3.793,4.255a.984.984,0,0,0,1.392,1.391l3.793-4.255a.984.984,0,1,0-1.366-1.416l-.025.025" transform="translate(-258.581 -30.116)" fill="#016f67"/>
    <path id="Tracé_37368" data-name="Tracé 37368" d="M757.927,88.589a28.862,28.862,0,0,0,9.154.485,1.014,1.014,0,0,0,.984-.984.99.99,0,0,0-.984-.984,27.19,27.19,0,0,1-8.632-.415,1.007,1.007,0,0,0-1.21.687.994.994,0,0,0,.687,1.21" transform="translate(-260.525 -29.816)" fill="#016f67"/>
    <path id="Tracé_37369" data-name="Tracé 37369" d="M730.576,91.276q.056-4.974.114-9.948a17.326,17.326,0,0,0,.027-2.412c-.019-.142.091-.294-.056-.15a.962.962,0,0,1,.342-.119c.38-.12.771-.212,1.156-.317l4.912-1.351a.984.984,0,1,0-.525-1.9l-5.345,1.47a3.655,3.655,0,0,0-2.022.941,3.858,3.858,0,0,0-.443,2.479L728.6,91.276a.984.984,0,0,0,1.968,0" transform="translate(-250.684 -25.82)" fill="#016f67"/>
    <path id="Tracé_37370" data-name="Tracé 37370" d="M727.287,74.974a24.213,24.213,0,0,0-5.734-6.537,1.014,1.014,0,0,0-1.392,0,.991.991,0,0,0,0,1.391,22.536,22.536,0,0,1,5.427,6.139.984.984,0,0,0,1.7-.993" transform="translate(-247.681 -23.451)" fill="#016f67"/>
    <path id="Tracé_37371" data-name="Tracé 37371" d="M725.136,78.754l-4.506,3.722a.983.983,0,0,0,0,1.391,1.01,1.01,0,0,0,1.392,0l4.506-3.722a.983.983,0,0,0,0-1.391,1.011,1.011,0,0,0-1.391,0" transform="translate(-247.841 -27.001)" fill="#016f67"/>
    <path id="Tracé_37372" data-name="Tracé 37372" d="M712.972,102.489c13.4,4.207,25,12.382,37.644,18.261,13.2,6.139,27.479,8.841,41.914,10.026,8.2.673,16.433.9,24.658,1.106a.985.985,0,0,0,0-1.968c-14.5-.371-29.12-.751-43.377-3.667a99.589,99.589,0,0,1-20.638-6.483c-6.3-2.811-12.3-6.231-18.357-9.523-6.86-3.729-13.852-7.3-21.324-9.65-1.211-.38-1.729,1.519-.525,1.9" transform="translate(-245.069 -34.592)" fill="#016f67"/>
    <path id="Tracé_37373" data-name="Tracé 37373" d="M777.982,12.967c2.421-3.705,5.913-7,10.388-7.877,4.042-.787,8.593.7,10.355,4.648a6.929,6.929,0,0,1-.148,6.224.984.984,0,0,0,1.7.993A9.385,9.385,0,0,1,811.606,13.5a9.4,9.4,0,0,1,5.034,10.75.992.992,0,0,0,1.21,1.21c1.749-.548,3.465.891,3.9,2.544.533,2.039-.432,4.188-1.542,5.854a15.46,15.46,0,0,1-7.631,5.808,17.151,17.151,0,0,1-9.642.649,15.5,15.5,0,0,1-2.243-.7c-.824-.328-1.555-.9-2.37-1.212a2.757,2.757,0,0,0-1.569.165q-.931.214-1.864.418c-1.246.269-2.493.518-3.754.714-4.224.656-8.733.669-12.65-1.251a12.749,12.749,0,0,1-4.287-3.29c-1.218-1.482-1.593-3.273-2.505-4.91a5.16,5.16,0,0,0-4.567-2.582c-1.848-.086-3.739.385-5.533-.243-3.083-1.08-4.927-4.565-4.824-7.711.136-4.116,3.507-7.453,7.07-9.038,4.723-2.1,10.2-1.395,15.047-.152a.985.985,0,0,0,.525-1.9C773.432,7.091,766.642,6.5,761.154,9.87c-4.35,2.674-7.437,7.692-5.969,12.875a10.114,10.114,0,0,0,4.071,5.7,7.767,7.767,0,0,0,3.276,1.2,31.974,31.974,0,0,0,4.1-.024,3.455,3.455,0,0,1,3.238,1.407c.728,1.176,1.018,2.575,1.706,3.779a13.655,13.655,0,0,0,5.7,5.23c6.595,3.362,14.071,1.8,20.928.211l-.758-.1a18.739,18.739,0,0,0,22.4-2.784c2.152-2.146,4.063-5.157,4.009-8.3-.056-3.272-3.056-6.6-6.527-5.51l1.211,1.21a11.458,11.458,0,0,0-3.258-11.144,10.816,10.816,0,0,0-11.356-2,11.153,11.153,0,0,0-5.343,4.329l1.7.993c2.393-4.212.565-9.713-3.383-12.266-4.395-2.845-10.258-2.02-14.439.8a22.57,22.57,0,0,0-6.172,6.487c-.7,1.063,1.008,2.05,1.7.993" transform="translate(-259.702 -1.004)" fill="#016f67"/>
    <path id="Tracé_37374" data-name="Tracé 37374" d="M648.261,19.179a10.341,10.341,0,0,0-7.625,7.96,9.738,9.738,0,0,0,4.449,10.036,9.545,9.545,0,0,0,11.132-.379,10.015,10.015,0,0,0,3.7-10.548,10.372,10.372,0,0,0-10.048-7.281c-1.262.05-1.269,2.018,0,1.968a8.4,8.4,0,0,1,7.707,4.7,7.769,7.769,0,0,1-1.705,8.85,7.548,7.548,0,0,1-8.7,1.6,8.012,8.012,0,0,1-4.754-7.478,8.377,8.377,0,0,1,6.369-7.537c1.235-.277.713-2.175-.525-1.9" transform="translate(-220.362 -6.526)" fill="#016f67"/>
    <path id="Tracé_37375" data-name="Tracé 37375" d="M434.461,18.421a32.367,32.367,0,0,1,4.061,8.512,1,1,0,0,0,1.8.235,12.594,12.594,0,0,1,8.668-5.919c1.246-.218.718-2.114-.525-1.9a14.489,14.489,0,0,0-9.839,6.822l1.8.235a34.2,34.2,0,0,0-4.259-8.982c-.7-1.05-2.406-.066-1.7.993" transform="translate(-149.424 -5.842)" fill="#016f67"/>
    <path id="Tracé_37376" data-name="Tracé 37376" d="M457.186,36.689l3.155,4.62a1,1,0,0,0,1.376.328.989.989,0,0,0,.169-.131,12.645,12.645,0,0,1,6.266-3.057.993.993,0,0,0,.687-1.212,1,1,0,0,0-1.21-.687,14.529,14.529,0,0,0-7.134,3.564l1.545.2-3.155-4.62a1.008,1.008,0,0,0-1.346-.353.993.993,0,0,0-.353,1.346" transform="translate(-157.254 -12.115)" fill="#016f67"/>
  </g>
</svg>
